<mxfile host="Electron" agent="Mozilla/5.0 (Windows NT 10.0; Win64; x64) AppleWebKit/537.36 (KHTML, like Gecko) draw.io/24.7.8 Chrome/128.0.6613.36 Electron/32.0.1 Safari/537.36" version="24.7.8" pages="3">
  <diagram name="Page-1" id="aO1cLbrbXsWvWcWFPp6a">
    <mxGraphModel dx="1034" dy="557" grid="1" gridSize="10" guides="1" tooltips="1" connect="1" arrows="1" fold="1" page="1" pageScale="1" pageWidth="850" pageHeight="1100" math="0" shadow="0">
      <root>
        <mxCell id="0" />
        <mxCell id="1" parent="0" />
        <mxCell id="FcxpYkve4eyx6zgnJjjo-30" value="" style="rounded=0;whiteSpace=wrap;html=1;" vertex="1" parent="1">
          <mxGeometry x="11.6" y="80" width="120" height="210" as="geometry" />
        </mxCell>
        <mxCell id="FcxpYkve4eyx6zgnJjjo-20" value="" style="rounded=0;whiteSpace=wrap;html=1;" vertex="1" parent="1">
          <mxGeometry x="531.5" y="40" width="120" height="290" as="geometry" />
        </mxCell>
        <mxCell id="FcxpYkve4eyx6zgnJjjo-1" value="" style="dashed=0;outlineConnect=0;html=1;align=center;labelPosition=center;verticalLabelPosition=bottom;verticalAlign=top;shape=mxgraph.weblogos.paypal" vertex="1" parent="1">
          <mxGeometry x="50" y="99" width="51.2" height="58" as="geometry" />
        </mxCell>
        <mxCell id="FcxpYkve4eyx6zgnJjjo-2" value="" style="outlineConnect=0;dashed=0;verticalLabelPosition=bottom;verticalAlign=top;align=center;html=1;shape=mxgraph.aws3.api_gateway;fillColor=#D9A741;gradientColor=none;" vertex="1" parent="1">
          <mxGeometry x="200" y="132.5" width="76.5" height="93" as="geometry" />
        </mxCell>
        <mxCell id="FcxpYkve4eyx6zgnJjjo-3" value="" style="outlineConnect=0;dashed=0;verticalLabelPosition=bottom;verticalAlign=top;align=center;html=1;shape=mxgraph.aws3.lambda_function;fillColor=#F58534;gradientColor=none;" vertex="1" parent="1">
          <mxGeometry x="207.5" y="340" width="69" height="72" as="geometry" />
        </mxCell>
        <mxCell id="FcxpYkve4eyx6zgnJjjo-4" value="Amazon DynamoDB" style="sketch=0;outlineConnect=0;fontColor=#232F3E;gradientColor=none;strokeColor=#ffffff;fillColor=#232F3E;dashed=0;verticalLabelPosition=middle;verticalAlign=bottom;align=center;html=1;whiteSpace=wrap;fontSize=10;fontStyle=1;spacing=3;shape=mxgraph.aws4.productIcon;prIcon=mxgraph.aws4.dynamodb;" vertex="1" parent="1">
          <mxGeometry x="345" y="132.5" width="80" height="110" as="geometry" />
        </mxCell>
        <mxCell id="FcxpYkve4eyx6zgnJjjo-7" value="" style="sketch=0;outlineConnect=0;fontColor=#232F3E;gradientColor=none;fillColor=#8C4FFF;strokeColor=none;dashed=0;verticalLabelPosition=bottom;verticalAlign=top;align=center;html=1;fontSize=12;fontStyle=0;aspect=fixed;pointerEvents=1;shape=mxgraph.aws4.opensearch_dashboards;" vertex="1" parent="1">
          <mxGeometry x="552" y="225.5" width="78" height="59" as="geometry" />
        </mxCell>
        <mxCell id="FcxpYkve4eyx6zgnJjjo-6" value="Amazon QuickSight" style="sketch=0;outlineConnect=0;fontColor=#232F3E;gradientColor=none;strokeColor=#ffffff;fillColor=#232F3E;dashed=0;verticalLabelPosition=middle;verticalAlign=bottom;align=center;html=1;whiteSpace=wrap;fontSize=10;fontStyle=1;spacing=3;shape=mxgraph.aws4.productIcon;prIcon=mxgraph.aws4.quicksight;" vertex="1" parent="1">
          <mxGeometry x="550" y="80" width="80" height="110" as="geometry" />
        </mxCell>
        <mxCell id="FcxpYkve4eyx6zgnJjjo-8" value="Open Search" style="text;html=1;align=center;verticalAlign=middle;whiteSpace=wrap;rounded=0;" vertex="1" parent="1">
          <mxGeometry x="552" y="280" width="79" height="30" as="geometry" />
        </mxCell>
        <mxCell id="FcxpYkve4eyx6zgnJjjo-9" value="Rest API" style="text;html=1;align=center;verticalAlign=middle;whiteSpace=wrap;rounded=0;" vertex="1" parent="1">
          <mxGeometry x="207.5" y="225.5" width="60" height="30" as="geometry" />
        </mxCell>
        <mxCell id="FcxpYkve4eyx6zgnJjjo-15" value="" style="endArrow=classic;html=1;rounded=0;" edge="1" parent="1">
          <mxGeometry width="50" height="50" relative="1" as="geometry">
            <mxPoint x="276.5" y="178.5" as="sourcePoint" />
            <mxPoint x="346.5" y="178.5" as="targetPoint" />
          </mxGeometry>
        </mxCell>
        <mxCell id="FcxpYkve4eyx6zgnJjjo-16" value="" style="endArrow=classic;html=1;rounded=0;" edge="1" parent="1">
          <mxGeometry width="50" height="50" relative="1" as="geometry">
            <mxPoint x="131.2" y="174.5" as="sourcePoint" />
            <mxPoint x="200" y="176" as="targetPoint" />
          </mxGeometry>
        </mxCell>
        <mxCell id="FcxpYkve4eyx6zgnJjjo-21" value="" style="endArrow=classic;html=1;rounded=0;" edge="1" parent="1">
          <mxGeometry width="50" height="50" relative="1" as="geometry">
            <mxPoint x="425" y="178.25" as="sourcePoint" />
            <mxPoint x="530" y="180" as="targetPoint" />
          </mxGeometry>
        </mxCell>
        <mxCell id="FcxpYkve4eyx6zgnJjjo-22" value="Payment status" style="text;html=1;align=center;verticalAlign=middle;whiteSpace=wrap;rounded=0;" vertex="1" parent="1">
          <mxGeometry x="131.2" y="161" width="60" height="30" as="geometry" />
        </mxCell>
        <mxCell id="FcxpYkve4eyx6zgnJjjo-23" value="Failures" style="text;html=1;align=center;verticalAlign=middle;whiteSpace=wrap;rounded=0;" vertex="1" parent="1">
          <mxGeometry x="442" y="157" width="60" height="30" as="geometry" />
        </mxCell>
        <mxCell id="FcxpYkve4eyx6zgnJjjo-25" value="" style="endArrow=blockThin;html=1;strokeColor=#475e75;bendable=1;rounded=0;endFill=1;endSize=4;startArrow=blockThin;startFill=1;startSize=4;jumpStyle=none;jumpSize=0;targetPerimeterSpacing=15;dashed=1;strokeWidth=1.5;dashPattern=1 4;" edge="1" parent="1">
          <mxGeometry width="50" height="50" relative="1" as="geometry">
            <mxPoint x="237.75" y="340" as="sourcePoint" />
            <mxPoint x="237.75" y="250" as="targetPoint" />
            <Array as="points">
              <mxPoint x="237.75" y="310" />
            </Array>
          </mxGeometry>
        </mxCell>
        <mxCell id="FcxpYkve4eyx6zgnJjjo-27" value="&lt;font style=&quot;font-size: 24px;&quot;&gt;Payment Gateway&lt;/font&gt;" style="text;html=1;align=center;verticalAlign=middle;whiteSpace=wrap;rounded=0;" vertex="1" parent="1">
          <mxGeometry x="6.199999999999999" y="30" width="310" height="30" as="geometry" />
        </mxCell>
        <mxCell id="FcxpYkve4eyx6zgnJjjo-28" value="backend" style="text;html=1;align=center;verticalAlign=middle;whiteSpace=wrap;rounded=0;rotation=270;" vertex="1" parent="1">
          <mxGeometry x="200" y="284.5" width="60" height="30" as="geometry" />
        </mxCell>
        <mxCell id="FcxpYkve4eyx6zgnJjjo-29" value="Details" style="text;html=1;align=center;verticalAlign=middle;whiteSpace=wrap;rounded=0;" vertex="1" parent="1">
          <mxGeometry x="276.5" y="157" width="60" height="30" as="geometry" />
        </mxCell>
        <mxCell id="FcxpYkve4eyx6zgnJjjo-31" value="" style="outlineConnect=0;dashed=0;verticalLabelPosition=bottom;verticalAlign=top;align=center;html=1;shape=mxgraph.aws3.oracle_db_instance_2;fillColor=#2E73B8;gradientColor=none;" vertex="1" parent="1">
          <mxGeometry x="45.60000000000002" y="192.5" width="60" height="63" as="geometry" />
        </mxCell>
        <mxCell id="FcxpYkve4eyx6zgnJjjo-32" value="Real time payments" style="text;html=1;align=center;verticalAlign=middle;whiteSpace=wrap;rounded=0;" vertex="1" parent="1">
          <mxGeometry x="41.19999999999999" y="290" width="60" height="30" as="geometry" />
        </mxCell>
      </root>
    </mxGraphModel>
  </diagram>
  <diagram id="RbLv-ZFQCol2Z7Pu_Bjh" name="Page-2">
    <mxGraphModel dx="1034" dy="557" grid="1" gridSize="10" guides="1" tooltips="1" connect="1" arrows="1" fold="1" page="1" pageScale="1" pageWidth="850" pageHeight="1100" math="0" shadow="0">
      <root>
        <mxCell id="0" />
        <mxCell id="1" parent="0" />
        <mxCell id="GTT7cH71L-WYsSc1KB4W-2" value="" style="rounded=0;whiteSpace=wrap;html=1;" vertex="1" parent="1">
          <mxGeometry x="648" y="75" width="120" height="355" as="geometry" />
        </mxCell>
        <mxCell id="pfmptLfOKyTqOzmuxVTS-5" value="" style="rounded=0;whiteSpace=wrap;html=1;" vertex="1" parent="1">
          <mxGeometry x="448" y="64" width="120" height="486" as="geometry" />
        </mxCell>
        <mxCell id="bzzjfqosqYmHQ_yX9Lkv-10" value="" style="rounded=0;whiteSpace=wrap;html=1;" vertex="1" parent="1">
          <mxGeometry x="257.25" y="179" width="98.75" height="191" as="geometry" />
        </mxCell>
        <mxCell id="bzzjfqosqYmHQ_yX9Lkv-6" value="" style="rounded=0;whiteSpace=wrap;html=1;" vertex="1" parent="1">
          <mxGeometry x="30" y="140" width="120" height="170" as="geometry" />
        </mxCell>
        <mxCell id="gJiUFIx6xmSvFs7knlPs-1" value="" style="image;sketch=0;aspect=fixed;html=1;points=[];align=center;fontSize=12;image=img/lib/mscae/SAP_HANA_on_Azure.svg;" vertex="1" parent="1">
          <mxGeometry x="70" y="153" width="50" height="25" as="geometry" />
        </mxCell>
        <mxCell id="gJiUFIx6xmSvFs7knlPs-2" value="" style="outlineConnect=0;dashed=0;verticalLabelPosition=bottom;verticalAlign=top;align=center;html=1;shape=mxgraph.aws3.oracle_db_instance_2;fillColor=#2E73B8;gradientColor=none;" vertex="1" parent="1">
          <mxGeometry x="60" y="350" width="60" height="63" as="geometry" />
        </mxCell>
        <mxCell id="bzzjfqosqYmHQ_yX9Lkv-1" value="" style="ellipse;shape=cloud;whiteSpace=wrap;html=1;fillColor=#85E2FF;" vertex="1" parent="1">
          <mxGeometry x="30" y="226" width="120" height="80" as="geometry" />
        </mxCell>
        <mxCell id="bzzjfqosqYmHQ_yX9Lkv-3" value="Salesforce" style="text;html=1;align=center;verticalAlign=middle;whiteSpace=wrap;rounded=0;" vertex="1" parent="1">
          <mxGeometry x="60" y="254" width="60" height="30" as="geometry" />
        </mxCell>
        <mxCell id="bzzjfqosqYmHQ_yX9Lkv-4" value="" style="endArrow=blockThin;html=1;strokeColor=#475e75;bendable=1;rounded=0;endFill=1;endSize=4;startArrow=blockThin;startFill=1;startSize=4;jumpStyle=none;jumpSize=0;targetPerimeterSpacing=15;dashed=1;strokeWidth=1.5;" edge="1" parent="1">
          <mxGeometry width="50" height="50" relative="1" as="geometry">
            <mxPoint x="89.5" y="178" as="sourcePoint" />
            <mxPoint x="90" y="233" as="targetPoint" />
          </mxGeometry>
        </mxCell>
        <mxCell id="bzzjfqosqYmHQ_yX9Lkv-7" value="" style="sketch=0;points=[[0,0,0],[0.25,0,0],[0.5,0,0],[0.75,0,0],[1,0,0],[0,1,0],[0.25,1,0],[0.5,1,0],[0.75,1,0],[1,1,0],[0,0.25,0],[0,0.5,0],[0,0.75,0],[1,0.25,0],[1,0.5,0],[1,0.75,0]];outlineConnect=0;fontColor=#232F3E;fillColor=#E7157B;strokeColor=#ffffff;dashed=0;verticalLabelPosition=bottom;verticalAlign=top;align=center;html=1;fontSize=12;fontStyle=0;aspect=fixed;shape=mxgraph.aws4.resourceIcon;resIcon=mxgraph.aws4.appflow;" vertex="1" parent="1">
          <mxGeometry x="266.25" y="75" width="78" height="78" as="geometry" />
        </mxCell>
        <mxCell id="bzzjfqosqYmHQ_yX9Lkv-8" value="Appflow" style="text;html=1;align=center;verticalAlign=middle;whiteSpace=wrap;rounded=0;" vertex="1" parent="1">
          <mxGeometry x="271" y="146" width="60" height="30" as="geometry" />
        </mxCell>
        <mxCell id="bzzjfqosqYmHQ_yX9Lkv-9" value="" style="endArrow=classic;html=1;rounded=0;entryX=0;entryY=0.25;entryDx=0;entryDy=0;" edge="1" parent="1" target="bzzjfqosqYmHQ_yX9Lkv-10">
          <mxGeometry width="50" height="50" relative="1" as="geometry">
            <mxPoint x="150" y="227" as="sourcePoint" />
            <mxPoint x="310" y="230" as="targetPoint" />
          </mxGeometry>
        </mxCell>
        <mxCell id="bzzjfqosqYmHQ_yX9Lkv-11" value="Batch processing" style="text;html=1;align=center;verticalAlign=middle;whiteSpace=wrap;rounded=0;" vertex="1" parent="1">
          <mxGeometry x="169" y="213" width="60" height="30" as="geometry" />
        </mxCell>
        <mxCell id="bzzjfqosqYmHQ_yX9Lkv-12" value="" style="outlineConnect=0;dashed=0;verticalLabelPosition=bottom;verticalAlign=top;align=center;html=1;shape=mxgraph.aws3.glue;fillColor=#F58534;gradientColor=none;" vertex="1" parent="1">
          <mxGeometry x="266.25" y="185" width="82.5" height="99" as="geometry" />
        </mxCell>
        <mxCell id="bzzjfqosqYmHQ_yX9Lkv-13" value="Glue ETL" style="text;html=1;align=center;verticalAlign=middle;whiteSpace=wrap;rounded=0;" vertex="1" parent="1">
          <mxGeometry x="296" y="284" width="60" height="30" as="geometry" />
        </mxCell>
        <mxCell id="bzzjfqosqYmHQ_yX9Lkv-18" value="ṢAAS applications" style="text;html=1;align=center;verticalAlign=middle;whiteSpace=wrap;rounded=0;" vertex="1" parent="1">
          <mxGeometry x="60" y="110" width="60" height="30" as="geometry" />
        </mxCell>
        <mxCell id="bzzjfqosqYmHQ_yX9Lkv-19" value="" style="endArrow=blockThin;html=1;strokeColor=#475e75;bendable=1;rounded=0;endFill=1;endSize=4;startArrow=blockThin;startFill=1;startSize=4;jumpStyle=none;jumpSize=0;targetPerimeterSpacing=15;dashed=1;strokeWidth=1.5;exitX=0.5;exitY=1;exitDx=0;exitDy=0;entryX=0.5;entryY=0;entryDx=0;entryDy=0;entryPerimeter=0;" edge="1" parent="1" source="bzzjfqosqYmHQ_yX9Lkv-6" target="gJiUFIx6xmSvFs7knlPs-2">
          <mxGeometry width="50" height="50" relative="1" as="geometry">
            <mxPoint x="180" y="360" as="sourcePoint" />
            <mxPoint x="180.5" y="415" as="targetPoint" />
          </mxGeometry>
        </mxCell>
        <mxCell id="bzzjfqosqYmHQ_yX9Lkv-21" value="Near real time" style="text;html=1;align=center;verticalAlign=middle;whiteSpace=wrap;rounded=0;rotation=0;" vertex="1" parent="1">
          <mxGeometry x="177" y="104" width="50" height="20" as="geometry" />
        </mxCell>
        <mxCell id="bzzjfqosqYmHQ_yX9Lkv-22" value="" style="endArrow=classic;html=1;rounded=0;entryX=0;entryY=0.5;entryDx=0;entryDy=0;entryPerimeter=0;exitX=0.833;exitY=0;exitDx=0;exitDy=0;exitPerimeter=0;edgeStyle=orthogonalEdgeStyle;" edge="1" parent="1" source="bzzjfqosqYmHQ_yX9Lkv-6" target="bzzjfqosqYmHQ_yX9Lkv-7">
          <mxGeometry width="50" height="50" relative="1" as="geometry">
            <mxPoint x="160" y="237" as="sourcePoint" />
            <mxPoint x="320" y="240" as="targetPoint" />
            <Array as="points">
              <mxPoint x="130" y="114" />
            </Array>
          </mxGeometry>
        </mxCell>
        <mxCell id="N5kAF2tcGA8xyBQKt9dZ-3" value="" style="endArrow=classic;html=1;rounded=0;entryX=0.028;entryY=0.921;entryDx=0;entryDy=0;entryPerimeter=0;" edge="1" parent="1" target="bzzjfqosqYmHQ_yX9Lkv-10">
          <mxGeometry width="50" height="50" relative="1" as="geometry">
            <mxPoint x="120" y="356.5121276094011" as="sourcePoint" />
            <mxPoint x="250" y="355" as="targetPoint" />
          </mxGeometry>
        </mxCell>
        <mxCell id="N5kAF2tcGA8xyBQKt9dZ-4" value="Batch processing" style="text;html=1;align=center;verticalAlign=middle;whiteSpace=wrap;rounded=0;" vertex="1" parent="1">
          <mxGeometry x="163" y="340.5" width="60" height="30" as="geometry" />
        </mxCell>
        <mxCell id="N5kAF2tcGA8xyBQKt9dZ-5" value="Near real time" style="text;html=1;align=center;verticalAlign=middle;whiteSpace=wrap;rounded=0;rotation=0;" vertex="1" parent="1">
          <mxGeometry x="190" y="412" width="50" height="20" as="geometry" />
        </mxCell>
        <mxCell id="N5kAF2tcGA8xyBQKt9dZ-6" value="" style="endArrow=classic;html=1;rounded=0;exitX=1;exitY=0.77;exitDx=0;exitDy=0;exitPerimeter=0;edgeStyle=orthogonalEdgeStyle;" edge="1" parent="1" source="gJiUFIx6xmSvFs7knlPs-2" target="N5kAF2tcGA8xyBQKt9dZ-8">
          <mxGeometry width="50" height="50" relative="1" as="geometry">
            <mxPoint x="116" y="450" as="sourcePoint" />
            <mxPoint x="310" y="440" as="targetPoint" />
            <Array as="points">
              <mxPoint x="120" y="420" />
            </Array>
          </mxGeometry>
        </mxCell>
        <mxCell id="N5kAF2tcGA8xyBQKt9dZ-8" value="" style="outlineConnect=0;dashed=0;verticalLabelPosition=bottom;verticalAlign=top;align=center;html=1;shape=mxgraph.aws3.database_migration_service;fillColor=#2E73B8;gradientColor=none;" vertex="1" parent="1">
          <mxGeometry x="265" y="390" width="72" height="81" as="geometry" />
        </mxCell>
        <mxCell id="N5kAF2tcGA8xyBQKt9dZ-9" value="DMS" style="text;html=1;align=center;verticalAlign=middle;whiteSpace=wrap;rounded=0;" vertex="1" parent="1">
          <mxGeometry x="266.25" y="466" width="60" height="30" as="geometry" />
        </mxCell>
        <mxCell id="N5kAF2tcGA8xyBQKt9dZ-13" value="Data Source" style="shape=step;perimeter=stepPerimeter;whiteSpace=wrap;html=1;fixedSize=1;" vertex="1" parent="1">
          <mxGeometry y="1" width="180" height="50" as="geometry" />
        </mxCell>
        <mxCell id="N5kAF2tcGA8xyBQKt9dZ-14" value="Data Processing" style="shape=step;perimeter=stepPerimeter;whiteSpace=wrap;html=1;fixedSize=1;" vertex="1" parent="1">
          <mxGeometry x="213.25" y="4" width="180" height="50" as="geometry" />
        </mxCell>
        <mxCell id="j8gysQzpIlfVQtAj0RFd-1" value="" style="dashed=0;outlineConnect=0;html=1;align=center;labelPosition=center;verticalLabelPosition=bottom;verticalAlign=top;shape=mxgraph.weblogos.paypal" vertex="1" parent="1">
          <mxGeometry x="3.799999999999997" y="440" width="51.2" height="58" as="geometry" />
        </mxCell>
        <mxCell id="j8gysQzpIlfVQtAj0RFd-2" value="" style="endArrow=classic;html=1;rounded=0;entryX=0.5;entryY=1;entryDx=0;entryDy=0;entryPerimeter=0;edgeStyle=orthogonalEdgeStyle;curved=1;" edge="1" parent="1" source="j8gysQzpIlfVQtAj0RFd-1" target="gJiUFIx6xmSvFs7knlPs-2">
          <mxGeometry width="50" height="50" relative="1" as="geometry">
            <mxPoint x="50" y="463" as="sourcePoint" />
            <mxPoint x="100" y="413" as="targetPoint" />
          </mxGeometry>
        </mxCell>
        <mxCell id="pfmptLfOKyTqOzmuxVTS-1" value="Storage layer" style="shape=step;perimeter=stepPerimeter;whiteSpace=wrap;html=1;fixedSize=1;" vertex="1" parent="1">
          <mxGeometry x="418" y="4" width="180" height="50" as="geometry" />
        </mxCell>
        <mxCell id="pfmptLfOKyTqOzmuxVTS-2" value="Amazon S3" style="sketch=0;outlineConnect=0;fontColor=#232F3E;gradientColor=none;strokeColor=#ffffff;fillColor=#232F3E;dashed=0;verticalLabelPosition=middle;verticalAlign=bottom;align=center;html=1;whiteSpace=wrap;fontSize=10;fontStyle=1;spacing=3;shape=mxgraph.aws4.productIcon;prIcon=mxgraph.aws4.s3;" vertex="1" parent="1">
          <mxGeometry x="473" y="190" width="80" height="100" as="geometry" />
        </mxCell>
        <mxCell id="pfmptLfOKyTqOzmuxVTS-3" value="Amazon Redshift" style="sketch=0;outlineConnect=0;fontColor=#232F3E;gradientColor=none;strokeColor=#ffffff;fillColor=#232F3E;dashed=0;verticalLabelPosition=middle;verticalAlign=bottom;align=center;html=1;whiteSpace=wrap;fontSize=10;fontStyle=1;spacing=3;shape=mxgraph.aws4.productIcon;prIcon=mxgraph.aws4.redshift;" vertex="1" parent="1">
          <mxGeometry x="473" y="80" width="80" height="110" as="geometry" />
        </mxCell>
        <mxCell id="pfmptLfOKyTqOzmuxVTS-4" value="Amazon Athena" style="sketch=0;outlineConnect=0;fontColor=#232F3E;gradientColor=none;strokeColor=#ffffff;fillColor=#232F3E;dashed=0;verticalLabelPosition=middle;verticalAlign=bottom;align=center;html=1;whiteSpace=wrap;fontSize=10;fontStyle=1;spacing=3;shape=mxgraph.aws4.productIcon;prIcon=mxgraph.aws4.athena;" vertex="1" parent="1">
          <mxGeometry x="473" y="298.25" width="80" height="110" as="geometry" />
        </mxCell>
        <mxCell id="pfmptLfOKyTqOzmuxVTS-6" value="Data Visualization" style="shape=step;perimeter=stepPerimeter;whiteSpace=wrap;html=1;fixedSize=1;" vertex="1" parent="1">
          <mxGeometry x="627" y="4" width="180" height="50" as="geometry" />
        </mxCell>
        <mxCell id="pfmptLfOKyTqOzmuxVTS-9" value="" style="sketch=0;pointerEvents=1;shadow=0;dashed=0;html=1;strokeColor=none;fillColor=#434445;aspect=fixed;labelPosition=center;verticalLabelPosition=bottom;verticalAlign=top;align=center;outlineConnect=0;shape=mxgraph.vvd.nsx_dashboard;" vertex="1" parent="1">
          <mxGeometry x="687" y="328" width="50" height="46.5" as="geometry" />
        </mxCell>
        <mxCell id="pfmptLfOKyTqOzmuxVTS-10" value="Near Real time" style="text;html=1;align=center;verticalAlign=middle;whiteSpace=wrap;rounded=0;" vertex="1" parent="1">
          <mxGeometry x="682" y="379" width="60" height="30" as="geometry" />
        </mxCell>
        <mxCell id="pfmptLfOKyTqOzmuxVTS-11" value="" style="sketch=0;pointerEvents=1;shadow=0;dashed=0;html=1;strokeColor=none;fillColor=#434445;aspect=fixed;labelPosition=center;verticalLabelPosition=bottom;verticalAlign=top;align=center;outlineConnect=0;shape=mxgraph.vvd.nsx_dashboard;" vertex="1" parent="1">
          <mxGeometry x="688" y="206.75" width="50" height="46.5" as="geometry" />
        </mxCell>
        <mxCell id="pfmptLfOKyTqOzmuxVTS-12" value="AP/AR&lt;div&gt;Dashboards&lt;/div&gt;" style="text;html=1;align=center;verticalAlign=middle;whiteSpace=wrap;rounded=0;" vertex="1" parent="1">
          <mxGeometry x="683" y="255.25" width="60" height="30" as="geometry" />
        </mxCell>
        <mxCell id="pfmptLfOKyTqOzmuxVTS-13" value="" style="endArrow=classic;html=1;rounded=0;" edge="1" parent="1" source="pfmptLfOKyTqOzmuxVTS-4" target="pfmptLfOKyTqOzmuxVTS-9">
          <mxGeometry width="50" height="50" relative="1" as="geometry">
            <mxPoint x="574" y="370" as="sourcePoint" />
            <mxPoint x="727.0024999999999" y="371.58000000000004" as="targetPoint" />
          </mxGeometry>
        </mxCell>
        <mxCell id="219suKIpURABiBHcez6D-1" value="" style="outlineConnect=0;dashed=0;verticalLabelPosition=bottom;verticalAlign=top;align=center;html=1;shape=mxgraph.aws3.api_gateway;fillColor=#D9A741;gradientColor=none;" vertex="1" parent="1">
          <mxGeometry x="254.25" y="520" width="76.5" height="93" as="geometry" />
        </mxCell>
        <mxCell id="219suKIpURABiBHcez6D-2" value="" style="outlineConnect=0;dashed=0;verticalLabelPosition=bottom;verticalAlign=top;align=center;html=1;shape=mxgraph.aws3.lambda_function;fillColor=#F58534;gradientColor=none;" vertex="1" parent="1">
          <mxGeometry x="379" y="563.75" width="31" height="33.5" as="geometry" />
        </mxCell>
        <mxCell id="219suKIpURABiBHcez6D-3" value="Rest API" style="text;html=1;align=center;verticalAlign=middle;whiteSpace=wrap;rounded=0;" vertex="1" parent="1">
          <mxGeometry x="263.75" y="606" width="60" height="30" as="geometry" />
        </mxCell>
        <mxCell id="219suKIpURABiBHcez6D-5" value="" style="endArrow=classic;html=1;rounded=0;edgeStyle=orthogonalEdgeStyle;" edge="1" parent="1" source="j8gysQzpIlfVQtAj0RFd-1" target="219suKIpURABiBHcez6D-1">
          <mxGeometry width="50" height="50" relative="1" as="geometry">
            <mxPoint x="35" y="498" as="sourcePoint" />
            <mxPoint x="180" y="519" as="targetPoint" />
            <Array as="points">
              <mxPoint x="35" y="580" />
            </Array>
          </mxGeometry>
        </mxCell>
        <mxCell id="H_j8yI4s2TFtBluQv4lY-1" value="" style="endArrow=blockThin;html=1;strokeColor=#475e75;bendable=1;rounded=0;endFill=1;endSize=4;startArrow=blockThin;startFill=1;startSize=4;jumpStyle=none;jumpSize=0;targetPerimeterSpacing=15;dashed=1;strokeWidth=1.5;dashPattern=1 4;exitX=0.145;exitY=0.855;exitDx=0;exitDy=0;exitPerimeter=0;entryX=1;entryY=0.8;entryDx=0;entryDy=0;entryPerimeter=0;" edge="1" parent="1" source="219suKIpURABiBHcez6D-2" target="219suKIpURABiBHcez6D-1">
          <mxGeometry width="50" height="50" relative="1" as="geometry">
            <mxPoint x="367" y="587.5" as="sourcePoint" />
            <mxPoint x="333.75" y="587.5" as="targetPoint" />
          </mxGeometry>
        </mxCell>
        <mxCell id="H_j8yI4s2TFtBluQv4lY-2" value="" style="endArrow=classic;html=1;rounded=0;edgeStyle=orthogonalEdgeStyle;" edge="1" parent="1" source="219suKIpURABiBHcez6D-1" target="GTT7cH71L-WYsSc1KB4W-1">
          <mxGeometry width="50" height="50" relative="1" as="geometry">
            <mxPoint x="365" y="522.5" as="sourcePoint" />
            <mxPoint x="403" y="249.5" as="targetPoint" />
            <Array as="points">
              <mxPoint x="360" y="567" />
              <mxPoint x="360" y="450" />
            </Array>
          </mxGeometry>
        </mxCell>
        <mxCell id="GTT7cH71L-WYsSc1KB4W-1" value="Amazon DynamoDB" style="sketch=0;outlineConnect=0;fontColor=#232F3E;gradientColor=none;strokeColor=#ffffff;fillColor=#232F3E;dashed=0;verticalLabelPosition=middle;verticalAlign=bottom;align=center;html=1;whiteSpace=wrap;fontSize=10;fontStyle=1;spacing=3;shape=mxgraph.aws4.productIcon;prIcon=mxgraph.aws4.dynamodb;" vertex="1" parent="1">
          <mxGeometry x="473" y="414" width="80" height="110" as="geometry" />
        </mxCell>
        <mxCell id="GTT7cH71L-WYsSc1KB4W-3" value="Amazon QuickSight" style="sketch=0;outlineConnect=0;fontColor=#232F3E;gradientColor=none;strokeColor=#ffffff;fillColor=#232F3E;dashed=0;verticalLabelPosition=middle;verticalAlign=bottom;align=center;html=1;whiteSpace=wrap;fontSize=10;fontStyle=1;spacing=3;shape=mxgraph.aws4.productIcon;prIcon=mxgraph.aws4.quicksight;" vertex="1" parent="1">
          <mxGeometry x="668" y="80" width="80" height="110" as="geometry" />
        </mxCell>
        <mxCell id="GTT7cH71L-WYsSc1KB4W-4" value="Real&amp;nbsp;&lt;div&gt;time&lt;/div&gt;" style="text;html=1;align=center;verticalAlign=middle;whiteSpace=wrap;rounded=0;rotation=0;" vertex="1" parent="1">
          <mxGeometry x="120" y="570.5" width="50" height="20" as="geometry" />
        </mxCell>
        <mxCell id="GTT7cH71L-WYsSc1KB4W-7" value="" style="endArrow=classic;html=1;rounded=0;entryX=-0.022;entryY=0.081;entryDx=0;entryDy=0;entryPerimeter=0;exitX=1.005;exitY=0.372;exitDx=0;exitDy=0;exitPerimeter=0;" edge="1" parent="1" source="bzzjfqosqYmHQ_yX9Lkv-7" target="pfmptLfOKyTqOzmuxVTS-5">
          <mxGeometry width="50" height="50" relative="1" as="geometry">
            <mxPoint x="346.88" y="104" as="sourcePoint" />
            <mxPoint x="453.88" y="104" as="targetPoint" />
          </mxGeometry>
        </mxCell>
        <mxCell id="GTT7cH71L-WYsSc1KB4W-8" value="" style="endArrow=classic;html=1;rounded=0;entryX=0.028;entryY=0.394;entryDx=0;entryDy=0;entryPerimeter=0;" edge="1" parent="1" target="pfmptLfOKyTqOzmuxVTS-5">
          <mxGeometry width="50" height="50" relative="1" as="geometry">
            <mxPoint x="357" y="255" as="sourcePoint" />
            <mxPoint x="450" y="254" as="targetPoint" />
          </mxGeometry>
        </mxCell>
        <mxCell id="GTT7cH71L-WYsSc1KB4W-9" value="Amazon S3" style="sketch=0;outlineConnect=0;fontColor=#232F3E;gradientColor=none;strokeColor=#ffffff;fillColor=#232F3E;dashed=0;verticalLabelPosition=middle;verticalAlign=bottom;align=center;html=1;whiteSpace=wrap;fontSize=10;fontStyle=1;spacing=3;shape=mxgraph.aws4.productIcon;prIcon=mxgraph.aws4.s3;" vertex="1" parent="1">
          <mxGeometry x="266.25" y="309" width="30" height="60" as="geometry" />
        </mxCell>
        <mxCell id="GTT7cH71L-WYsSc1KB4W-10" value="" style="sketch=0;pointerEvents=1;shadow=0;dashed=0;html=1;strokeColor=none;fillColor=#505050;labelPosition=center;verticalLabelPosition=bottom;verticalAlign=top;outlineConnect=0;align=center;shape=mxgraph.office.users.csv_file;" vertex="1" parent="1">
          <mxGeometry x="180" y="285.5" width="59" height="43" as="geometry" />
        </mxCell>
        <mxCell id="GTT7cH71L-WYsSc1KB4W-14" value="" style="endArrow=classic;html=1;rounded=0;entryX=0;entryY=0.5;entryDx=0;entryDy=0;entryPerimeter=0;" edge="1" parent="1" target="GTT7cH71L-WYsSc1KB4W-12">
          <mxGeometry width="50" height="50" relative="1" as="geometry">
            <mxPoint x="100" y="680" as="sourcePoint" />
            <mxPoint x="190" y="679.5" as="targetPoint" />
          </mxGeometry>
        </mxCell>
        <mxCell id="GTT7cH71L-WYsSc1KB4W-22" value="" style="endArrow=none;dashed=1;html=1;dashPattern=1 3;strokeWidth=2;rounded=0;entryX=0.458;entryY=-0.028;entryDx=0;entryDy=0;entryPerimeter=0;" edge="1" parent="1" source="GTT7cH71L-WYsSc1KB4W-10" target="GTT7cH71L-WYsSc1KB4W-9">
          <mxGeometry width="50" height="50" relative="1" as="geometry">
            <mxPoint x="440" y="310" as="sourcePoint" />
            <mxPoint x="490" y="260" as="targetPoint" />
          </mxGeometry>
        </mxCell>
        <mxCell id="GTT7cH71L-WYsSc1KB4W-24" value="" style="endArrow=classic;html=1;rounded=0;exitX=1;exitY=0.25;exitDx=0;exitDy=0;exitPerimeter=0;" edge="1" parent="1" source="GTT7cH71L-WYsSc1KB4W-25" target="GTT7cH71L-WYsSc1KB4W-27">
          <mxGeometry width="50" height="50" relative="1" as="geometry">
            <mxPoint x="441.75" y="840.92" as="sourcePoint" />
            <mxPoint x="598" y="820" as="targetPoint" />
          </mxGeometry>
        </mxCell>
        <mxCell id="GTT7cH71L-WYsSc1KB4W-37" value="" style="group" vertex="1" connectable="0" parent="1">
          <mxGeometry x="30" y="636" width="72.9" height="164" as="geometry" />
        </mxCell>
        <mxCell id="GTT7cH71L-WYsSc1KB4W-16" value="Amazon S3" style="sketch=0;outlineConnect=0;fontColor=#232F3E;gradientColor=none;strokeColor=#ffffff;fillColor=#232F3E;dashed=0;verticalLabelPosition=middle;verticalAlign=bottom;align=center;html=1;whiteSpace=wrap;fontSize=10;fontStyle=1;spacing=3;shape=mxgraph.aws4.productIcon;prIcon=mxgraph.aws4.s3;" vertex="1" parent="GTT7cH71L-WYsSc1KB4W-37">
          <mxGeometry x="10" y="104" width="36.75" height="60" as="geometry" />
        </mxCell>
        <mxCell id="GTT7cH71L-WYsSc1KB4W-36" value="" style="group" vertex="1" connectable="0" parent="GTT7cH71L-WYsSc1KB4W-37">
          <mxGeometry width="72.9" height="104" as="geometry" />
        </mxCell>
        <mxCell id="GTT7cH71L-WYsSc1KB4W-11" value="" style="shape=image;verticalLabelPosition=bottom;labelBackgroundColor=default;verticalAlign=top;aspect=fixed;imageAspect=0;image=data:image/png,iVBORw0KGgoAAAANSUhEUgAAAUQAAAGQCAYAAADWRRn/AAAAAXNSR0IArs4c6QAAAARnQU1BAACxjwv8YQUAAAAJcEhZcwAAFiUAABYlAUlSJPAAAGIySURBVHhe7Z0JgCRVff9/M90zs/cBy4rccql4RpKo8UJ0FRHFC0EuNRqMEf/eeBuj8Y5oQrzAW7xiVBSPRGMQBRHFG0QhwHLtLnvNzO7c08f/93lVv57anu6ZnqOnq7p/n93fVHUdr169eu9bv1fv1auusiKO4ziOdMdTx3GcjscF0XEcJ8YF0XEcJ8YF0XEcJ8YF0XEcJ8YF0XEcJ8YF0XEcJ8YF0XEcJ8YF0XEcJ8YF0XEcJ8YF0XEcJ8YF0XEcJ8YF0XEcJ8YF0XEcJ8YF0XEcJ8YF0XEcJ8YF0XEcJ8YF0XEcJ8YF0XEcJ8YF0XEcJ8Y/MuU4i0i94tTV1RXPOWnGPUTHcZwYF0THcZwYrzI7TgOMjY3JzTffXLPqSxFatmyZHHnkkWF9rW28ypwNXBAdpwHuvPNOOfHEE2s+I2TZYx/7WLn44oulp6en5jYuiNnAq8yO0wCIXKFQkP3220/Wr18fpma5XK6uZ7hYuN+yNLggOs4sIEaI3fDwcKg6j46Ohik2Pj4efoMJoolj0hbKYoThzI5XmR1nFigid911lxx//PFy4IEHSqlUku7uyJdAqHbv3i2bNm2SSy65JHiLzWDv3r1y2223xb/SBelz73vfWzZu3BgvyS4uiI4zC2kQxGuvvVYe//jHp8pTtLhMTEzI5z//eTnjjDPC7yzjgug4szCbIA4ODoYGl2YK4m9/+9sgOLRmpwHOmzTI5/Mhbl/5ylfkmc98Zrw2u/gzRMdZIDxbbDaIMM8qeWaZBiMuIyMjYdpOPpV7iI4zC4jRjh075IILLpC1a9eG31ZdZErjynHHHScvf/nLm+Yh/uY3v5HnPve5smLFivCbYpuMQ5LFLtLJ8C1s0oB5uhndcMMN8tWvfrUtPEQXxBZD8ldnaKi+LLW2cZYGrkWxWKyIQD0QB6tKLzYmiMuXL6/EgzzB8ZLHZPls8ZwLdgwgTDNgHed8/fXXt40gepU5BSQzWjLDOekBz4/nZQgAxny1pQFEyuK6WIYgdsoN2T3ERcKSca4ZZzYBTIbXKZkyrcxWVJp5fWbyEBFAnmPas8ykx7hQ7Jy5CfC4gM7pHN9Est08xFQJ4t133y233357SORWR4sLf8ghhwSrl8FuueUW2blzZ6UgJKdkmvvc5z5ywAEHhGVg52TreTd2YGCgsl+SyclJud/97hcyYfIOXWtbZ+mYLV826/rMJIhDQ0PysIc9LBge3WLCsRBcRI+uPxzPljHvgthEvvzlL8s555wTHhy3Olq0oH3961+XZzzjGfGSfSF+b3rTm+Siiy4KmZDMiYgCv+mb9e1vf7vSd8zOxwoM27761a+Wz372szUFt7e3V773ve+Frh5g+9nU6SxmEsTNmzfLu971LnnZy14Wli1WHuEYGMf40pe+JG94wxvCDdqODe0miC1/hmiJjvX19QUxwTNi5JCkHXXUUUtiRx99tBx77LEhPibMWC3IKHiBxxxzTJhaPO973/uGfegzxjZkYMvE1WHZMZPG+bMfd+FkBl+sjO7MH7uG9awVWN5iao0/yfw2X0uGjZH/yJftnA9T16hCwnNRk2YXGsOzojq52Ea4dgzLDLNhcWXf5P6El4RMZAJnGcoyFdvTrwuPEmOesJx0YteunrWSpFgl45KMX3J5I8x1+6yTOkFMYhcD4TFRtDtVM6wVJI9fLZaO4ywtqRZE89RMLDBIeoyLZYQJHNOOuxTYuSSnFhfHcZaWTAgimCjyEBej0WExzfpbmZfWKObR2b5z3Z9qNMdOTjHHcZae1AoiomIihedEq++ePXtk165dYXSRZhrHaMRTZL3tQ/cZ4sfU9m+E/v7+sD3ddzCbdxxn6Wl5t5vk4b/5zW/K8573PHngAx8YGiYQRdbTyMD7onRhoa/VUkADB0M6PeABD6jp8RGvK664Qv74xz8G0TZYjoDD0572tND6zDKqwUnvkd9XXXWV/O53v9snDcDOm24M9IO0ZU7nMlO3m1tvvVXe/e53y/nnnx9vHWF5hukdd9wRDKrzG78PO+wwOfzww+MlU1i+pdsN3czWrVu3zyMd74e4yCQPXy2IBvMI1Dvf+c6wfqkwYVoMMSKcalFE6JO/q2F7qs+LFQcnuyxEEIE+raeffnoQsCTsT83mve99b+gXW43lWfoIv/GNb2x7QUz1M0QDUeDiciGYNstqUW/5XCEcMlYSeySQjIMZ2Pb223HmQtLZIC9t2LAh1DgOPvjgiuEVIrKrV6+Ot+xsUiuIXEwz+40wIIrNsmqq47BQTOxqHasWLoTOYmF5vDovs4x8Zo95ZiKZHxezXKSJTHiIXAhLfOabZfWYad18qPYUa7HYx3Q6G6tlgYlZUtTmm99s/3YhE4KYpPpiLqbVY6Z1C6U6DmaOsxhYXkLwrJ9rdV6zbWrRaTfmzAniTHDxMDyw+VgtLMxmYeFXm9NZzCZMCwUxxEvk/XrGDDCjUWSu+a2Z8Ww1mRPEauEwM0Fr9PlcLWqF6zjNIiksNt8ssSFcPmXKpxAw6/e6ffv20INjNjqlLKS22031RWLwS7rdnHnmmfGSfeGCMTAC/RXtTQ8XNCftkP8x897q3Yjn0+3GYDu2ufLKK+uGf+ihh4YvB1Zjx+GrenS7YfivZAMMHqZ/U2URSR5+IYII9KfiLmhwIWudXq0M4TitAoFZtWpV6ONX79HNQgUR6PeabFxpBI7DMawfYrsLYttUmQ3LLFBLDB2nVZAfqw2q87EtXywsPPq9JsuKM53MCWI9uNDJjGaZIJnZzBwnLZBPuYnjdSXzbCuoLietikcraRtBrEdSIC3DOU47M5Ow1VpnVguWd1K56QhB5O5rVWkXRaedqRa5apsP890vi7S9IHIxeZDMg2F7YG3C6Oa2FGY0U1iqj+XMj7YXRLCMaJkGb9HNbSksmd+YJy82UxibFbZ1ZWt3Mtft5qyzzoqXTIfBWQcHByuZDrPwuaC0snlLm9MKRkdHgyha3kvmex7prFy5Uvbbb795dbvZtm1bWEe3l2YJ149+9CO59NJLZc2aNW3d7aZjBJELR18vMlS9TOc4zYL8Sz9ZE0UTNKaNCuJpp50W8m+yzBAG+5Dv+WC9hbuYECaf2TjwwAP38XYxyhWDJHs/xAxBBqFTqmUepm5uS2m8N1wtZHPFwiIPJw3oMM34hrxxwpiHTBfLCO+AAw4IZSjZPQgQx3ai7QVxPhnPcZpNUlQaxbyypJnHhlBhjC5vI8wvliVF0BwKo93Kl9cdHSdDmJdYbUmqRXOhlqwi23y74oLoOBnCPMJqS1JLMBdi5hUypdEGS65rJ1wQHWfRwHNqnveEAJkg1bKkYFmPisWwZPjEAZhvNzGEVLQyYyR0M1qZk6xfv15WrFgxbbkxrsZRud9aorTXExJnsSF/IAt8y66vqDmnW5fUyF+FiUm5Z/v2kNe7dZuo2OlU/zXSyvzLX/5STjrppNDau9TUKy8GYyp+4QtfCGU366RGEOGyyy5rqSD+cmCP3DU+LsXufMio0NXS1HFSScgUpSBn3DpzausmC3LCAfeiw6uuny5qhcnJIBzk9ZD/yPM6Lem+jQgifQ2vu+66+Ff6OO644+TII4+Mf2UXF8QE/7z1brmWrgU5FcTWJouTZroQQ6aRIPaUS3KsCuI/H34f6VN5lPLiCyLbpLmKynNMqtVZJ70p3AL6yjlZUc7L8lK3LNf55Zqx3dyStkytT62n3CX5Upfk1ETzi+i0D5ls0n00zWKTdGqyTuoE0Tw77jjcFc3sdzPp00y+XDP2cs3Yy/X6LtffK9zcpll3ZOoNYr26LMeD55JmmiYKg5WNtBmeazt4h5CqV/d+//vfh1eANmzYEJaT2Abvgj7xiU+Uhz/84fGS6Sy0ynzhlnvk11r1mcx36/F1f13WpdUhaGkiOSmCnBDlBs0iSkl1sCxHT0zIe+9zhP5WH6NrujgstMqcdqrLa1ZpuSCCRYHpbNGZ6U60YEHcul1+VShIIWeCWJbuRNwcJ9BFkxv/onlqL0dNTsj7jnBBzDqpSX0S01zvmWzpmBJCF0OnJuiaWfzbyTapEMQ03VlCTBBAcjjPhBynBuSMfYyMY9aBtIN3CNn0z5uIO4POXDFRdLKPC+I0oqwdqsphznHqE/JIB3uG7YYLouPMExNDv3G2Dy6IMxE3qNSzkv/rzH9l2ob5p1PNBy6J7YML4jyxlsWoYPi/zvrntCsuiI7jODEuiI7jODEuiI5izaSJptKqn47TCbggth1T4lbGeD1MrdjdHazUFU0LahM5naoVGbBUt5naM6acDM1x2h8XxLYkErii2oTaqKrZ3nJZ9pRERlUIh1QAB/TK786LDKogjiKKua6QGXIqgt0IIVP9zTzmOJ2AC2LWid23yju1waK20NUMOlAoyybJyd+tXCNv2nCAvO2Ae8m773WQ/NPaA+R1PWvkOcWc3G9sUmRiQiY0N5RULE0EGeqvwDKdOk4n4IKYZRA/nYRvwOg8wlXUX7lyUQ6ZnJDj8z3yVBXB5xx8bzll/Rp5fF+vPEKrzH+pOzy2t1dOWbdaTj9oo5x28KFywvJVcsjIqCwrTMokY2gggupdUt0OVW+15L9oA8dpL1wQs4rqEWJoXiFiiJXLJdmvp1vO2rhRXqz2xGV9cmihJCvUwmAVoS5cllK+LJM6v1ZD+Rvd7xXrNsgrDjpCjunJy2ifhqM5o0ur2Tk9EGIYCaBKIQer/Hac9sIFMaPEuhamkTSV9WKW5C+6u+VV9zpYjlePb2VOxSxXlmK+K1hZPT+EDk1j3z7VSJ4Z8hkQUYE8tKdLzj3oUHnamP4uFaTAPvH2jtMJuCBmjYo4xZVXFTQ0TRVMjp0sy5M2bJRjdZtcsaCLSlqFnnqzwrzJJPykys1nQXrVszxMF5x6yKHy4Hyf9I1OiIYSeZ5sXAkonoa9a5njZBMXxCyhWoMWmR516e8giqqKPaWinHngofJXfct0fVGvbCROOVVAvMApTzIihBOHF5brDC3ScC+df+6Gg+TI7l4p6kaFsJ0u5L1drXZX/oXtq81xsosLYsaIxhLgT+TZjReLsmZiUp6wao0c05eT/PiEdIVmYTUVLJOosER3w6phUUlX8G2QSTWGtD8qL/KX69fLeg0vlsOK5NUKw3HaARfELIGg6YTRiRlvpaBV4slCQTZ2dcsJKoh9SGROt8D1i729oGQNEIml/lHrpuuNBvXQNSu1+t0dnjfGR9Ztoum0urfjtAEuiBkjyBGCqFVXGo2pGR/U0ydHF0p6MXWZLih3Jy5rA7oVwtSw8jqX1327c7q/Lry3Ln/Uho1TgqgiGPmcZo7TXrggZpCiChQeImK4PpeTA5b1RR/gUq+u1J2TSV1e1CuLExe0rAEQWbrY4CFSFWfPZTpz+MplkefoOB2AC2JWwCFT0ar0CdSqbJd6c8tVtPbrXRbW4TLiwSFfwdi0DnEoU8YOGob9ZhBUWKE/VpaiarO9AROHHoQyilHSFgmLVNIcp8m4IGaIIAmxKHarIOoP6SkUZFW+hzVhAxO0QB0NCdpSbRUiUQzohhxlTa43dFWkT2JYoOrYreumi+G0wBZAjXBcFJ0m44KYcXLqpfUknhmaIOLRsRQNqbZZYTtCibft0eo4XXsItBQeKOI9lsJxmoZX050W4IKYQSpCpJpRUE9xPK7eggli2Ga+mkJVGE9Up5P6c6SrGN6RjqrjeqxQVdZjNEOz4shzhHwuHy3jOGaO00RcEDNJLEhq4/lu6R/jXbsYFSvzDOcMXhkWUy6VZFynA6VxmVTRpRWbgyKW3eHobBRNFo9oQIk9hUkZGBsN/SKnosXBw0aO0xRcEDMJ6hAp0Ug+L7tUOALx4m4VsnmhQpQIWkUID7Ese8qTUgxV5WgFgsimUR08LJo3UVj4nnFAGmRRvd4/7douN6kNTNIxPCJ87ZAZF0WnSbggZoVYe6KW3UhEECQGgd01NiljRfXf6D8Yi1Y0VQHRzWazisBQ9Q7Vb91XjzPY2yO/3rk7tDL3lDX8eGO8tZLOE5PoKFM2VziNXE6rxz25MPbiPRMj8octd4RjTGpUtuzaLYOTk8EjtVcQ53Ugx2kAF8QsgUqoGoQGjliC+Lu1WJBrx8ekiCDSW5uF/DGhU6Kt41XV2ELCrwhkl9xSKMkvVZAQw2gYsGg50+jLxBFMkzYX6N7DGzfjpaLsHh+Vuwd3y6guC2KrajmucbproF+GCoXQ4Zx4VKLoOIuMC2ImSUiPiuPWnm75+lC/DATnbrpUVLzAGkoStBWC2IJuoLNj+udXu3bKncuXqRcarQlVVoz5hM0bDZfReCbUtg/vlc39u4IA5kOrdhRZPOA9KpCbB3bLjqG9ouop3ZyQHjiOluMsGi6IWSQWgyAIOs+Horarh/XDHTtlQMUxiBtKNRfRiAWInfj41I8nJuWG0dEgSHMIZc7ke/tkYGJc7hjsD515QrwhPiyHJ5MOFydlqwri9snxECeq0Ih582LmdCIuiFklFjzgveZCvkeuGtkjPxoYlJ1djASrUqHrTV/qklQUFdIh9c5+VyjKf92zTXZ0dYdqa3OInkFuHRyQu3bvCt17unn9UI9XKBa1Kh1XycN50tmnS0b17z0jQ9I/Pha2jyLvVWhn8XBBbAOQBERxy6rlcuXeAfn5nj2hOw6v9yFooZO2WvCoMPZRkbGngmgn7z8PqyD9YaIg39q6VW7R9aP6u9K9ZjHRIDkmfSjv0KrwaKkUqsnFYknPoxQcXI5afWQ8yL2FCdkyvCe0PhdDQJwHU10ZnU5gn5Zrx2kQLRdkv/ZgYGBABgcHo8IQW5L169fLihUrpi03Lty6XX41ORmqoPRcSYpGNZEDVlUKW4HGg3aUru4u6cnnpTw2LitUWI5ctkyesG4/+eu+Psnp74pihFO3OLO8S8ZUmLbrvp+/827ZqsK0p1CQYc69W+VQtycdFnyeqsSEQNoj0rvGxuT23TtjT4/lmuY0pnBcnd8nmlUwqMVqrWofsGK1rO/pFV5cJHTCZZq89k3L3ho8Y0iSD4j30Zpv/uWII/SA+Bi86LgvBV2/ffv2+Px0J+KlU5qPGH9y5cqVst9++0l34q2jJLfeeqt85zvfqbu+lUxMTMgjH/lIecQjHlFJ96zigpggu4LIGIbhqZpMauHikq5VgTtQT+IoFcSjVq2Sjb3LZI1us1K3z6tFHa6LslWF6c7hYblTp7f19KkQqrc4WQiFPKQh6hOyyMLOk4EhQlz1D/0m7x7oD63J3VZJ0dWkqcHmM5HXuK1QMTxg+UpZp+e4vDsXjlHUcyY9wug/StYFke2xn/70p/LsZz875N+0sWXLFvn4xz8uL3rRi+qWrazggpggk4IYg69HXKzXDYIyrvXkyXJR1uv8QV052ahnsz/el66kG8tuPb97VEgG9VwmVfjyWpDLGgDVVsghsmp8yW+h51lQ8e3uzUv/6KjctG2r5FYsD8ILDFQRrsgcD4FWr8j1yL1Xr5V7r1krBd7Y0XMLseXaNbNwatBLJYhcj+uuu06e8YxnyMaNG+M16eHGG2+UT33qU3LWWWel0oOdC9mOvVOFVps1Q/apyDFdpqV1ZVePCmNeblf1uE6v9g+kKP+j4vRzLZM36TYDOg2ttrptSavWvK4XhRTdChbrftmlN5lBrVrdMrBLyj09KhAqhhp0NGpPmA0iMxfwBIcLk3LP0B7Ztmcw9FMMgaioN1UMlxDOI3j/OjVxTINNqsAj5Ml0Xqy80kpcENsBzZPkSyyIGMtUABEbfK/wF89FjS8tT6pgFrRKWdCCxnvDhhW+yDOcWr4wCKdL+ifH5f/u2apVenyiePmCDxGJ9tD4mNzVvyt035nUBdEzSA28DQqoeZSIEDDfarN4tCMuiG0Gz9B4jsgUyLZcZF5769FFWE6NKrVlac3mUxk+iKFaJcPPTVTMSwj763++dzWh4npX/24ZZxEiHXuFHHcf5qtf+Vzo3L15x3YZ0XPP9/XFnu60I2QO0hFPrFAoTPPSWmVc43bwBmvhgtgOIG6xdWsBUj0LFxb/KTwHJfPyvEsXYmgVPpQZohG24YlWOTICjTSR5VjjhIKj+xBK//iI/Grr7TJSKEqO/pEKwVaOrVV1s2jN3C18X0YjO5FT4dUq+Y6hIU2DPKccnolmHUSxp6dH+lToe3t7U2EWF2u8ahe8USVBlhtV9oHTa1G0OGwkhl2yc3QoVGULecY1DAkWCKlfiV/tazF3IgHP64VZ1p2Tg9etl7V9y6S7FLW68whgUZNEj7WU3W6uuuoq2bRpUxDGtDGkN6DPfe5zcuaZZ2ZeIF0QE7SNILYQPDVG3dkxtCdUkyd1Hl8wdOOJxS/8rSRb7WsxP/i0gR5NrxutzwetWSdrly2TLhUc3EWu+6JdLY32Ugoi+9IX0RpY0sbq1avlmGOOcUFMEy6Iraeg1dZ7hvbK3UODUihq+mkBjqqtCEFU2EPqV5JtsQt3JDgcaXW+V+61anX4CFel69BiNRZpMEspiMCjiHp5N01kIY71qJ/6jjMnKARdsmt4WLYNR2JIgS8WGM8mEsalQW9hKjYIzXBhInTJ2T0xrhoVDxxGl5x4y6zhYth8XBBTSijUNE6oMZ9KRz7SwGAlzUkDKkA7R4ZkQkUnF38PBY+HVuWlbdxAFNUrC6KontnwHukfG5VCKKzRuiwWW8Qm7ZZ1XBBTCpkrPA/DEBW1ZHYzkWyZUGpk8Px4Xa6k1dBdKoT/179D9hYKQp/HUL3TqEUtyVFGY4rpbktALIr6Z1A9xC2D/dI/OkLChrXt0PrsLD4uiCmEIpsUwiB6rRK+mdCIMuIM7ybfNrBbyrxPrPHkX7Q+KeHJ+aWiS2vI5fDa4NDkhHqKQ2FQCZp3Qnx0XSti5aQXF8SUYt4fntY0MUyBNhKFklaFd44Ny93qffFhqImJyRDndEFVToU6lwvPFLfuGYiqz6wqR88bXRQdwwUxRcR+SxAbs271uqLvE3dJMRbJ1kuOel7q/e1k2P9dO2WYbi26rFurztFzpPRITHi2FXvafAphKG5o2aPV6CCFcUKnJ8ZOK/FuNwla3e3GYhVCjT0XxBAh3Ds8IntHhmXjhg16F9MtEpet3vk0j67QgHJT/zatJufVMyxIXgVn6gymCM8MZ6T5cY+SStNTD8WjCC7umt4+OXD1Wlnb0xtd59g1mDW6BsHoyTW7241tv3nzZrn00kvjpemCWswJJ5wgj33sY+Ml2cUFMcFSCWLto08t53k/YYfQ1esaGB+Te/TcxjVuB+63v+y/fIX07nPZdM96gS4CmpKVgg8DhclQTd6r0/Bp0rjQRlGYikvrxTAKP8riURy76Siuv7s1kVcxnuLKVeGNll5NZzu/WaMNGvRSv6nC8F9r166Nl7QW4gycC+MhfuITn5AXvOAFYVmWqZ36TtOhqFYbRGVXC6YW0HI+J3smJ+TOPf0yKEUZ1nJ258Bu2a2eIkN2Te2nO1HQKr8XFwothZ43UPieyS27tkv/2JgKC3HQf8Ql0pwoDixHKSoxqmfNJooU+hNESGGIs6KeS0Ej3D82Ilv3DMqe8XHpVnGcGnQinfDuMMKZBluzZk0QZ0QcKo1/GccFMUWQn0Km0sLLaDU857pLCywjuOC7ID7clxFFPrYUnimG5XEhblKGDC21GvSu0VG5ZW+/jGnc8j09SE0Qwtk9wZShYl1UDxHve6RclHuG4/EU9XxMFNMIecP6prba8BAx5k0I7aaTZVwQW0S1hpCnQt84LZB0ZeEZHe8Cj2hVi4aV8Eaw3oXJdHiHW7UKvXV0OHQ23icsgtDJYmVNvlMyqYq3Y3wkfANlXAtBTsVw32PYr8U6avMhLUlXbj4jhYJs4bvPw3jedCTnrZYsnU1rCDWD2OpV9bOGC2ILMAFjGkz/hLusZipaQulIfKeKId8iZjxBwHMJA7dq5qMQ85W8LYMDsnt0JIgifeuiSnMILOwT77oAaE0W2T02GkatGVNhDCKiwYd4VM4gycKPuhRoEQ7nQuwntAo9pkbr867hIfUcEcWoaGTjbFqDeazJadZxQWwRJiUYVVIEhmd1NKBsHR0K4wcicGQyqspQLvJRpmhbRJGuL7erUG0d3hsK9T4sUt7EY7qLgRpyuTCeYU6rm3zSFG82xF+jEj4glTni6ifnor9Cl5xSIQxMsUONxqJa1WfSHmtF4WckmeSYhK02hiLL5/PBO4xukNnHW5kTtKrbTRirT+O0p1iQ27ffI8NahaMBg5AjMWRYK/2tkQrdRliiKzk+4kSb5v4rV8q9Vq2RPrybEG/Qv9FMY7FUYQvH1GPgJfFmx/ahofCWR+iXokaaQJRtKkdpA6LzosfninyPHLBqtey/YlX43aU3GxpiwPJOaGTSJCEfLFUr84knnhgEKA2YbHAuY2Njcskll4Sv7mUdF8QES93tJiS9xoV3gfeoZ7h51/bwnRMe+IfiF3soYfv4MLViHuKptlEL8QGrVoUBUsOH6cNOuke802wxxdMLBVzjxAehbr1nm5TUC2BE6hBICLOdiW4kPEFc0auiuGKNrFu2THo0M+R78lLQGxZeZfCI6KbDP9JrCQRx1y6tCWzdGv9KH8T9oIMOin9lFxfEBEsmiLqLJTstnYMTY3Ln7l0yShsyBUIDD1W5OJ7JGmntmLM8EsUN6tUcqMLYp9Wrak9xtpiGAq7nPqjifKtWxScYz5B/CLPuXO/Y7UhOT5bvPm9cuUbutXyllIoT4fzxFIMg6gYI4VIJItvUW9dqOCesHT4nkM4UblMoUBhlgcLAU8K9Wh2lmsxH27WU6XrEOMpgbMj2jUCQbL1bq7l0yRlXRTdBBTt2XXRleB1vdET+tHWLFDQ6VNOjmweFF++Ro3QGDOc4rNdmx9Cg7BobkTJvDGma5kgT/WfPUJeKtIuN3eCzjgviEmFiFHWtUY9B5wcmx+WOndulmNfMHjK8iiRKRJGLC17jpU4LKSKLqO3dK/fs3SOj6lVEI7sgsNFWtQn+pfRPjMvdA7slp150e2TvhcGlQhTvVm95cHRUr1H0Tnl45qviGO4PZkuA1XrSZmn1XOeDC+I8QWYim/4vuXYfQ5V0Esbo43W8sVEZ1vkJlmsB4/kUaB6bN4gizyR3jgzLjuG9MokYhuNHpZa56gxM9Z9nl5t375BRjcPkRPQReUc9RU0xOm/fvXun7B0bk24VxUKhGK5l9Jw2Mqc9cEGcLxQGVZJqmyoiU8a/aFarwzrZU1SvY0+/jI5P6CKtJutyRCv8C2K17/5JY7tqqwYt49kWn+PcOrRHxkqxp4jwKhwnbKN/C1pV3zU+Ir/bekco/LmuvGaK0Euvzvl1HqTdqJ76lr2DslOrz5LP6zXT6xbSJLoyIUE7GDzFdsAFcQnAR6P6RYPFXhWgbXsGZKxYCAOXRs9eyExq885U1ftFQskzwR1afd42tDchiur16DwZmOr17sKE3DnQL+O6l/o8Yd9a/e86HV6ZHNZrxit+vMddVC88mezzvXJzgbwS+k6mxIiPWbtUmz3nLxG0Jg9NTsqd/btCp2sEEnFq5p01WX3erqI4rmIcHzYMHMGQ+rfu3C5jlVwQCeZSFO6sQZohikOFQhhklsYwOnPjNFuaOtnHu90kmEu3m3pYAYngONGx+idH5K7BXTJamNRfUfgMRcXGle0TVdK51E6jTevFM6pUM9zVhlWr5d4rVklXb176x0fl9sHdMqnLu3M5KU4WqCSr+T1yZugcL7JKq80Hrd9PlvX16KKSHDsxIR9sUrcb9vnzn/8cPgZfL+8uNcl4EP+TTjopjIeYdU/RBTHBQgVxXzFU9EdZq5/0M9y2tz9MUSdSPJ/rCRkpYPFpiiBGcC45tf1WqiD25GTn3sGpj8hzsuFcw5bR37lEoKMIGUPymt7LevJygOapVb29cr+xCbnw8FgQuxZPEK14Xn311fKc5zwnbJcGiBdvzXAut912m3zyk5+Us88+O/yuV76yQLblPKXQoIGelPLdMpHrktt3bZdhLRChAUWTPNedl0n9TVafWcYWj9AlR12b7SN7Q9eayZBpeR1QY6DGwBEmhs5MRGnEJ05H+BwBj0DUOwx9PsNNpIE0tE0bAHEpaDWdfoiIEIKYBkMMeZeZeUDUsyyEhgviIhOEUK2gQthfGJebdm2VUfUoKEDc7COjmop3RtnQS8BOjZaQelgYSasiCLB6rAgyP4JnyIxuGgaY0H06uTW5MSxtooaryUJRbr97iwyPR49Cwno2qTK7JOEamLGuAUwMgWkaLBmXdsIFcZGwzB0yunpiDK+/baBfRsZpv02gd9EoC+kOS35H5XhTRpcR8rPORRF3GiJ6uMCNjKqxihWPRfYOc+H1N+tmYJbVtbBqdFKQWm3tigviIhDd+aOcHrUmT8iW3btkaHwsPIsk/6QtCxFbM2euRN5hNKVvabdMFLnQ0dpmgDdvQ22lwaqptSyLuCACGVltPuJgYhi8LPUURsYnwmjWwxMTWg11uWlPoutq157vU+d6e8OyZsHzOZ7ZpcmWMRKQTolbuwiitzJDnAIf2rZdrptDK/OU3umMFoo9xUm5u39nGPE6FJbErhwyiGY1dURzLloaNq0VzfCy7b5UluhO1Wv92WFjWDKRj2gmmywU5BF9y+XrD3xIdDGmNzKHRrRkK3NyOlu3G7jyyitl06ZNqREeiz9M6M3/Yx/7mJx33nnh97TylSE6UhB1xZQ02dnr9MMqiL8szGX4r3heM+ne8XHZwqc5tbrMF90IP7knR6ydTWovrX3U+tQOBfYNKfmrWv9cEBujIoj6j9FvJjXP/FW+Vy57yMOiCzGTIJY0b2h+iQRFw2pQEEdGRmTbtm1h+zRC3NetWxfmXRBTQiOCuHyleoixfFQcKKZqH76nMUE0MQxDQHV3ha/jbRkalCEVRX7rrtERpu2a3YziTDEvQZwoqiDeEwnhPoIYfcGuWhCzWiyzLIbQHhX/JWTKiVKp1Mw7oB7h7bt3yHBhXFOzSzM3D9c1M2czPztOR+OCGFy9yGa7t0ViyB8epHeF8Qzv4tOc3OVjDeQGOVs4juOkk84WxDkol1WTgxiqDWk1+Y7+HTIuxeglf60+R1/PI0ldEh0ni3S0IAaBQ7tm0a/IM4yeJ/L5pz3qGTI2Hh+RtyG1AjZ1HCeTdJwgJnuiVAQR4uVM2IbFCGFJUwgZZElXLif9E6Oybe9AGFo+l8+HDrPBKwwPk+NAnM6GbFBtAfKImRKWJ343AI0tabR2oSM9RMt+++TVJLqQ1jIEMVSHWdDdJSOFQhjpun90WHhLi3wQVZHjbJ3xFjanmYQcElmociRtdqIbb9QBOk3Wbnm+I/shspyTZvAt5KybfjL64193bJdfFLQarCJHVXhSVxS6i9Jbir5TvHnXzjDyNBmBjIxQzi312ivzdCrRIxSuZp1uNzXcjMnJUqJjNp+MCA9bQh4qFguycuWKGbvd3HjjjfLRj350Wp5OC6eccoo8+clPjn9ll44WRHQwSBs/CiIfVkH8JcNyIYi6zYQK4ni+LONj43Lnjh0yXIzE0EYf4YPycyOdmdmZG60QxKuuukpOP/10Wb16dbwkPWzevFk+8YlPyAte8IJ4SXapcek6lJDJyYRR40mUVdVL1Iy5eUf83eRcVE2gr2FBxTHa3nGaD/kOkezr60ud4WC0w0fqwQUxAXdt/EaTubFx9Qzv3hK+b0wnbEYwLKkYFlUc2TK6ibsoOktDWitzaY3XfOhYQcQhNAvoTKnMhzixCblr727ZPDQgA6WiFPkWr150asisZVDXSB51J+pP5IeGTP+4Zd66yAiYLYN4stiY2NiUxpW0WTvR0R5iRQwBXdNMXlRPsF+F8Z6xERmYmJBxFbyCWqncLQXdiE93hqkaU7fONK7/pGrUhAoV8+ETAk0E4aFqStU5bVb9rD7LdGyjSrij2+o4BS68+y65ojAhfxgckEKRJ4jRMP/mBBrVv53OhbxEETq+1CWXP/ihUZ6q4WbMt1EFIWTZNddcEz7ixDZp4/rrr5dLLrlEzjnnnHhJdulsQazis7f9WX689S7Zq/PlomZYVb6QPXXbZEj7huo4IocVu+QDj31CJIaLLIjk15/97GfhM5/VeToNEMeLLrpIzj///HhJdmkbQeQkTBC7u8k0KmZkHv1vZ4ggrpxBEG+ZHJE9mh/DCMi6nu443Yntwmz68qOTAlZq/fmo/PJo6K8ZBVEFTkUvTPVfPUEEiqZ5iIyHuGvXrlQKIqxatSqUr6zTNoLIo91Breo24iGGinCts9bMJ3SvYd0+pn8IKmmOU8HyUz78rymItcZD1OXsNpsgWl5mHqrzdRpIxjvLtKUg4hmGfzUEkQFioyeDVYRU0Pt1nFGj3zHVFzt9+dFpNcn8UiN/TBdEhA7RQxAZIHbmjtlpozp+VtbSKNZzoT1kXeFEwqAMalRzbZpcblYTriNCSobEcgkL6xLmONXMlj9C5mOGDJjMhNW/swHCl7R2QUt7hrG8FBt5zsSwkj9ZplPMfmcw/zmZJ854NUXRSQvZFsSK6oVfFaxbTLVVqNrecRwHsi2IMYjdhIrceD62XGJebSwxndAz5i1kx3GcatLVqFLYq2o1pgo3xyjh8eX0z8Bg3KgSVZDpfpMMaRXdAlas0PB126jBrrOo5SYzsGN4xqDWu0ZvkXrXcBaduX6XOU3Fci5k/XliSwXRDswwWrwfmrvq89L/46/J+lUrpVxQP06jhnbNDn0O8zI2NCbjoxOSD4U6EsNgGkY4VvwAGAvZLp7vDCwRQmpJuVjWNFNXutinSyakuDov5dNfJyPrDtynsDqLBx90B0tby3uNCOINN9wgH/jAByrr08TY2Fh4i+YpT3lKKuM3F1IiiPpHLf+9C2X75R+XdXn9wcvzMItesZVmLenq7pG9I2MyOj4RhvrX4h6tj3WgIoodDYmpaaWJEQlit96IlumycZlUQdz/FZ+W4XWHVToDkzVamD06AkSxEUG87rrr5NnPfnZqx0P8yEc+Is9//vMz72CkQs55sSTkA6229ZYnpLcwKr0lbEx6tQo9k/Vhul2Pbp8vj0pOrUvG9MSYutW1rpHIZEjTfa/OD+s1iLwWy9RMKaBui2MG85a2jYJAUu3O5/Ops0KhEMZDtI7jWSYVgmgjKfGnq1urcT29UtZqb0mrdI1YWU3dQj2ZyHJlm8/rvFpy2tHGP0sljBGfo7fNcnozMo/QvJPkb7eFm1FrWSOwPd5kqw3hw+ZzDmknFYKoqcp/VUZN5GJB9JZDXV4j16DptmwfqsV4N8HDCS5n+E2VOhqeyY1kTj5GYK6rK76zh4sQYZndbfHMsPnkskYxD76VZvFoR1IhiLQG80IIf3JUI0JihyLbuIXBXSEWQFvDH6gs6HCDkCiaRuG3/tGZoIkh3dVCxqda57aYpn/UpubDNE5vLJlvq2mH6mgW4Iq0AZqVEETNSTQUlINLr669uvdlrBCb/e5kU++7ZC34OgnFsFiSbjpnqstIsSsz1bRkPJbgYbstiiGGQfji+cq66CoEq4c1dNV6htdqaydS0cpMDEJXuO/+i+z99kdkNaWTUWcahXyk+49MlGS8oGKoP0OBtgM4MWUpkdD6n25KCF+vFsyu0ogUV62U/Mu/KHv2OzIqfBRY/oXsgTcTheAsPqTxypXR8FmhphQtjGc09TXxr776ajnxxBPjJenj05/+tJxxxhmZ/9hU+wiiYp5NeL7hJXgapHc5NJ4woyVP06uHxCtGgph7y/dlfP1Rup6RWCiZbAiels2GFM7lc6HHRaBKEIeGhsKYiGkVHDxFugTNpeU8jbSHIELwfOIQvfzOQJyu6iEGUYTiqMjqVSJv+5GU1h8ZXQ9Pw5Zgyc7UiiaCSOsu07QITj3ZCM5Ihsm2nCfh+qhxnfhUqFtt460gvhcT5nVaebbAM8S4OCbzNLNuS2f1wDNMk/eF8NWyrJNRD3GGKFdyVvYvTvMg/bo13XOa7prOeIirVov80/9Ked0R0SZOy6jkXMvmnpWXjOx5iEE5mdYxICOhsm7TjPuf/ayk0yzUSma35lmFaQucZtM+VWZnjswuhI7TabggOo7jxGTvGSIbOvNmKvW0LlbOa3JqWpfGZnyGuFS1tvHxyXjOyRo0+uTz2fevXBA7jKnUS58gPuPUZ8ZzTpYYGx+Xl7zkJfLMZ54aL8kuLogdxlTqpUcQuf6jI2PymMc8RoZHhtui+0a7g2xwnfAMb775Zrnkkkvk3HPPjtdmFxfEDmMq9VIiiBohukHyJsbJTzlZ9uzdI3xX20k3JS20XKdcPi/XX3+9fPKTn5RzzjkrXptdvFHFSQXcl0t6E+Q96qJb6o0BVGyKR8P1w7HJOi6ITuuhIFlh0mlUuNxSbVOXK7KwPCzKNC6IjdAGFzrVaA25qzt+/SuMjZkL42K6pdeoLptx3XitsDIwRYZxQWwEveDBc7GnaeFWyF0ymkaWJLk8ac404iQNhapr32+QuKXfurBYFJv7sHlp8EaV2QiR65ZSd5+Ue1dIbmRAbyO6bHJMxvtyISPkSnrXLFnJVplUmx5N1rc+x0xFS+OSgkYVktdy4EMf8lC5e8vdoaA52YHnvh+68EI599xz0pDFF4QL4myEEisysnyjrHjG80UGRmXXH34hXVtvlnWT/erVaDw1TgU+f6C5QRM03rEaF8RahOSNIzUwoDcbJeNlqiPJ9/TI6tUr41/ZxQWxEYpdsnPlYbLhJf8ocsxjRHbeLvLHq0R+9HUZvfsmWb6sJGNdfAq1HEQxVLGnwbLWF/Wp1NO4pEgQLcnCpPXJ5HQoXjeZjaAgXdLD51HzfZpiy6V04P1FHn2OlF91sRRPe53sWHesLJtYLrlCXsWTHRDzKelxZqYihkxdDJ0W4oI4GxRQFUM+0BTmSyWZ1OlE3zIpbjhMVm06Vw546ftFnvk62X7E38jOvv3jnbxkO07WcEFsFF6nGJ9QD7AYPtlpklfoXSkThz5UJp96nmx8xXtkw1NfJHcvP0QGevZT4VyujqJuFar/1fVCx3HShgvibISab/ggZzTPUO6xoKF16jtKb3cp+ljT6sNFTnqZbHzLt2T5ppdL14YHiExqEvPZT0JAEMPOakwcx0kVLoizghDiEmJ4eZpkFTFDIWMLOpeXUvcyye1/sPSdfLbk/+E9Iqf/o+w85HGyS9aFx4vh+7sII+G0Q09Wx2kjvJV5NuLkGew7WNa+5J9F7vdkoe2Epd1SDF0STdZoY2Y5XRILOmV5X2lSZNdmkau/LGP/9RlZltMtSnp+3d1SKhSW/I4UnQ1o7FLSygylUlmGh4b091QMnRTDTZ1LpRP6IS5fvlyWLeuN1mUYF8TZCMlTVkE8RAXx3SqImxoSRCrJWF4LevfmWyR/3Vdl5KovyvLJvSS6np5Ww3t6pVxU6dTfzRSdJFOpR4ZOjyDu3bNXzjn3XNkzOBgGDXDSDZ3nkQ5eTBgfH5dXvfKV8pzTTuM+n2lcEGcjJE9JBfHQWQWRuYJWhfEOl02MiGz7k8gPvyL9v7lC+goD0lMeV8ks6FbxHpqZEMelZOpo6RPEpzzlKTK4Z0/46Hl4FcxJLRMTE5VPo/7xj38Mw3+de87Zzc0sS4A/Q2wECq0pCToSz9LUUtSCWwjGkjHJj22XZbdeK2P/+SHZ/uHXSeHnl8n68TtlRXGP9CCgcY6hvIeGGqcCqVGYLEih4JZqm5z61EOJ7mh64RBHvvndQv9qUXBBnA2UK1xjhCwSM3xXFpU0+fD3SmHJuExu+ZMMf/8SmbjkFbLsfy+SjUN/knxOM093j5QxE0P+EEC2886ik/XC5GQfF8RGUAULYzdgmmI8G8RC1bg0Ib07bpb8Z98pYx/8e+n9709K7667dFutV4NWk8tdxSCbmFOf6HbhOK3DBbER1EukakwfRPpnrygXZfnkDll504+l8I33y85/faWM/eJbsnrvFukpjKgIqlzq5uVg5gpWm+NklXi4rzDbXrcxF8RG0IuOuIl6et3je0Tu+K3s/OJ7ZfIzr5L8Dz8sG7ZdIznpl2KuW0q5ZVo9zqmpN0jfxWm4GNaDEVPyPXnpybul2vQa9fb2Sq9erz6dtpNr763MsxEudlmG8vvLqme9UGTHLtn9s+/L6omdkldPMLQYE1dcx/j2EsSzin2jHdQ1ml1ipqJBvNPVyvzETZtkx44dyUg6KQXHMAwOq/+KpaJceOGFcuqpp+ryqCtOVnFBbAT19HgvudS7WsZH9sqaHH0Hx9W6Vfxy0SZxNRkQxKlo1sscrck0U6mnx0+BIFqExicmZHR01BtWMkLIEyp8Jn60Mq9csSL63dQM01xcEGeF42Fc5XpXOrmNzmkco2jOtE9rCNEKaLzSIIhO24CUZL3/qD9DXHTobO0S4nQeWRdDcEFsiEYudHIb5l0UHSdruCDOionbTAJXa5vZ9nEcJ224IDqO48S4IDqZggf3bum1rOOtzB3GVOppdT5lrczbtm2L52pjWbUdCl47USwWZdWqVbJmzZrQsJLl72q7IHYYU6mXPkHctGmTDA0NhQLmZIfJyUm54IIL5PTTT8+0GIILYocxlXqtF0TLengVIyMj8qQnPUkGBwelp6cnLK9HC7OsU4Mbb7xRLr74YjnnnHMy3/XGBbHDmEq99Agi8JbKiSeeKMPDw2FI+nq0Q1+3duPmm28OA8SeffbZmb8+3qjitByEEaO6hRgy5VWwamM5Bc6t9dauuCA6LcMKlokhxvc5+M1zxGpDLGstd1t6s5sY1k64IDotxwQRweP5YT0PEeN7K7WWuy2t2Q0MaydcEJ2WkqyGIYYYwlhtSW8kuY9bOqxdcEF0UgGFin5sfN+3r68vGoA0YSaWeIhu6bL73//+snbt2vhKZpvUtDLzOU/57gdl6NsfkVW0MqtXMB3dKDRHxz+dOWNpHhIxJf0QzQOk6w3CmPQGk5gn0k4eSbtANZqbWdZJjyCif9/9UCyIDMCqBTVgmZ+t1VwQF4SleUjElAiiCSBCN5vYtTC7OrPQDjeq1FSZoyEEczrDCNRxwlbSNymE+ocywZD9bnMzRCcICvOJ5E0BPJxvpECZaLqlz9qBlgtiKJ6alqGC3NUtxW79gZG+XVqV0upzMOaDsaFGm6H73eZm3HAqU7v0IaGj2RbRLoXJyT4p8BCRQmQxIvr+MdXleLl5hhSacCfSKNPUX13Y3Wa37mjaFX7zPRhNVxLXBclxAi0XxC4VvS4pxhHRaZnPv0+EeTSxq6RVqWJepzzv6lWNtMIdC6Nb48bNpGKxEAZvXM2fzTkOj5RaXRJoQNEoFHpEvnOhFL79b5LPDakYIowoItELFWqd50/sMUZ/nPlil50pDSvL14u862dSWnfUtJT1lHY6hRQIohbGolpBvb6fXya7f/ZtWdk9FhVSe24YvMioYHarQKp/4yyQymWPp+N9q2Xliz4kpdUHht9JEWymIFo8eI7IIAH2lkrLs6XTMIVCQTZs2CDr1+tNNeOkQBBV8EpFKVBDjt9KACSwhIXnW1HFuqzz/KOKF1q22LCZpbUDmOrFVJaeXJfkqE2H39OnzYIsyCg3p5xyivT394dry/uyTjZgPMS3ve1tcsYZZ0TlUi2rpEAQgSjExTIRncgvjAhL7af+SEGk2wNNyDjlww2HR4owlfL7zi82XG9ugiaIjIeYiizpNMyf/vQnueSSS+T5z39+vCS7pKL2Sf63gsHULIyJGFsXpuuD6bxWqtwWw3gEESzKDIhfMwWwFngUXG+8wuo84JZ+M9rBq0+FIJqbbZ1zZzIbYaPWOreFWnxBlhA7NpgY2m8nO7TLNUtd+4QVkHrmtD9203NLr7VrWUydIDqdB14ho6bQugxWdXZLryWryu1EShpVnE4GAaSl8qSTTpJdu3YFcfSqc3a44YYbwjdVzjrrrMpNLau4IDoth35siOJLXvKS0O3GBTFbDAwMyGtf+9rw1UQXRMdZIAgi1TCmgCA62YKbF9ct6zcxF0Sn5eAdkg3xLtwrdFqJC6LTcuwhvbVe8htcHLOHe4iOs0CqBdAFMZtwvVwQnVTAZcxqZqwWQMuSLojZwwXRaQrVl6VaLJLMtA7SnkldENuHrF8z75idIhACs1qwnAxXbUlqLa8XnuM4++Ie4hJBMm/evFmGhob26auFd2SX4D73uY+sWrWqpoCx3U033VTpmlINAnjf+943fLu4FuzPeIMzvYB/3HHHxXNLi3mIN954Y5ja+VeLfTvCuWJ81/jQQw+Nl2aXrF8zF8QlAiG64IIL5PLLL5/mvdkluOKKK+SQQw4J89VMTEzIi1/8YrnmmmviJVOwP2FeffXVYaBO5qsz5vj4uJxzzjnyhz/8YR8RTnLddb+WNWtWxb+WDovPYx7zGNmxY0fN+LcrnDfnz7VhTMGsYtfL8mJW8SrzEoIo8mrasmXLpLe3t2J9fX2V9fUgo2Fss3r16uBJ2nTNmjXBM6RgVYdh+5khjBwf48PiSZuYGI/3WnoYD5GCRFpwLpilDVNb1m5Guu/cubPiJWcV8hZk/UbmgrhELDSj2P5UmXnvt5ZBI8cxjyw5bSW14mzxQuAtnu1oSUiHLFs74IKYMch41oHZ5s3mghXGWgWzFbRLgXKyjQtixjABM8N7MmuU6jDMHKfTcUHMGOYZ1rJGMfFzMXScfXFBzBi1nh2azYWkCLZaEF2UnbTg3W6WCATrc5/7nFx77bWhdbgaGg9e//rXy0EHHRQv2Re63Vx00UWhLyEtr3iEyeeGhP/Wt75V9ttvv2mjxnCJ2f+DH/yg3HnnnaGFuRbvec/7dF1v/Kv5WNazKWPqdSLbtm2Tk08+Wc4+++x4idMqXBCXCGstnQ26YtSCfS2MpNhVV5VnGpOOLjesq33Ju6SvV8Ww8Zr3gqkWxLl6ue0E14XuRU5rcUHMELUuVT3xm4l6l3w+YS0Ei4dnwYi59hRwFh8XxIyRvFxLLWDNwLPfFO1wPbOO35Icx3FiXBAdx3FivMrsOI4T4x6i4zhOjAui4zhOjAui4zhOjAui4zhOjAui4zhOjAui4zhOjAui4zhOjAui4zhOjAui4zhOjAui4zhOjAui4zhOjAui4zhOjAui4zhOjAui4zhOjAui4zhOjAui4zhOjAui4zhOjAui4zhOjAui4zhOjAui4zhOjAui4zhOjAui4zhOjAui4zhOjAui4zhOjAui4zhOjAui4zhOjAui4zhOjAui4zhOjAui4zhOjAui4zhOjAui4zhOjAui4zhOjAui4zhOjAui4zhOjAui4zhOjAui4zhOjAui4zhOjAui4zhOjAui4zhOjAui4zhOjAui4zhOjAui4zhOjAui4zhOjAui4zhOjAui4zhOjAui4zhOjAui4zhOjAui4zhOjAui4zhOjAui4zhOjAui4zhOTFdZiec7hrmecldXVzznOE474x5iAyCgZo7jtC8uiHMkC6LoAu4sNp2Sp7zKXINaVeSFJtNSVbuT8awX52Rcktuw3B8PZI/qa7jYNJKP2oVUCOLevXtldHR0nwRev3695PP5+Fdtdu/eHabFYjFctJ6eHlmzZk2lYE9OTsrQ0FDYhvWFQkFWrVolK1asCMvqMT4+Lnv27Il/iZRKJVm7dq0sW7asbiYgfPbZsmWLbN26VQYHB6Wvr082bNgghx9+uOy///6Sy+Wm7T8xMRG2BY7DOXR3d4f5uVwa4rZ8+XIZHh4O8Z8N0ra3tzfsY9Q7N9KQcNmHNGS7devWhf3rwTXhvJgC+3I+pCPpwDzh2DnalPB37dold9xxh/T394dlq1evlgMPPFAOOOCAMF8dT/IORhikG+trpfVscL04JwsPLF4bN24M01qwDedJPmbK9QOOT3xZT3y4LpYfZ4Jt2Y+8MBtcF4srcCxspnNnHUY8uf7knWQ+rAVhcg1JI7ZPnmM7kQpB/O1vfysnnHBCKGSW8N/+9rflAQ94QLxFbd72trfJZz/72bDP2NiYPOEJT5BLL700rONC/fnPf5ZnPetZ4TcZZ2RkRE4//XR5//vfLytXrgzLa/G9731Pnv70p8t97nOfcOHJKD/+8Y/lfve73z4ZgMJHAb7tttvkq1/9qnzrW9+SP/3pT9MyCZn7tNNOkzPPPFMe/OAHV0SI7RB1BJMbgAkFmCAmL091uPxmPen2iU98Qv7mb/5GfvnLX8qzn/3sUJhmEkb24fwe9KAHyaMf/Wj5q7/6qyDe1ceAr33ta/LKV74yrKNA3HnnnXLjjTfKUUcdFW8xHdKbtL/99ttDupNOf/EXfyH/8R//UbkhEZ4JCHH91a9+JV/5ylfkM5/5TFjPuVl8mJJ2z3zmM0O4pBnpBaQ/8b/Xve4VRIltSb9kerIsOW9TtuP4xPF///d/5bjjjpOvf/3r8opXvCKcK/mKY/3P//xP3TxDGJzHueeeKz//+c/DPMJHGORR45vf/Kb8/d//fTj/5HWtBsHhXB/2sIfJX//1X8tDHvKQcG2S6cE8x7nyyivl7LPProga5zJT2BYGjgM3bvbnWDt27JDnPve5snPnzmBJ2J4ySb495JBD5KEPfWjIa4985CPDjYJ17UIqniFykbgzc5HwIGp5AbUoa0YkI+y3337hYlEA2I8pGQNjnoyMAJCxf/SjH4VMMFOmMYgLVg88wn/6p38KIosw45He9773lQc+8IFBzClcGJkGkaUwvOMd76h4PkB8yWR4P3iRZHwMj4jfxJs4MMVYx7YYAsBvMHHgnAmTbUmXWsY+bP/HP/5RvvzlL8trXvMa+du//dtQmBGupBjbtSEOxIdrRAGw480GHjn7IPjMJ+E4GB7h61//evm7v/u7kE5HHnlkEGrM0pJ0pdB+5CMfkTPOOCPcfBAEII7EhzhybsTT0pN04PgYxycvsI7tSD/S46CDDqrUNizfkY7kQ/Yjj82G7YfYEQ/z9MHWmahwTNKD7Zgmrw1xZpvf/OY34Sb3spe9LKTLTTfdVDnfJJw3x7FwmBIG50YeqrZ73/veYcp2pH3yOhKO1WrIs2akF9sTLzx3bpCvetWrQr7//Oc/H/J9u9CWjSpkQDP7DdztueCf/vSngwdjy+cDhfDf/u3fgjfBPAWBzEWGwdP59a9/HTI18yynICI2eL7ve9/7KmKDZ3TzzTcHL5ntzdjvnnvuCZnW4sn2119/fRAypr///e+DR4oHyzqoPif2pxqPR4fZvrfeemvI5BR2BA9v4TnPeU4IEyy8ZkG8KOAYN5Uf/vCHIS6IEGl13XXXhTSwtBgYGAjrEDX2oUBeffXVcWhRFZ19OD8zzpP9OBZpD9zE7NrgTXO+1157bWU9LCRfNILFh2v/hz/8IcTB7He/+124NoglRlrgZT/pSU8Ky2cCQSMdNm/ePC0/VRvnzDVm+2pYTvy2bdsW0tCMvIYoIpJcC7zqt771reHm1Oz8slS0j687C1wwhInMjid0+eWXhypC8g45FxCr//zP/wxiQtjcJQnrgx/8oBx//PFBbCzDI4BUQxBj7OKLL5anPOUp8rjHPS5keqqJ7JvMVMxzJ0bEmCeDkhk/97nPhTAoVCzHE2F62GGHxXtOwblu3749VN3wtgz2veuuu0L8iReeCzcLMvq73vUu+dSnPhXi1UyIG8fFIyQeHJsqH4YIkCZUFTlXqujceLhmnC/PzFhOXKmGE9ePfvSjYR3nZnAMwv7FL34RrhOF/y//8i9DFbMatsUbtPlmwvXiGIgzHi8eGb/JA5w/jwCINzdtbhIsx9P9wAc+IP/+7/8ezr0e5Mu3v/3tcuihh1Y81FqwjmPhLdaCWgyPeB772MfGS6Jn9t/5znfCoyiuHfvjjf6///f/wk35nHPOCemcafTitBy9Y5fVLS9roQ2mBaF8ww03xGvr85Y3v7l8zDHHlB/84AeXNQOU9QKWVTjiteWy3tHKWt0qP+xhDwtTrX5VjO21GqK17tI004te1gwT9tMCVNbCWlaPI6wz1Mssa7Wk/NCHPjTEWQtm+Wc/+1lZC10lHOaBfR/zmMeUVSjDsY866qjy0572tLLeYcP6WqiYllXIKuFrlbH8+Mc/PuxD2JynZsiwbTJepKWKYyXumnHLV1xxRSVOti+mHkD5vPPOKx988MEhfUj3o48+uqzewz7bX3bZZeX73//+IZ2JjwpzWQttfMTaDA0NldWrCedM2Mcdd1xZb0BhuYWrYh3SgnWkC9udcsop08JmWxXskOZsR3owVS+lrCJZCa+WveUtbykffvjhIWzOjTTluiQtuT184xvfKB9yyCHhfEn3E044IcS7HoShN8SyVuUr50Keecc73lEJk6l6UuHaEC7Xh2ujN7xwLZJxICzy5qmnnhriwXUh3R/96EeX9eZQCY/tuLZa5Q/5j+30plBWD3Cf8GYz4FqceOKJ4XoRPxXg8mc/+9l9tiOepMMPfvCDcI4ck2vBPscee2xDZTbttGWVuRruvnqu8a/ouQt32X/9138Nbv98oEqimaTikWiBCw/BNdNUjmXH1YIYGjrsORUezVVXXRWqc/VgXy1owXOzYyTv+OZRJM+rUQgH4zmTCkYIB++K4+HpUu1fCn76058GTxWvwjy/f/iHfwjPVJNwjsRXxTJ4kuaV82yLqjbxroWloa0nDEvLmWC/VsLxafDCA+Z6AOdAVZjqcz2aHW/Sj0dDmzZtCmXn//7v/0LeoSGL64H3mHU6QhANMhUXlUzGMxBajtWri9fODau2EiZTWhWpQhA+JIWK6oV6d6GKTuMFVbaXvOQlM1YvTPAQCubNjOrjJI/XKOyDwOjdPVTf+M25kMGbDY8T/uu//kuOOOKIcBPhXLkmPG5ICj3x4bxJQ9ZTRaNaSJWO9OY5YL2bGmGQTqQhYVanoTGftGsmxBmzRhDSgDiS16hGzwbbA/vUsoVCGFrjCVVq8gqPcrg+PJc0Ac8qHSOIZDCep9Flg3kKId4XDSxMaxWUmdAqQ8gElnl5UE+LrRVgMo1lZIzW5ne+851y/vnnB6O1medCMzHXOM0HiyNwHghHdWtwMyDNeRaFyBEHvGc8bJ7jWXyYJtOAuOFp070Fe8ELXiAnn3xyvHY6yXCSVguWL0V6NwpxIV0Qe4sXUzy02ah3jpAMy5hp+3qw/xOf+MRwUyKelAUasmbqy5gFOkYQKUxUyR71qEeFxgzuthR8+p7R8svvuWSME088MXRzQESARpQ3v/nN8uIXv1j++7//OzRWJO+WJjZJs31bBeeMh0zrJmnB+dOgQX/LZsOxMSAduFnxaIGClSysSVhHVw+qku95z3vCDYYqP6Jaj/kU9jRA3vn+978fPHcgv9D1iKp0PThXai7kcx7H1DI8a4waDUJmN0Smc4FrRPco8gv7Ej+6RSW7lGWRjhFEu+BcSPoD8jyGi0iVhG4ftOzNhYMPPlje+MY3hiqDFWL6OSIwr33ta0NfuQsuuCB06KWwU/iTBb1eoV9M7HkmmZRqJt0oMLrh8PznC1/4QvBWEXOqlWRoPK6ZOlwvFqSHFUbSgrgijK2+SSwVdr54xlwbbqDkE64NfQ5pUUb4eUTAoxXE7GlPe1p47lsP0pJrSVcYWnxnMrrKGOw3V4g74otRjriWXMf5PpNPCx0jiEloAKG7Aw+oubAI2oc//OGKx9IIXHyeBdINggYWMjYZi24STKk64CnSEEBVkOMhOEsJhQ6vgo69dMOgaw6GcOMF0hmaDE2cEUi85ze84Q0NVcsWAxNDuzkgyvMpnFkEAeEa8CyOa8KNmZss8zyOoRuRPbqgDyA32PPOOy+Iz0wgiIgSeY2bH2Jbbdz86XdK3rf0t2vQKMnt7ZoxNccjq3SkIHLRqHrRx4qH+wjiT37ykyBscwHBOemkk4KYcNclHDIFYbIOsUF8aQ1973vfK6eeemro45d897SZkGmJE622D3rQg8IrWvTt49Ur+u8hkgZCSNwoUM3M1NUFzzxCllcLZFqYT3wa2Yc8Qr9IGpLM+M314XEM+YgGi4suuijUYshPjcCbP5hVj6uNhpmFiGEtTBS5qWWZzApiKLTxhbSL0ShkADIad1zzCsmcH/rQh4JYNRqetQDzXIdqCp1pL7zwwiB8CBF3Yh46c1enxZDnNrzd8vGPfzzEn+PMZIsB4eAVINq8EUN1DEvGDb70pS8FT5JqWyMFpJF4JsNhO/tt82bAdKawDDtm0hYb4oJgWNhMLZ71SJ6LQR6oB2FyDBqWeAMkaVwbOz6NT3iL3FCpddS7WbGc41PlpuGJztLYy1/+8mnGcmotC8VuZknmUstKI5kVRAQMLCPMFfZjUINjjjkmiCDVRN6awOZTyHjOQ5WHPlr/8i//Err0MNAE4fKmBRnFvEYaBHjtzESxWZAuVI1e+MIXhqq9GX3I8Ai5KeCFAOLOWzU8F51rq3utc2BZMgx+JwsQ66rXE5dmpkejIGRcL+KSjE+tuCWX2fnZedUTL+BGxI2KhjhukjyyMeMaWF5hO/IWA5Jww64XJvHguDTCnHHG6eHZcC0xxBiog6q67TNf2Le6/M1WpU87mRVEMqxl2vmCWNFSSUGkVY/GBH6TURcCceL5Dw/BGUyCjExhMQGiuw2vVzG/kAw5GxRsvAq6R/C80+z5z39+GNCB0VeoplnHWp4l0mHcXhc0kvPEt5E0r94HWGY3AZYlBZLO6rM9kGdfOnLfcMMNIY54V3i+zfJKkvGud4zkNtV98Gbqk8e1oaGEUZW4JnQhMuM9bTo586iDWgVGCzwNdNzg6mFxKRYj0SR9axnbmSWv01yhNmF9VgmH/D1Ti38WSIUgcgc0j4+LVH3XqUWtTs1zvbgcg2drNC4gHJbxeZZGZ2WqlLWgEOL9MeQXdtlll00bMslAdJ/xjGeEd5fN86Lw84I9GaqZWBpSCGrBg3yq+LRcUujYnjjas1R+mxk2Xy0QpF0y/bmeSW8Gz4H15kFQeDB7nsojhSuuuGLG56sIDP036eRO1ynsec973qK3bNq5cK7El2m9PGnbJc+N36T5TI1TyWvCvsB+ti+PYfDked5HuByfRhJuAjORDKsehI/ZtvOBa0H1nniZ0Q2H97KzTCoEEY8Jj8oyHS22jOwx0wVjW7ZJPqfhrYe5QPhkDFrwqDpTsMh8TK3Fs1YceMZDx2DeNsF4JkM3nloQPgWDce1uueWWIOQsg0beOmg2dOug03gyHe++++59ChTXx4TK0qPe+Rpsb510CQvxJ43t3EkHhI0bCctId7Ynjepdd0SYbWioQjAQUW5ojTY2zIYdl87hpAfxZsqrjMS/VrwsnbiW3ChNQJnSmp9MxyT1ztFgPfvTCGY3K5bVq70kj1PvmAbhzHb82SA9GJ4Mj5DrgkByLWa6CWSBlgsiF4ZWWFo9mSdx6eyJlzbTK2RU7a655pqwrUEXk7nCMRFjhI1CbHfjmTDhxYukkFOAaKWu9posY7KcOzvPGJlHADA8pFbDuRKPZAGhACah6mbpjOfHeXzyk58M14dzrD5v4D1le3cbEAwGcbVWSNKZLklsQxh446SJve1TC8SArlJUNXncQAMCVf6kmC8GnC83Cs6VuOE1M95lrfMk3diGWgI3aKu5ECcEbSHYjSJ5bTjvapLrmw3HIv159smUc+ecSZsnP/nJ8VbZpeWCSOYn8zD6LomNUUB5XsJow3QfILGTRudnRqDmPVx+sz9eDGFwgWaDbaqNljn6f5H5ZwNB4L1k+nrhTXJ87pa89QIWphVsXmli+CrunhR8jsE+9YZeWmpI86QIVRcwzhcv0rbhPKjyM6wZBZSCa+Ap0GBEgeGZJDcZ0oKq1CMe8YgwDxyD9OYhP8/F2I/Cj/BQVSRcri3LAc+Q5654JixnW8Ki61Ty+AuFeDFgLJ4Z4s05I440atCXlOvNNsSBKdeS3gUvetGLwn52E8eLJYxGsXSpJnldoN52QFqx3h5XEL9GrBpbnqwlYeRdvGXexsIhsdcs2Y5zp6FmpvhlgVR8QoDMRRWMvnx4AeaNIIZ4Yw9/+MPDMqJKiy3jGXIRSHyEBe+Dh9E0FHC3souCV4bQUTC5mFTHeE2P1+5qQSsr2xMG4RIv9uWY9gkBg64rxJdMSAZkW6p/fAoBrxHRsGV4j8TRwiVTMUw+D9TrZSDC5E0XGmU4b37juRB/4sR+VlgsDKYIFc8sbYw9Xsv7wQ9+sM+4dkkQE0Zl5gbEjQiPjWH6EaUkPC+i76YVNgSJws+50m8OLxvxI614FmhvvxA+aYRAsr/FlXNinu15DkjrKOGyD8/K6I9n1WHixHNNvEOev7IfAslAGaRRvSozx6A7FF2KqNohsngxtOTWIhk3PFziRX9A89K4AdKXE+MasIxqMgNMcL6II8s5F27mZ5111j5hMp4jNwBu3pwn14Y8R2Me+SIJ27MvXbjYhvTlnF/96leH8S1ZT/5CmIgnz4H5zTVIvlI3E8SVmwz5mnMjHI7BeWB0Eue8DNbRSZywMeLMdtTwqDHQ8AN2zlmk5R4ikIA8E2JwVe46VNkoSFwMLgIFmhZRqiU22CcXA6PahBjyHI+CsZCLgcdC1ZmLPBMcg0yH10AGxMMhLnhSZHK8QV6L++IXvxjiTsYkAxFvRBlvghGQZ/JsyPBLBSIDFCgKHuLHPEbciQuPB8j0CD3nb9eH56nf/e53Q+MSYs2Iz3jubEehR8Re+MIXBvEHK+g2Jc3opsQNA+8P8WEZ4XK9GSiWIb6onlHoSUfW8UyWfpMU6sWGc6O2QXcY8hf5gePgKdLKzSg9XGPyJAJBnrUbIwJJlyZGH6/Oi9W/G4FjJqGFPYmFaVPSh5sMN2zyWj3jpsy70vXyOueLSFK7MeNGRWd+4kRe5lx5TPX5z38+iCFxmM85polUCCIZEKNKxV0UL4vCQQajgJj4MW+ix4N/4G7/pje9KRTkWlDw7E4528ViPQ0sVGU5Xj1RYjlxwevi9TwEGS8GcSQjmREnMigg7BRq+gHy1gGCUS98sMzFNgiTFbhGsX1mOgaQNngonA/7cB2o8uKFmxhixAWvDYHCK+R8uXHheVE4zLg+HBfh4HzxzvBoks8pLTybIm540Xi2CBDiSHwQVMJkynYcj3ARnEsuuSS0kluY9WB98riNwHYck9oCoxhxM6AGQ/oQL9YzJa2IF7UPbopUG3lHmBsA+1tYyeNbOmO2fCbw3shHbEtaM2I6oshvKzfkNX5jpD3LwJbVM9vGYJ54k88wyz9mxJlryrlSe+MNGsRwpsajrJGq7zJzEbiYCAt3MQoJ1d5klxa8GTwFChFVNeYRr1ogqnSPsYtLlQnBu//97x9vMR0uOnd/3uoAK+CIHgWwFoTP3RIRoQBRZbIWa4SPKgViwpfKEFsrVDNBmHheeGscn99UtRiYggJABqwWeqbcKPBMSUfu/hhVewp1NZbReUyB0HHupBHGM0OqziZGdgyOybnhgVCdxxtB7IkjcL6cIy3IeNxU3Tlf4FjEizCScQaWISx42NxkED6q5OxDHPBK8ELskYQJzmzgteLFAfmEdEB45wLXk+vAN1uIH4JNXBFrxIqqJdeW54ZUsUlHE0ywa23Pki3uCPxLX/rSkK9q5WH2I1/xjNKuNWnPIx/rWI2n941vfCPMEyewNJ0NwiRfE3/iQh7gWjJfC27ueO9cB2p0XBM7x3YhVYJIVLiYFiWmFDQymCW8ZTRstgvP/rVOr5H9qmGfZNzqQXzJaFboMeJcq4DMBmGwbTK+FiZWHQ7LbB8g3YDjmijVIxkW8xj71DqOwXITUTs3ptUiWo2FWW89YVo6AtsRLqJhx2kE9rP0SB5vLmEY7Eu8uDHZeVfHy8KHWudn55OEbcyqIYzkFCxc257ftY7VKBaWhQM2rSZ53PkeL+2kShCTEK1WJPp8jtuquEKjx653mZsZbzvmYh9joendrLSojtdsv530kVpBdBzHWWrmXndwHMdpU1wQHcdxYlwQHcdxYlwQHcdxYlwQHcdxYlwQHcdxYlwQHcdxYlwQHcdxYlwQHcdxYlwQHcdxYvzVPWfBkIUsG9m7us14Z9eOsdAsWy9u/p6x44LYhjAiC8NE1YNLbiPwMIRV9Ugtc4GhsQiP/W3KuH0zhWfDes0HOwbxtnEAq+HcSYNknBiP0Ua5qTfazUxxdjoDF8Q2hJGNzzvvvPjXdLjkjPPIsFWPetSjwsC8DNePwDQKYTDWIuNLMm+iShh8foBRs1meFBl+M2Yf34WeSbBnwsIkDMZr5DfYcRiKjE8LMKYfcWLILYSf76EwgGv19klqLXM6CxfENoPLyYCvj370o8PAtPVAOMBGP2ag0H/8x38MA4A2AkLDoKkIKcPtM6gvA4jyyYCPfvSj4TvUCExSZNgHIXzWs54VRl6u56nVg7AQckavJq7EuVrEGFiYYe35Dg/iy9iMDGLLVxw3bdoUb1UbF0THG1XaDAo11UVGdUakzBAghA9jBHJGRkacGPWYr8N95zvfkZNOOimM0s3+s4HwMmL2unVrw7EY0JUwWU5YNpBq8n5L3DA+P9Df3x+mSSNexJXwiBvzjHrOthhxR+xZj3dqg78yNePLh4yqzr6EwbYIL0PdcxNIxsdxqnEPsQ3huyR855oqIiAEfMIA4UOQuOQIC19sY1h7PpiFoLGc6uXHPvaxMCT+TCB+fKwfj8xgf6rhVNn5LgvhgnmCrEe08CDNQ03CUP98YhYv0OLCd034iJPBcs6BbzxjyVG0eTZJVRov1YbTt2ozQ+1fe+21M367m3CdzsYFsQ1B7PieiVV/7bOYCFhSnFjOd5A/8IEPBE+RYfHxqPjmDN/XSApRNXxb5Mwzz4x/RdVhwkagEEk+QHT22WeHZeYZmpjV42tf+1r4rCjHJS5sj2jzLZmZsDD5+BJxQkhN4IE48G0Snm3yASjW18IF0fEqc4eAOGAIlwkFwsN3gvmKnVUtWYaXxicqbbta8DEt8/IQGLxBRAzjI1B8fa76Y0WzCY5Vs+17JdhMcaiG7yPjGVoLM1+DY3/m+QAUcbIPyTtOLVwQOwSEoZa4IBbPfe5zw9cLaSFGjI444ojwuVSeO9YTJJ7VIa7szz58QJ1GHDwzGjL4WiLP/0zUGjW2x8yTNQGfyWy7H//4xxUxJA6ve93rglBzHoCXaJ+vdZxauCB2ECY2ZgafzqTll9ZYq/bSgGFCUg3PHfG2+OQon+Hks6MPfvCDw6dH8TRp0ICf/vSnYTpfELtkPGeCajpeLf0N6aPIR/TxCvlcJyCYeLQIuePUwwWxgzFhpMrLM0daeg2EDUGsFiQ8sB/84AdBONkP4aSLC1VtxIcGEcQHo+ptVHt1ZosBHireoTWk0AJ9/PHHhw7idAlCtFlHnH+jVX3HqYcLohOwll28Q0DQEL9qaIh5//vfHz5UTrX01ltvlSc+8YnBK8NLpGUb4aH6jce2Y8eOhr28+UDYPKt8+9vfHuLEeVBdf9KTnhTiwPNMPgRvH5X/9uWXh2rzYomx0164IDpzgs7YCCVeGVOePR533HFBQPHIjj322OA5Iop4ZXiTzebGG28MfQ4ROeKxYcOG0L2GONJCzTxxJU6sp68lU8epxgXRaRhEhU7XPHME+hvymhwChKeGF3bCCSeEZ5FAV553v/vdoVN1M7xEBJA4fe973wvCjADi/Z122mnBK+SYeLE827TGFJZ/+MMfntYC7jjggug0DF4YDSoIn3ljT33qU4NHiPjggfE8EWHiN1VUOknzql0zqqiESZx+97vfVar8CCTvV3N8jDjyfNQ8QrZDHG+66aaw3nGSuCA6DUN1GSEBGi5oxeXtFwOB4RkioshreAgjXmKjrwPOBY6FEOONWpwQvaOPPjrEywQRkT7ssMOC54qnimgy8EQz4uRkHxdEZxq1PCfE4yc/+UnlWR1Cw/S9732vvOc976kYb4PQ9YXGGVqqEZ/rrrsu7Fcr3IVAnHiThW4+xAXDe+XVw3e9612huk78qCITH9azD3GiY7lXm51q/NW9NqTWq3tvectbwnu+CFlSmLj8dKZ+5zvfGd4x5u0OPC/EglZiOmkD7y7TmmyDKhAO83TNse4uQNj0AbTX/swL++pXvxo8t+rslozLl7/8ZXnzm98cqtqEbyJMeLUgTqecckqoArMPEBeebVaLL88O7dyZcg5f/OIXQ8s4sLx6H6fzcA/RCV1jED+6qCBCdGCmtdiGD0M8fvWrX4XBF/C0EBSqw3RroVM2VVIMMWVKa7Pth8jgwSX7JC4GxIF3l3/zm99UGnmAZ4SIOHFJGiIPCDLxIk54ly6CThIXxA4Hgbj00ktDp2yquFQ5b7vttjDWIOMbAl4Xb6bgcSKYiIg1pCQtCaKDaJooXn755RVvcaEQHl4tzwF5Rkm4nAdxIv60LCcNEUcombf9WcZNAGFEXB0HPCd0CIgTwoFR1UX8aIygQ/PFF18cxhBEvKgq85YHXVUM3km+8sorQ58+RAXB5N1lhvhKGl4gds0118gll1wSRIftqT4zdiL9BauFcz4QBtViRNaqwjwmeOlLXxreWKGanTReIWS5xQnRJE6sw+t1HMMFsQPgnWO8qde85jVy/vnny6te9Sp5+tOfHp6/8WwPTxAvkCnCyHD79kwOEA3WI5hW5aTVlu2TxnGYUpWmtZdnf4gP0NDyzW9+M+y7GDD8GHHCU0TkGMXmcY97XDg+xzIjThjV+KOOOqpSvWZfRPGyyy4LYSyGUDvZxwWxzbBGC7wmCjmGl3bzzTfLFVdcETw1vCWqyIgfwodIsT3eIa3EPD808cPw/oB5uq7wLRM8s1qwDd4oYT/hCU+odMrm+SRjLPLJgnriY8st7rWqsixHwIgTwks8EcOTTz65MiBtEuLDNhYnGoZ4/5pweARAR3O6CDkOuCC2IRR2qsVUIxEg+24KhughUiyjDx+ja+NJ4V3hwTGyNvtbIwTP2BANGl4Ij+4zfC+FZ3JsV22AkGEnnnhiqF7TGsxxEGH6MiJSRnIeb5L4UUXnWPWECu8OcafaTJicDyNrmzdajcWNOBF3WqWJk6UN3YKS8XA6F+9204YgXlSPEbVaXhaXnGokrbF8JIquJzROsD3rTDzwrGjJfd/73hc8SYSIbd761reGlttamGdJGIjOa1/72uCh2vNLBl3gTRKLVzL78azvM5/5TKXxA+jbmOx2Q7iMa8gI4JwDv4nTm970ptDCPVN2Zh1x4LEB+zCP58jNgC5JhOV0Ni6IbQqelnlxM4EwWRZgW9veljFNzgPP7Gy+FqwjHNsX0THYN3lMg+3ZDkuuY3lSIPmNMNu8YdtUh5uEdbaPxcmOi3eZDM/pTFwQ2xQKeS3vcCaSgjDfbJHcz8KrFhq2qQ5/pmPPJlRsX2ub6nDsN+nC9vYbr9aWOZ2NC2KbwmVdSAFfzGxRHY96Yc83vnOJK+LHccyS+873+E774I0qbUonFe65nKt5gtX7uBg64B6is6hYdppNYKqz3VIKEsdOHq/6t9O5uCA6juPEeJXZcRwnxgXRcRwnxgXRcRwnxgXRcRwnxgXRcRwnxgXRcRwnxgXRcRwnxgXRcRwnxgXRcRwnxgXRcRwnxgXRcRwnIPL/AQDmS9epTSZlAAAAAElFTkSuQmCC;" vertex="1" parent="GTT7cH71L-WYsSc1KB4W-36">
          <mxGeometry y="14" width="72.9" height="90" as="geometry" />
        </mxCell>
        <mxCell id="GTT7cH71L-WYsSc1KB4W-31" value="PDFs" style="text;html=1;align=center;verticalAlign=middle;whiteSpace=wrap;rounded=0;" vertex="1" parent="GTT7cH71L-WYsSc1KB4W-36">
          <mxGeometry width="60" height="30" as="geometry" />
        </mxCell>
        <mxCell id="GTT7cH71L-WYsSc1KB4W-39" value="" style="group" vertex="1" connectable="0" parent="1">
          <mxGeometry x="493" y="733" width="60" height="80" as="geometry" />
        </mxCell>
        <mxCell id="GTT7cH71L-WYsSc1KB4W-27" value="" style="sketch=0;outlineConnect=0;fontColor=#232F3E;gradientColor=none;fillColor=#8C4FFF;strokeColor=none;dashed=0;verticalLabelPosition=bottom;verticalAlign=top;align=center;html=1;fontSize=12;fontStyle=0;aspect=fixed;pointerEvents=1;shape=mxgraph.aws4.opensearch_service_data_node;" vertex="1" parent="GTT7cH71L-WYsSc1KB4W-39">
          <mxGeometry x="6" width="50" height="50" as="geometry" />
        </mxCell>
        <mxCell id="GTT7cH71L-WYsSc1KB4W-28" value="Open Search" style="text;html=1;align=center;verticalAlign=middle;whiteSpace=wrap;rounded=0;" vertex="1" parent="GTT7cH71L-WYsSc1KB4W-39">
          <mxGeometry y="50" width="60" height="30" as="geometry" />
        </mxCell>
        <mxCell id="GTT7cH71L-WYsSc1KB4W-40" value="" style="group" vertex="1" connectable="0" parent="1">
          <mxGeometry x="256.25" y="650" width="62.75" height="182.00180422264884" as="geometry" />
        </mxCell>
        <mxCell id="GTT7cH71L-WYsSc1KB4W-30" value="" style="group" vertex="1" connectable="0" parent="GTT7cH71L-WYsSc1KB4W-40">
          <mxGeometry y="92" width="62.75" height="90.00180422264884" as="geometry" />
        </mxCell>
        <mxCell id="GTT7cH71L-WYsSc1KB4W-25" value="" style="sketch=0;points=[[0,0,0],[0.25,0,0],[0.5,0,0],[0.75,0,0],[1,0,0],[0,1,0],[0.25,1,0],[0.5,1,0],[0.75,1,0],[1,1,0],[0,0.25,0],[0,0.5,0],[0,0.75,0],[1,0.25,0],[1,0.5,0],[1,0.75,0]];outlineConnect=0;fontColor=#232F3E;fillColor=#01A88D;strokeColor=#ffffff;dashed=0;verticalLabelPosition=bottom;verticalAlign=top;align=center;html=1;fontSize=12;fontStyle=0;aspect=fixed;shape=mxgraph.aws4.resourceIcon;resIcon=mxgraph.aws4.textract;" vertex="1" parent="GTT7cH71L-WYsSc1KB4W-30">
          <mxGeometry width="62.75" height="62.75" as="geometry" />
        </mxCell>
        <mxCell id="GTT7cH71L-WYsSc1KB4W-26" value="Textract" style="text;html=1;align=center;verticalAlign=middle;whiteSpace=wrap;rounded=0;" vertex="1" parent="GTT7cH71L-WYsSc1KB4W-30">
          <mxGeometry x="2.75" y="60.00180422264884" width="60" height="30" as="geometry" />
        </mxCell>
        <mxCell id="GTT7cH71L-WYsSc1KB4W-38" value="" style="group" vertex="1" connectable="0" parent="GTT7cH71L-WYsSc1KB4W-40">
          <mxGeometry x="2" width="60" height="86" as="geometry" />
        </mxCell>
        <mxCell id="GTT7cH71L-WYsSc1KB4W-12" value="" style="sketch=0;points=[[0,0,0],[0.25,0,0],[0.5,0,0],[0.75,0,0],[1,0,0],[0,1,0],[0.25,1,0],[0.5,1,0],[0.75,1,0],[1,1,0],[0,0.25,0],[0,0.5,0],[0,0.75,0],[1,0.25,0],[1,0.5,0],[1,0.75,0]];outlineConnect=0;fontColor=#232F3E;fillColor=#01A88D;strokeColor=#ffffff;dashed=0;verticalLabelPosition=bottom;verticalAlign=top;align=center;html=1;fontSize=12;fontStyle=0;aspect=fixed;shape=mxgraph.aws4.resourceIcon;resIcon=mxgraph.aws4.q;" vertex="1" parent="GTT7cH71L-WYsSc1KB4W-38">
          <mxGeometry width="60" height="60" as="geometry" />
        </mxCell>
        <mxCell id="GTT7cH71L-WYsSc1KB4W-13" value="Amazon Q" style="text;html=1;align=center;verticalAlign=middle;whiteSpace=wrap;rounded=0;" vertex="1" parent="GTT7cH71L-WYsSc1KB4W-38">
          <mxGeometry y="56" width="60" height="30" as="geometry" />
        </mxCell>
        <mxCell id="GTT7cH71L-WYsSc1KB4W-41" value="" style="group" vertex="1" connectable="0" parent="1">
          <mxGeometry x="688" y="710" width="62" height="83" as="geometry" />
        </mxCell>
        <mxCell id="GTT7cH71L-WYsSc1KB4W-23" value="" style="sketch=0;points=[[0,0,0],[0.25,0,0],[0.5,0,0],[0.75,0,0],[1,0,0],[0,1,0],[0.25,1,0],[0.5,1,0],[0.75,1,0],[1,1,0],[0,0.25,0],[0,0.5,0],[0,0.75,0],[1,0.25,0],[1,0.5,0],[1,0.75,0]];points=[[0,0,0],[0.25,0,0],[0.5,0,0],[0.75,0,0],[1,0,0],[0,1,0],[0.25,1,0],[0.5,1,0],[0.75,1,0],[1,1,0],[0,0.25,0],[0,0.5,0],[0,0.75,0],[1,0.25,0],[1,0.5,0],[1,0.75,0]];outlineConnect=0;fontColor=#232F3E;fillColor=#E7157B;strokeColor=#ffffff;dashed=0;verticalLabelPosition=bottom;verticalAlign=top;align=center;html=1;fontSize=12;fontStyle=0;aspect=fixed;shape=mxgraph.aws4.resourceIcon;resIcon=mxgraph.aws4.chatbot;" vertex="1" parent="GTT7cH71L-WYsSc1KB4W-41">
          <mxGeometry x="2" width="60" height="60" as="geometry" />
        </mxCell>
        <mxCell id="GTT7cH71L-WYsSc1KB4W-29" value="chatbot" style="text;html=1;align=center;verticalAlign=middle;whiteSpace=wrap;rounded=0;" vertex="1" parent="GTT7cH71L-WYsSc1KB4W-41">
          <mxGeometry y="53" width="60" height="30" as="geometry" />
        </mxCell>
      </root>
    </mxGraphModel>
  </diagram>
  <diagram id="FtGSqam3aaIcYmCgFEkN" name="Page-3">
    <mxGraphModel dx="1085" dy="541" grid="1" gridSize="10" guides="1" tooltips="1" connect="1" arrows="1" fold="1" page="1" pageScale="1" pageWidth="850" pageHeight="1100" math="0" shadow="0">
      <root>
        <mxCell id="0" />
        <mxCell id="1" parent="0" />
        <mxCell id="7ZJDLdGAsnnBcBrR-Syd-1" value="" style="rounded=0;whiteSpace=wrap;html=1;" parent="1" vertex="1">
          <mxGeometry x="825" y="75" width="120" height="355" as="geometry" />
        </mxCell>
        <mxCell id="7ZJDLdGAsnnBcBrR-Syd-2" value="" style="rounded=0;whiteSpace=wrap;html=1;" parent="1" vertex="1">
          <mxGeometry x="448" y="64" width="120" height="486" as="geometry" />
        </mxCell>
        <mxCell id="7ZJDLdGAsnnBcBrR-Syd-3" value="" style="rounded=0;whiteSpace=wrap;html=1;" parent="1" vertex="1">
          <mxGeometry x="257.25" y="179" width="98.75" height="191" as="geometry" />
        </mxCell>
        <mxCell id="7ZJDLdGAsnnBcBrR-Syd-4" value="" style="rounded=0;whiteSpace=wrap;html=1;" parent="1" vertex="1">
          <mxGeometry x="30" y="140" width="120" height="170" as="geometry" />
        </mxCell>
        <mxCell id="7ZJDLdGAsnnBcBrR-Syd-5" value="" style="image;sketch=0;aspect=fixed;html=1;points=[];align=center;fontSize=12;image=img/lib/mscae/SAP_HANA_on_Azure.svg;" parent="1" vertex="1">
          <mxGeometry x="70" y="153" width="50" height="25" as="geometry" />
        </mxCell>
        <mxCell id="7ZJDLdGAsnnBcBrR-Syd-6" value="" style="outlineConnect=0;dashed=0;verticalLabelPosition=bottom;verticalAlign=top;align=center;html=1;shape=mxgraph.aws3.oracle_db_instance_2;fillColor=#2E73B8;gradientColor=none;" parent="1" vertex="1">
          <mxGeometry x="29.5" y="440" width="60" height="63" as="geometry" />
        </mxCell>
        <mxCell id="7ZJDLdGAsnnBcBrR-Syd-7" value="" style="ellipse;shape=cloud;whiteSpace=wrap;html=1;fillColor=#85E2FF;" parent="1" vertex="1">
          <mxGeometry x="30" y="226" width="120" height="80" as="geometry" />
        </mxCell>
        <mxCell id="7ZJDLdGAsnnBcBrR-Syd-8" value="Salesforce" style="text;html=1;align=center;verticalAlign=middle;whiteSpace=wrap;rounded=0;" parent="1" vertex="1">
          <mxGeometry x="60" y="254" width="60" height="30" as="geometry" />
        </mxCell>
        <mxCell id="7ZJDLdGAsnnBcBrR-Syd-9" value="" style="endArrow=blockThin;html=1;strokeColor=#475e75;bendable=1;rounded=0;endFill=1;endSize=4;startArrow=blockThin;startFill=1;startSize=4;jumpStyle=none;jumpSize=0;targetPerimeterSpacing=15;dashed=1;strokeWidth=1.5;" parent="1" edge="1">
          <mxGeometry width="50" height="50" relative="1" as="geometry">
            <mxPoint x="89.5" y="178" as="sourcePoint" />
            <mxPoint x="90" y="233" as="targetPoint" />
          </mxGeometry>
        </mxCell>
        <mxCell id="7ZJDLdGAsnnBcBrR-Syd-10" value="" style="sketch=0;points=[[0,0,0],[0.25,0,0],[0.5,0,0],[0.75,0,0],[1,0,0],[0,1,0],[0.25,1,0],[0.5,1,0],[0.75,1,0],[1,1,0],[0,0.25,0],[0,0.5,0],[0,0.75,0],[1,0.25,0],[1,0.5,0],[1,0.75,0]];outlineConnect=0;fontColor=#232F3E;fillColor=#E7157B;strokeColor=#ffffff;dashed=0;verticalLabelPosition=bottom;verticalAlign=top;align=center;html=1;fontSize=12;fontStyle=0;aspect=fixed;shape=mxgraph.aws4.resourceIcon;resIcon=mxgraph.aws4.appflow;" parent="1" vertex="1">
          <mxGeometry x="266.25" y="75" width="78" height="78" as="geometry" />
        </mxCell>
        <mxCell id="7ZJDLdGAsnnBcBrR-Syd-11" value="Appflow" style="text;html=1;align=center;verticalAlign=middle;whiteSpace=wrap;rounded=0;" parent="1" vertex="1">
          <mxGeometry x="271" y="146" width="60" height="30" as="geometry" />
        </mxCell>
        <mxCell id="7ZJDLdGAsnnBcBrR-Syd-12" value="" style="endArrow=classic;html=1;rounded=0;entryX=0;entryY=0.25;entryDx=0;entryDy=0;" parent="1" target="7ZJDLdGAsnnBcBrR-Syd-3" edge="1">
          <mxGeometry width="50" height="50" relative="1" as="geometry">
            <mxPoint x="150" y="227" as="sourcePoint" />
            <mxPoint x="310" y="230" as="targetPoint" />
          </mxGeometry>
        </mxCell>
        <mxCell id="7ZJDLdGAsnnBcBrR-Syd-13" value="Batch&amp;nbsp;" style="text;html=1;align=center;verticalAlign=middle;whiteSpace=wrap;rounded=0;" parent="1" vertex="1">
          <mxGeometry x="169" y="206" width="60" height="30" as="geometry" />
        </mxCell>
        <mxCell id="7ZJDLdGAsnnBcBrR-Syd-14" value="" style="outlineConnect=0;dashed=0;verticalLabelPosition=bottom;verticalAlign=top;align=center;html=1;shape=mxgraph.aws3.glue;fillColor=#F58534;gradientColor=none;" parent="1" vertex="1">
          <mxGeometry x="266.25" y="185" width="82.5" height="99" as="geometry" />
        </mxCell>
        <mxCell id="7ZJDLdGAsnnBcBrR-Syd-15" value="Glue ETL" style="text;html=1;align=center;verticalAlign=middle;whiteSpace=wrap;rounded=0;" parent="1" vertex="1">
          <mxGeometry x="296" y="284" width="60" height="30" as="geometry" />
        </mxCell>
        <mxCell id="7ZJDLdGAsnnBcBrR-Syd-16" value="ṢAAS applications" style="text;html=1;align=center;verticalAlign=middle;whiteSpace=wrap;rounded=0;" parent="1" vertex="1">
          <mxGeometry x="60" y="110" width="60" height="30" as="geometry" />
        </mxCell>
        <mxCell id="7ZJDLdGAsnnBcBrR-Syd-17" value="" style="endArrow=blockThin;html=1;strokeColor=#475e75;bendable=1;rounded=0;endFill=1;endSize=4;startArrow=blockThin;startFill=1;startSize=4;jumpStyle=none;jumpSize=0;targetPerimeterSpacing=15;dashed=1;strokeWidth=1.5;exitX=0.25;exitY=1;exitDx=0;exitDy=0;entryX=0.5;entryY=0;entryDx=0;entryDy=0;entryPerimeter=0;" parent="1" source="7ZJDLdGAsnnBcBrR-Syd-4" target="7ZJDLdGAsnnBcBrR-Syd-6" edge="1">
          <mxGeometry width="50" height="50" relative="1" as="geometry">
            <mxPoint x="180" y="360" as="sourcePoint" />
            <mxPoint x="180.5" y="415" as="targetPoint" />
          </mxGeometry>
        </mxCell>
        <mxCell id="7ZJDLdGAsnnBcBrR-Syd-18" value="Near real time" style="text;html=1;align=center;verticalAlign=middle;whiteSpace=wrap;rounded=0;rotation=0;" parent="1" vertex="1">
          <mxGeometry x="177" y="104" width="50" height="20" as="geometry" />
        </mxCell>
        <mxCell id="7ZJDLdGAsnnBcBrR-Syd-19" value="" style="endArrow=classic;html=1;rounded=0;entryX=0;entryY=0.5;entryDx=0;entryDy=0;entryPerimeter=0;exitX=0.833;exitY=0;exitDx=0;exitDy=0;exitPerimeter=0;edgeStyle=orthogonalEdgeStyle;" parent="1" source="7ZJDLdGAsnnBcBrR-Syd-4" target="7ZJDLdGAsnnBcBrR-Syd-10" edge="1">
          <mxGeometry width="50" height="50" relative="1" as="geometry">
            <mxPoint x="160" y="237" as="sourcePoint" />
            <mxPoint x="320" y="240" as="targetPoint" />
            <Array as="points">
              <mxPoint x="130" y="114" />
            </Array>
          </mxGeometry>
        </mxCell>
        <mxCell id="7ZJDLdGAsnnBcBrR-Syd-20" value="" style="endArrow=classic;html=1;rounded=0;entryX=0.028;entryY=0.921;entryDx=0;entryDy=0;entryPerimeter=0;" parent="1" target="7ZJDLdGAsnnBcBrR-Syd-3" edge="1" source="7ZJDLdGAsnnBcBrR-Syd-52">
          <mxGeometry width="50" height="50" relative="1" as="geometry">
            <mxPoint x="162" y="351" as="sourcePoint" />
            <mxPoint x="250" y="355" as="targetPoint" />
          </mxGeometry>
        </mxCell>
        <mxCell id="7ZJDLdGAsnnBcBrR-Syd-23" value="" style="endArrow=classic;html=1;rounded=0;" parent="1" source="7ZJDLdGAsnnBcBrR-Syd-22" target="7ZJDLdGAsnnBcBrR-Syd-24" edge="1">
          <mxGeometry width="50" height="50" relative="1" as="geometry">
            <mxPoint x="90" y="480" as="sourcePoint" />
            <mxPoint x="310" y="440" as="targetPoint" />
          </mxGeometry>
        </mxCell>
        <mxCell id="7ZJDLdGAsnnBcBrR-Syd-24" value="" style="outlineConnect=0;dashed=0;verticalLabelPosition=bottom;verticalAlign=top;align=center;html=1;shape=mxgraph.aws3.database_migration_service;fillColor=#2E73B8;gradientColor=none;" parent="1" vertex="1">
          <mxGeometry x="278.5" y="453" width="45" height="50" as="geometry" />
        </mxCell>
        <mxCell id="7ZJDLdGAsnnBcBrR-Syd-25" value="DMS" style="text;html=1;align=center;verticalAlign=middle;whiteSpace=wrap;rounded=0;" parent="1" vertex="1">
          <mxGeometry x="259" y="432" width="60" height="30" as="geometry" />
        </mxCell>
        <mxCell id="7ZJDLdGAsnnBcBrR-Syd-26" value="Data Source" style="shape=step;perimeter=stepPerimeter;whiteSpace=wrap;html=1;fixedSize=1;" parent="1" vertex="1">
          <mxGeometry y="1" width="180" height="50" as="geometry" />
        </mxCell>
        <mxCell id="7ZJDLdGAsnnBcBrR-Syd-27" value="Data Processing" style="shape=step;perimeter=stepPerimeter;whiteSpace=wrap;html=1;fixedSize=1;" parent="1" vertex="1">
          <mxGeometry x="213.25" y="4" width="180" height="50" as="geometry" />
        </mxCell>
        <mxCell id="7ZJDLdGAsnnBcBrR-Syd-30" value="Storage layer" style="shape=step;perimeter=stepPerimeter;whiteSpace=wrap;html=1;fixedSize=1;" parent="1" vertex="1">
          <mxGeometry x="418" y="4" width="180" height="50" as="geometry" />
        </mxCell>
        <mxCell id="7ZJDLdGAsnnBcBrR-Syd-31" value="Amazon S3" style="sketch=0;outlineConnect=0;fontColor=#232F3E;gradientColor=none;strokeColor=#ffffff;fillColor=#232F3E;dashed=0;verticalLabelPosition=middle;verticalAlign=bottom;align=center;html=1;whiteSpace=wrap;fontSize=10;fontStyle=1;spacing=3;shape=mxgraph.aws4.productIcon;prIcon=mxgraph.aws4.s3;" parent="1" vertex="1">
          <mxGeometry x="473" y="190" width="80" height="100" as="geometry" />
        </mxCell>
        <mxCell id="7ZJDLdGAsnnBcBrR-Syd-32" value="Amazon Redshift" style="sketch=0;outlineConnect=0;fontColor=#232F3E;gradientColor=none;strokeColor=#ffffff;fillColor=#232F3E;dashed=0;verticalLabelPosition=middle;verticalAlign=bottom;align=center;html=1;whiteSpace=wrap;fontSize=10;fontStyle=1;spacing=3;shape=mxgraph.aws4.productIcon;prIcon=mxgraph.aws4.redshift;" parent="1" vertex="1">
          <mxGeometry x="473" y="80" width="80" height="110" as="geometry" />
        </mxCell>
        <mxCell id="7ZJDLdGAsnnBcBrR-Syd-33" value="Amazon Athena" style="sketch=0;outlineConnect=0;fontColor=#232F3E;gradientColor=none;strokeColor=#ffffff;fillColor=#232F3E;dashed=0;verticalLabelPosition=middle;verticalAlign=bottom;align=center;html=1;whiteSpace=wrap;fontSize=10;fontStyle=1;spacing=3;shape=mxgraph.aws4.productIcon;prIcon=mxgraph.aws4.athena;" parent="1" vertex="1">
          <mxGeometry x="473" y="298.25" width="80" height="110" as="geometry" />
        </mxCell>
        <mxCell id="7ZJDLdGAsnnBcBrR-Syd-34" value="Data Visualization" style="shape=step;perimeter=stepPerimeter;whiteSpace=wrap;html=1;fixedSize=1;" parent="1" vertex="1">
          <mxGeometry x="803" y="4" width="180" height="50" as="geometry" />
        </mxCell>
        <mxCell id="7ZJDLdGAsnnBcBrR-Syd-39" value="" style="endArrow=classic;html=1;rounded=0;entryX=0.006;entryY=0.778;entryDx=0;entryDy=0;entryPerimeter=0;" parent="1" source="7ZJDLdGAsnnBcBrR-Syd-33" target="7ZJDLdGAsnnBcBrR-Syd-1" edge="1">
          <mxGeometry width="50" height="50" relative="1" as="geometry">
            <mxPoint x="574" y="370" as="sourcePoint" />
            <mxPoint x="727.0024999999999" y="371.58000000000004" as="targetPoint" />
          </mxGeometry>
        </mxCell>
        <mxCell id="7ZJDLdGAsnnBcBrR-Syd-40" value="" style="outlineConnect=0;dashed=0;verticalLabelPosition=bottom;verticalAlign=top;align=center;html=1;shape=mxgraph.aws3.api_gateway;fillColor=#D9A741;gradientColor=none;" parent="1" vertex="1">
          <mxGeometry x="254.25" y="520" width="45.75" height="40" as="geometry" />
        </mxCell>
        <mxCell id="7ZJDLdGAsnnBcBrR-Syd-41" value="" style="outlineConnect=0;dashed=0;verticalLabelPosition=bottom;verticalAlign=top;align=center;html=1;shape=mxgraph.aws3.lambda_function;fillColor=#F58534;gradientColor=none;" parent="1" vertex="1">
          <mxGeometry x="319" y="540" width="31" height="33.5" as="geometry" />
        </mxCell>
        <mxCell id="7ZJDLdGAsnnBcBrR-Syd-42" value="Rest API" style="text;html=1;align=center;verticalAlign=middle;whiteSpace=wrap;rounded=0;" parent="1" vertex="1">
          <mxGeometry x="240" y="556.5" width="60" height="30" as="geometry" />
        </mxCell>
        <mxCell id="7ZJDLdGAsnnBcBrR-Syd-43" value="" style="endArrow=classic;html=1;rounded=0;" parent="1" source="sV7fbiSfHRUUF28fEZ7b-3" target="7ZJDLdGAsnnBcBrR-Syd-40" edge="1">
          <mxGeometry width="50" height="50" relative="1" as="geometry">
            <mxPoint x="70" y="567" as="sourcePoint" />
            <mxPoint x="180" y="519" as="targetPoint" />
          </mxGeometry>
        </mxCell>
        <mxCell id="7ZJDLdGAsnnBcBrR-Syd-44" value="" style="endArrow=blockThin;html=1;strokeColor=#475e75;bendable=1;rounded=0;endFill=1;endSize=4;startArrow=blockThin;startFill=1;startSize=4;jumpStyle=none;jumpSize=0;targetPerimeterSpacing=15;dashed=1;strokeWidth=1.5;dashPattern=1 4;exitX=0.145;exitY=0.855;exitDx=0;exitDy=0;exitPerimeter=0;entryX=1;entryY=0.8;entryDx=0;entryDy=0;entryPerimeter=0;" parent="1" source="7ZJDLdGAsnnBcBrR-Syd-41" target="7ZJDLdGAsnnBcBrR-Syd-40" edge="1">
          <mxGeometry width="50" height="50" relative="1" as="geometry">
            <mxPoint x="367" y="587.5" as="sourcePoint" />
            <mxPoint x="333.75" y="587.5" as="targetPoint" />
          </mxGeometry>
        </mxCell>
        <mxCell id="7ZJDLdGAsnnBcBrR-Syd-45" value="" style="endArrow=classic;html=1;rounded=0;entryX=-0.008;entryY=0.973;entryDx=0;entryDy=0;entryPerimeter=0;" parent="1" source="7ZJDLdGAsnnBcBrR-Syd-40" target="7ZJDLdGAsnnBcBrR-Syd-2" edge="1">
          <mxGeometry width="50" height="50" relative="1" as="geometry">
            <mxPoint x="365" y="522.5" as="sourcePoint" />
            <mxPoint x="403" y="249.5" as="targetPoint" />
          </mxGeometry>
        </mxCell>
        <mxCell id="7ZJDLdGAsnnBcBrR-Syd-46" value="Amazon DynamoDB" style="sketch=0;outlineConnect=0;fontColor=#232F3E;gradientColor=none;strokeColor=#ffffff;fillColor=#232F3E;dashed=0;verticalLabelPosition=middle;verticalAlign=bottom;align=center;html=1;whiteSpace=wrap;fontSize=10;fontStyle=1;spacing=3;shape=mxgraph.aws4.productIcon;prIcon=mxgraph.aws4.dynamodb;" parent="1" vertex="1">
          <mxGeometry x="473" y="414" width="80" height="110" as="geometry" />
        </mxCell>
        <mxCell id="7ZJDLdGAsnnBcBrR-Syd-47" value="Amazon QuickSight" style="sketch=0;outlineConnect=0;fontColor=#232F3E;gradientColor=none;strokeColor=#ffffff;fillColor=#232F3E;dashed=0;verticalLabelPosition=middle;verticalAlign=bottom;align=center;html=1;whiteSpace=wrap;fontSize=10;fontStyle=1;spacing=3;shape=mxgraph.aws4.productIcon;prIcon=mxgraph.aws4.quicksight;" parent="1" vertex="1">
          <mxGeometry x="844" y="80" width="80" height="110" as="geometry" />
        </mxCell>
        <mxCell id="7ZJDLdGAsnnBcBrR-Syd-49" value="" style="endArrow=classic;html=1;rounded=0;entryX=0.014;entryY=0.08;entryDx=0;entryDy=0;entryPerimeter=0;exitX=1.005;exitY=0.372;exitDx=0;exitDy=0;exitPerimeter=0;" parent="1" source="7ZJDLdGAsnnBcBrR-Syd-10" target="7ZJDLdGAsnnBcBrR-Syd-2" edge="1">
          <mxGeometry width="50" height="50" relative="1" as="geometry">
            <mxPoint x="346.88" y="104" as="sourcePoint" />
            <mxPoint x="453.88" y="104" as="targetPoint" />
          </mxGeometry>
        </mxCell>
        <mxCell id="7ZJDLdGAsnnBcBrR-Syd-50" value="" style="endArrow=classic;html=1;rounded=0;entryX=0.028;entryY=0.394;entryDx=0;entryDy=0;entryPerimeter=0;" parent="1" target="7ZJDLdGAsnnBcBrR-Syd-2" edge="1">
          <mxGeometry width="50" height="50" relative="1" as="geometry">
            <mxPoint x="357" y="255" as="sourcePoint" />
            <mxPoint x="450" y="254" as="targetPoint" />
          </mxGeometry>
        </mxCell>
        <mxCell id="7ZJDLdGAsnnBcBrR-Syd-52" value="" style="sketch=0;pointerEvents=1;shadow=0;dashed=0;html=1;strokeColor=none;fillColor=#505050;labelPosition=center;verticalLabelPosition=bottom;verticalAlign=top;outlineConnect=0;align=center;shape=mxgraph.office.users.csv_file;" parent="1" vertex="1">
          <mxGeometry x="93" y="334" width="59" height="43" as="geometry" />
        </mxCell>
        <mxCell id="7ZJDLdGAsnnBcBrR-Syd-53" value="" style="endArrow=classic;html=1;rounded=0;entryX=0.001;entryY=0.412;entryDx=0;entryDy=0;entryPerimeter=0;" parent="1" edge="1" target="sV7fbiSfHRUUF28fEZ7b-16">
          <mxGeometry width="50" height="50" relative="1" as="geometry">
            <mxPoint x="93" y="761" as="sourcePoint" />
            <mxPoint x="251.25" y="761" as="targetPoint" />
          </mxGeometry>
        </mxCell>
        <mxCell id="7ZJDLdGAsnnBcBrR-Syd-55" value="" style="endArrow=classic;html=1;rounded=0;entryX=-0.008;entryY=0.817;entryDx=0;entryDy=0;entryPerimeter=0;exitX=1;exitY=0.25;exitDx=0;exitDy=0;" parent="1" source="sV7fbiSfHRUUF28fEZ7b-16" target="7ZJDLdGAsnnBcBrR-Syd-100" edge="1">
          <mxGeometry width="50" height="50" relative="1" as="geometry">
            <mxPoint x="430" y="789" as="sourcePoint" />
            <mxPoint x="598" y="964" as="targetPoint" />
          </mxGeometry>
        </mxCell>
        <mxCell id="7ZJDLdGAsnnBcBrR-Syd-71" value="" style="group" parent="1" vertex="1" connectable="0">
          <mxGeometry x="850" y="490" width="62" height="83" as="geometry" />
        </mxCell>
        <mxCell id="7ZJDLdGAsnnBcBrR-Syd-72" value="" style="sketch=0;points=[[0,0,0],[0.25,0,0],[0.5,0,0],[0.75,0,0],[1,0,0],[0,1,0],[0.25,1,0],[0.5,1,0],[0.75,1,0],[1,1,0],[0,0.25,0],[0,0.5,0],[0,0.75,0],[1,0.25,0],[1,0.5,0],[1,0.75,0]];points=[[0,0,0],[0.25,0,0],[0.5,0,0],[0.75,0,0],[1,0,0],[0,1,0],[0.25,1,0],[0.5,1,0],[0.75,1,0],[1,1,0],[0,0.25,0],[0,0.5,0],[0,0.75,0],[1,0.25,0],[1,0.5,0],[1,0.75,0]];outlineConnect=0;fontColor=#232F3E;fillColor=#E7157B;strokeColor=#ffffff;dashed=0;verticalLabelPosition=bottom;verticalAlign=top;align=center;html=1;fontSize=12;fontStyle=0;aspect=fixed;shape=mxgraph.aws4.resourceIcon;resIcon=mxgraph.aws4.chatbot;" parent="7ZJDLdGAsnnBcBrR-Syd-71" vertex="1">
          <mxGeometry x="2" width="60" height="60" as="geometry" />
        </mxCell>
        <mxCell id="7ZJDLdGAsnnBcBrR-Syd-73" value="chatbot" style="text;html=1;align=center;verticalAlign=middle;whiteSpace=wrap;rounded=0;" parent="7ZJDLdGAsnnBcBrR-Syd-71" vertex="1">
          <mxGeometry y="53" width="60" height="30" as="geometry" />
        </mxCell>
        <mxCell id="7ZJDLdGAsnnBcBrR-Syd-74" value="" style="endArrow=classic;html=1;rounded=0;entryX=0.017;entryY=0.166;entryDx=0;entryDy=0;entryPerimeter=0;" parent="1" source="7ZJDLdGAsnnBcBrR-Syd-32" target="7ZJDLdGAsnnBcBrR-Syd-1" edge="1">
          <mxGeometry width="50" height="50" relative="1" as="geometry">
            <mxPoint x="554" y="124" as="sourcePoint" />
            <mxPoint x="800" y="133" as="targetPoint" />
          </mxGeometry>
        </mxCell>
        <mxCell id="7ZJDLdGAsnnBcBrR-Syd-75" value="Batch Analytics" style="text;html=1;align=center;verticalAlign=middle;whiteSpace=wrap;rounded=0;" parent="1" vertex="1">
          <mxGeometry x="650" y="110" width="110" height="30" as="geometry" />
        </mxCell>
        <mxCell id="7ZJDLdGAsnnBcBrR-Syd-84" value="" style="endArrow=classic;html=1;rounded=0;exitX=1;exitY=0.75;exitDx=0;exitDy=0;" parent="1" source="7ZJDLdGAsnnBcBrR-Syd-78" target="7ZJDLdGAsnnBcBrR-Syd-80" edge="1">
          <mxGeometry width="50" height="50" relative="1" as="geometry">
            <mxPoint x="90" y="661" as="sourcePoint" />
            <mxPoint x="200" y="661" as="targetPoint" />
          </mxGeometry>
        </mxCell>
        <mxCell id="7ZJDLdGAsnnBcBrR-Syd-87" value="" style="group" parent="1" vertex="1" connectable="0">
          <mxGeometry x="26" y="640" width="67" height="60" as="geometry" />
        </mxCell>
        <mxCell id="7ZJDLdGAsnnBcBrR-Syd-78" value="" style="shape=image;verticalLabelPosition=bottom;labelBackgroundColor=default;verticalAlign=top;aspect=fixed;imageAspect=0;image=data:image/png,iVBORw0KGgoAAAANSUhEUgAAAUwAAACYCAMAAAC4aCDgAAAAkFBMVEX///8aGRkAAAAXFhYTEhKurq7k5OQ8Ozuenp7FxcWTk5MlJCQHBQVwcHB5eHgSERGoqKgyMjL4+Pjr6+ve3t7Nzc3y8vIMCwvY2Nizs7O5ubm/v7+rq6vLy8uQkJCEhIRJSUliYmJTUlJeXV0sKytCQUGJiYlzc3NramqAgIAgHx85OTkpKCgxMDBXV1dOTk4ym7ByAAAQcklEQVR4nO1d6XqqyhLVgigqigGVaBLjmKgxyfu/3QVBqqonkO1wvLJ+nG+fINAsuquqa6JWU2DodGf7+q45/3wdqY5XKIpBDwBCu16vW170r7/JrQd0v2gswbXqBB5YFZ3l0IawLsKCWXDrcd0h/BlIVMYIoXXrod0dRjtXyWU8Od9uPbg7w8jyNFxGgKdbD+++8C2LS8rm8Nbjuyf01PISV7p/6xHeD4YCl7ZnMxOp7s5vPcT7wcomxEXW+s9sHZns1UIvgwnlDWatw5oefFCz05vdeIx3g2+cmBbglieglie83HCAd4QBEC4H9Mgcj8DHrYZ3X2iDdv6tM+vTsm8zuHsDMgZb4VCD8DxQnlyBgxAmeTA3mRKC8S3Gdm/A2Rf+Sgdfs4MwvcHY7g5osUNbOhhkB92vG4zt7tAC00rGaVttggqAkKlwqyOZy+sP7f5AlrkjHRwhmd0bjO3ugDZ7uJEOEqY/bzC2u4NPTCPp4AeSWfnbi+An25pDXzjkQ+aKqzbnhYCzzxKt9q6Lh24zuHvDO65z75kdcfCIQp5WUIG41cNnEib/pC64KuBbDGQC1j1op0u99Uz+bHd0Jw+nv3WI0Fk6lVStMTUTz0FYb9vTOQCNZWjcHI1tnJt0ONsKAbxplf5Re+MBNS9jKPvLt+q00QbYa4i0FHxUccyZMWyucWb2QZEEAvB69dH/xzDiM0xiSLQ/Y8zV51hVgOPFxCb05BP8pjZvAR7evzRk+oaTo3JxNHV5XhWbtXhuquWmpfRwLI35NJVTZLRQLXW1QnGMXEZnvV99+P81jENxrQP0VKZOIHDphSE/sQoMR+jvia3uRlQ2lD+bU4kQWaXrzfybm5yKcNID4qW9Ttm0ejqLccByk9bJrt1/2pE/V0mICZ4STuxn7S++XEIaMUE/qGNEZZo+Hvp5ZPqUs6Hi1MPpyg3owyGXzBaJcwj+DzI3QS1uHwy5ZKKb0/sTj+0sHc+PiVwySaKXlE+MC11KAntI5JKZ2UCKuNDIMGtvh8Zw0nemt4gV5JGJ+keVMVPPmN4b7zJ+e0rwdmH/fNBfQII0xWLQfzrisneOkUcmbn9Uzra/owywQuNdVgD8GS+DoAtHn8PxRm/Zna8QcD0Xma7xLs3jRuuiZI6J//p4o6fj+K36Be+c4q34MleEfzN1bmlDcAdchUzmj7kBmf5LL0zJeNdExzBnwZOOFVZA1yCzxfwx1ybTf1pkIiaOjq2mqthPE9NpJOWBoTnXbBpdg0weFLwumYMvEBzENkBTztncGnI290i0WVdegUyyuY0kOBwdWdcgc7RRBRvrHuxF+4xuJwXHUrvwdvIKZGJCWh3cXn+cLqMrkKmM26bTc8ndaYQxoQiL1A3aK/P9Lk8mLbuhYZSLk+n/muIQLt02tqjbMmKTzE2qPPM4ujyZ+GZdFl29NJnBzsQl9Vo2FkJkw4JlynRrzQyRnKZIlycTFxAfy4XJbIChp0Q6noP09j8UIcwQ3Pl2uwR2kdxMhMuTmelJu8n+flkyG/qQOWfzDdQT2Ir4DIWko7yoxeXJzOIBIa9guiiZfliAy5jNpjmHhv04N+Ho8mRmWc9cZF6WzLykrYwgyrn5BajyaQSUJXP0/jbd9rbTt2He3P86N5mDifPR6304r3qjry0tXe/gUQkN0zCylkztZqCAK1NL5ksLIfqeG+3vw9jcw38XR1/+MDshNdReo3++/x5luLd8PxxMOdCS6ZM7T8RXNZkndz7cejdNrxXgGYfxCVxGm8j1h/PUny7F7RAha/da8/faZKMiXGrJHAIBnwLDBU/ADY/uu1l2QlIs6x/+jfowmR25O6AmuTMflP/JJ1dE0vzguJhwd94vZwzqTmZHtEQzKIGb3Mn/02gjZZ5XUTIHKJdtzmXwK79cC1YN+gwpX75yZHl78wUx8nkKhQOytggPl8Oi59hHxpvwWMJVhrL96UH3yPZUNXXdgu251GQG+PqEzdWTep14sao7C5ldXQuNQJM8CRuRTDYxbdkLJGS7WdAkPxn8iU/owqZgB1Mlmf4O21jwsWi7WMVbsHOQSYPUzJQaao1w+OVkMolpgcKBuWG/2Anx25dILLtJ5cuhe2mvcO8JJZlEq/E8OlMGIwTLfyeT7IR5dumrwR6Ez3dKJlPl6i4cf2TyWTvpsD/ZrhMJPPs4JfynIpNKLWaozg1c1r318jh3SpNJPDTA2kG8m+5ch21GToe32tJkB7F0d03jLT8ITs3TUpBJFgEXvFOz58BGH+qRTDcCDtuO/9c1kEkogxm9c5CzT8GJ1mF5lvaP5rGpj/V8jTpkMqnUYhpe6FQXHo0RWSMdyez2er1t88iD3dxG/9/7Sie7TCYxIUK+j39m8tLO7CDZyukQ+alug5CAvOPzdTGTyKRSi78ym5d8zceNaBn4jclGchUwY6TwDoiYEOGerTAmBW1YtYexeg2G045EZ4euH0PVLiuhLM2eAJHMMeGSR4/oE1nQI9aC3xY0LSOz6N7cr2cX8Sxmi7AEaXimKrH1I7zIDulaZOoaQZeZSuGXgkAmlVp8JLQW0XMF2y345gHIMmQ+ZyTYwtNRe0yqefjkbHZqMxIl0SensnzMcyWzcDKJ1BLrXsjy93ayEctCBGXIxI2cJWxfR/S55a3ImLHZqe3Jrw31EZgneL5KaUYmUZqwEH7YIXsi1bJokpVegswN4VIwDR2dRkxBNXNEJn2philHWkKerTKSkkmklrsWfvdCnkj5IqnpdjqZtAuEaPbhY2vaEM2Jr6dT2xUj8/nCZKLUCqWcHFQ/ui5VZIKcTKZjeFVE/WgCWlT+dWqrYuu3ftlljntFwTKJMcPMWp1PFp1jJ5K5IqahbBnirkgb0CJK6L+hgOo2alNPngGYuzTTXYqEIU8iM3Y4Zv+SGw0hU9rXGFAyu8Q00jc0ofvT85tGCJWCQU+Mvq/SoDSZ+FgKBZP5orR7Q5qR3mH2sN4cJ/u88zXkUZDpKiYA6fild0hlKqgsmcp6uk52VX3YGnc9wnZSWx1BreazJaoryFR5UYjg0l9rJniNEpxApnLHgnfW141MCJnULLV1Oegs6eVsJZFIZvaqVMF21BaW/lqbUDW8AmSi5lLIECRTb4Izf+YzdcGpY658g6rUP35jMGic6IPLyLSwDUAoz3sk01BvUJbMTgfZlEUMkqlv+D+kZDr5TK2pc1hOrQ7eNvXELdX5Gp9AKJpGb5uMTXniZ3s2U5BbDFskyDeN9siFYl0WmZksbMGmnbg3PYA5ua26YEC1/jAGGueTzgtbTtRoJ4aiOAlei8jMXTkFFL0fzNuVY6qo1vQy06Fk8spxW3oWMZ5rwYr8ZPgsBptCWBYsmaRk4gSxXGFy425Sr81R8p++nUTvr0RZJgINtXYbGragW98DV7zH02soebNtWB6twZ4qrB4WTHdhjg60j12hITepk9HuKl7/gUyaEStMg2ye6Vu3EUPn8Js5T8wAOGZ+1PzxWhkBCRPX3ugZFAfjSxRqTsxdcN84QYR3kbn5PdEFIj91Ga8R7uw9Ide5nb8oyHbmQKbYbsOKNEl36rR7M9AHjN1xLfC0yUbQ1NxbTyZ1KnCxuww1BzLQc0v4M5eo/njqIabua7uqL2hALUZfmmBxizxwTfmvFvytTN9c004iHZnEXrFtJmlweKHo6UyBxkApMmnzWubs8PUSIAUNQaSiwJjOTimi9Hnmdmf5nUvFGBBaDVxMUKGm1KosqFImbEEjJsw5sMDY0Ez5DDRQfpSrndwk7MON+rMTkl1zK/dFMn18PVxsEk+6SnbxsH4ZMonvgTe2pTE+VderLp2FRzKD/JT25AknoXoS266YzlkiDZvMMEYa3f3Jy220Z5n0pcik9hH9qa/z4Sf4YGRkGt+gTCiXtdhLImdlurDqTafdHUsKyM0dlpMQ0ANjs90OeSRbdOEOQzYPSpJJRQmNJLAYtyC5fCFlB82nkRgFFmBnyzaYS6UrX+k8Gi7oRUqUruCCZhFKVrUHv0SnN74EwVOSTFLxyXyqrOMteDRAKdWgUVt0Y2z56JEnGDL7km2annS6oBiZ1MahFvqevr4QntutQRA03p2ZtEzKkknsI5Yfw1wXkdH4NX5pBI2XcVfOfmWG/VhTlnJIb+UC0NFKMaIYDdsGHZlM4hOxyXdpmPEjS/rSZFL7iLqCm0z+WW56Z1eeefxx/a0i2TieCU2980FyqDgaLVKMTBLEZu8ipyeiJ2bBnU4mU38kZpiXBYdLQ5w7wYfUtxlgIYcje7gmpOgr+bSD+VsY6jRsC0+nAr9rYtP7E/MzS5BJlA37jIL4rVgO+MyoUCzE166bCaJIRswcVfwMg/Py7MOV6pr1uZpMmnJA5b0h29WSM4cTnFhUhe6BkG7gWqbM4SnztCsQfCSDsPYDja2I71B22OIeLCf7UFNtQfLymDg25LS3SjuH2fB1FdVDfQXPUigQUODfGp7ss4Yncso2ha4OCB373Isz1lVbtMp72uvqv3OxGVdbqCanJVdbKPBvrXiyDW3JVjw0h4s5v4OlTKcNTVUdUIKTayfnarGprgOCg064MJlFm0R1spRmwSAlRV+CPzgu7aABKRfS4g+sUKPrc579lUck+ryqDOGTO/OH99vcHIoUc5J0O9FdC29mJpMsc4UbOAuf5vSVaGQQt0p4pCHqt6D/i6MPv452WaC8Fv6Va9ERXl+4PDki6YtWb4e3/uunN/K110pxrsZ6Gvfjv6LRenIc50nXdOmCGMXt+Zz+6ynf2c0lkySmSUFQxygDHg+nNCOVXOrEK1k1I62d2CZXCBluyaHq00C1AmRSDyNPfqXJ/AXiQA+A/NbiZP4xM5GVelSfqYx2T5/P6byzN2ONg5fVAsNPkmIUODSoUX1ZseZHhJA6Qm3uUJd6ZW2A1WJWFz7HcNF+rfeAvrRtCtNeFALED1vZnhD61SZ7PgoCZTaMuk2EKi+c4tG/RatzNVnKQKPRXfvwi9zQPkGZiaXpHZOckN8j6v8aRve8MttFz+ajc5kTOFLGbXvqc+xHX+OsNFbJpkqhTBTRYQvq+nT6x4AQSw2l0LDa1PF7gi1lS67exwNLA7EAlu2+0+vw5qLqJOhgGvEXxk00rDh7a+VUH/uiVX8h9FNChjO6PdTWNL04m28vmqHrr/4pXtP/W1Av0Jrsx1lt2sN/z7gYiH8ynLEjZKOjK52vwIEeNSlHlTjVKjdQIez1+UE0O+zRTZ5C8MnElA6SdgDVhyQLABsJKMquSfH8w38ZugiGpsnnm5iuIAGVuaq3njF9o4IIQqYi1I1kVrZRAZBlLm+sMUtLW0BYgQBjjYp2JhMT0xVkmLIwSFGttllpBQJMxJKWMs0xr74KXQS03kRIa8PiiWt88fL/ASRBQ2g1T3t9VzZ7MWBHM/KBr4hkWtiXUyNV4QjaxawO30mK0fCLutrD37yLVEjB4mk2gPW9Al7l+egpGidAKPWsW7YQxYXKYi+OT21GQTJZDV3tKkiYGdmstM9p+DF9E+1cjYYfBf5KX+pZbSRPhqa/kVsFf8pA9SFpG34LfserAkcgNvII4acSl6URfHpxGzjLsuw4e2tZUflvGLxtl+uf70XXea+ysE7A/wBvCd2ISmDObQAAAABJRU5ErkJggg==;" parent="7ZJDLdGAsnnBcBrR-Syd-87" vertex="1">
          <mxGeometry x="1.4699999999999989" width="65.53" height="30" as="geometry" />
        </mxCell>
        <mxCell id="7ZJDLdGAsnnBcBrR-Syd-86" value="producer (3rd party)" style="text;html=1;align=center;verticalAlign=middle;whiteSpace=wrap;rounded=0;" parent="7ZJDLdGAsnnBcBrR-Syd-87" vertex="1">
          <mxGeometry y="30" width="67" height="30" as="geometry" />
        </mxCell>
        <mxCell id="7ZJDLdGAsnnBcBrR-Syd-89" value="SSL/TLS connection" style="text;html=1;align=center;verticalAlign=middle;whiteSpace=wrap;rounded=0;" parent="1" vertex="1">
          <mxGeometry x="123" y="648" width="60" height="30" as="geometry" />
        </mxCell>
        <mxCell id="7ZJDLdGAsnnBcBrR-Syd-90" value="" style="endArrow=classic;html=1;rounded=0;exitX=1;exitY=0.75;exitDx=0;exitDy=0;entryX=0.014;entryY=0.475;entryDx=0;entryDy=0;entryPerimeter=0;" parent="1" source="7ZJDLdGAsnnBcBrR-Syd-80" target="7ZJDLdGAsnnBcBrR-Syd-100" edge="1">
          <mxGeometry width="50" height="50" relative="1" as="geometry">
            <mxPoint x="307.75" y="717" as="sourcePoint" />
            <mxPoint x="803" y="710" as="targetPoint" />
          </mxGeometry>
        </mxCell>
        <mxCell id="7ZJDLdGAsnnBcBrR-Syd-94" value="" style="group" parent="1" vertex="1" connectable="0">
          <mxGeometry x="850" y="600" width="96" height="180" as="geometry" />
        </mxCell>
        <mxCell id="7ZJDLdGAsnnBcBrR-Syd-100" value="" style="rounded=0;whiteSpace=wrap;html=1;" parent="7ZJDLdGAsnnBcBrR-Syd-94" vertex="1">
          <mxGeometry x="-24" y="-20" width="120" height="200" as="geometry" />
        </mxCell>
        <mxCell id="7ZJDLdGAsnnBcBrR-Syd-92" value="" style="sketch=0;points=[[0,0,0],[0.25,0,0],[0.5,0,0],[0.75,0,0],[1,0,0],[0,1,0],[0.25,1,0],[0.5,1,0],[0.75,1,0],[1,1,0],[0,0.25,0],[0,0.5,0],[0,0.75,0],[1,0.25,0],[1,0.5,0],[1,0.75,0]];points=[[0,0,0],[0.25,0,0],[0.5,0,0],[0.75,0,0],[1,0,0],[0,1,0],[0.25,1,0],[0.5,1,0],[0.75,1,0],[1,1,0],[0,0.25,0],[0,0.5,0],[0,0.75,0],[1,0.25,0],[1,0.5,0],[1,0.75,0]];outlineConnect=0;fontColor=#232F3E;fillColor=#E7157B;strokeColor=#ffffff;dashed=0;verticalLabelPosition=bottom;verticalAlign=top;align=center;html=1;fontSize=12;fontStyle=0;aspect=fixed;shape=mxgraph.aws4.resourceIcon;resIcon=mxgraph.aws4.managed_service_for_grafana;" parent="7ZJDLdGAsnnBcBrR-Syd-94" vertex="1">
          <mxGeometry x="6" y="-10" width="50" height="50" as="geometry" />
        </mxCell>
        <mxCell id="7ZJDLdGAsnnBcBrR-Syd-95" value="Grafana" style="text;html=1;align=center;verticalAlign=middle;whiteSpace=wrap;rounded=0;" parent="7ZJDLdGAsnnBcBrR-Syd-94" vertex="1">
          <mxGeometry x="1" y="40" width="60" height="30" as="geometry" />
        </mxCell>
        <mxCell id="7ZJDLdGAsnnBcBrR-Syd-101" value="" style="sketch=0;outlineConnect=0;fontColor=#232F3E;gradientColor=none;fillColor=#8C4FFF;strokeColor=none;dashed=0;verticalLabelPosition=bottom;verticalAlign=top;align=center;html=1;fontSize=12;fontStyle=0;aspect=fixed;pointerEvents=1;shape=mxgraph.aws4.opensearch_service_data_node;" parent="7ZJDLdGAsnnBcBrR-Syd-94" vertex="1">
          <mxGeometry x="7" y="80" width="58" height="58" as="geometry" />
        </mxCell>
        <mxCell id="7ZJDLdGAsnnBcBrR-Syd-102" value="OpenSearch" style="text;html=1;align=center;verticalAlign=middle;whiteSpace=wrap;rounded=0;" parent="7ZJDLdGAsnnBcBrR-Syd-94" vertex="1">
          <mxGeometry x="5" y="138" width="60" height="30" as="geometry" />
        </mxCell>
        <mxCell id="7ZJDLdGAsnnBcBrR-Syd-97" value="" style="endArrow=classic;html=1;rounded=0;edgeStyle=orthogonalEdgeStyle;entryX=0.25;entryY=1;entryDx=0;entryDy=0;exitX=1;exitY=0.25;exitDx=0;exitDy=0;" parent="1" target="7ZJDLdGAsnnBcBrR-Syd-2" edge="1" source="7ZJDLdGAsnnBcBrR-Syd-80">
          <mxGeometry width="50" height="50" relative="1" as="geometry">
            <mxPoint x="315.38" y="679" as="sourcePoint" />
            <mxPoint x="480" y="560" as="targetPoint" />
          </mxGeometry>
        </mxCell>
        <mxCell id="7ZJDLdGAsnnBcBrR-Syd-98" value="Real time" style="text;html=1;align=center;verticalAlign=middle;whiteSpace=wrap;rounded=0;" parent="1" vertex="1">
          <mxGeometry x="650" y="654.5" width="60" height="30" as="geometry" />
        </mxCell>
        <mxCell id="7ZJDLdGAsnnBcBrR-Syd-99" value="Batch" style="text;html=1;align=center;verticalAlign=middle;whiteSpace=wrap;rounded=0;" parent="1" vertex="1">
          <mxGeometry x="410" y="621" width="60" height="30" as="geometry" />
        </mxCell>
        <mxCell id="7ZJDLdGAsnnBcBrR-Syd-103" value="" style="endArrow=classic;html=1;rounded=0;entryX=-0.008;entryY=0.852;entryDx=0;entryDy=0;entryPerimeter=0;exitX=0.77;exitY=0.5;exitDx=0;exitDy=0;exitPerimeter=0;" parent="1" edge="1">
          <mxGeometry width="50" height="50" relative="1" as="geometry">
            <mxPoint x="316.2500000000001" y="475" as="sourcePoint" />
            <mxPoint x="450.14" y="475.072" as="targetPoint" />
          </mxGeometry>
        </mxCell>
        <mxCell id="sV7fbiSfHRUUF28fEZ7b-1" value="" style="outlineConnect=0;dashed=0;verticalLabelPosition=bottom;verticalAlign=top;align=center;html=1;shape=mxgraph.aws3.lambda_function;fillColor=#F58534;gradientColor=none;" vertex="1" parent="1">
          <mxGeometry x="200" y="621" width="31" height="33.5" as="geometry" />
        </mxCell>
        <mxCell id="sV7fbiSfHRUUF28fEZ7b-2" value="Bootstrap server, Topic and port" style="text;html=1;align=center;verticalAlign=middle;whiteSpace=wrap;rounded=0;" vertex="1" parent="1">
          <mxGeometry x="93" y="676" width="160" height="30" as="geometry" />
        </mxCell>
        <mxCell id="sV7fbiSfHRUUF28fEZ7b-3" value="" style="aspect=fixed;sketch=0;html=1;dashed=0;whitespace=wrap;verticalLabelPosition=bottom;verticalAlign=top;fillColor=#2875E2;strokeColor=#ffffff;points=[[0.005,0.63,0],[0.1,0.2,0],[0.9,0.2,0],[0.5,0,0],[0.995,0.63,0],[0.72,0.99,0],[0.5,1,0],[0.28,0.99,0]];shape=mxgraph.kubernetes.icon2;kubernetesLabel=1;prIcon=api" vertex="1" parent="1">
          <mxGeometry x="30" y="516" width="50" height="48" as="geometry" />
        </mxCell>
        <mxCell id="7ZJDLdGAsnnBcBrR-Syd-58" value="" style="group" parent="1" vertex="1" connectable="0">
          <mxGeometry x="30" y="721" width="72.9" height="104" as="geometry" />
        </mxCell>
        <mxCell id="7ZJDLdGAsnnBcBrR-Syd-59" value="" style="shape=image;verticalLabelPosition=bottom;labelBackgroundColor=default;verticalAlign=top;aspect=fixed;imageAspect=0;image=data:image/png,iVBORw0KGgoAAAANSUhEUgAAAUQAAAGQCAYAAADWRRn/AAAAAXNSR0IArs4c6QAAAARnQU1BAACxjwv8YQUAAAAJcEhZcwAAFiUAABYlAUlSJPAAAGIySURBVHhe7Z0JgCRVff9/M90zs/cBy4rccql4RpKo8UJ0FRHFC0EuNRqMEf/eeBuj8Y5oQrzAW7xiVBSPRGMQBRHFG0QhwHLtLnvNzO7c08f/93lVv57anu6ZnqOnq7p/n93fVHUdr169eu9bv1fv1auusiKO4ziOdMdTx3GcjscF0XEcJ8YF0XEcJ8YF0XEcJ8YF0XEcJ8YF0XEcJ8YF0XEcJ8YF0XEcJ8YF0XEcJ8YF0XEcJ8YF0XEcJ8YF0XEcJ8YF0XEcJ8YF0XEcJ8YF0XEcJ8YF0XEcJ8YF0XEcJ8YF0XEcJ8YF0XEcJ8YF0XEcJ8Y/MuU4i0i94tTV1RXPOWnGPUTHcZwYF0THcZwYrzI7TgOMjY3JzTffXLPqSxFatmyZHHnkkWF9rW28ypwNXBAdpwHuvPNOOfHEE2s+I2TZYx/7WLn44oulp6en5jYuiNnAq8yO0wCIXKFQkP3220/Wr18fpma5XK6uZ7hYuN+yNLggOs4sIEaI3fDwcKg6j46Ohik2Pj4efoMJoolj0hbKYoThzI5XmR1nFigid911lxx//PFy4IEHSqlUku7uyJdAqHbv3i2bNm2SSy65JHiLzWDv3r1y2223xb/SBelz73vfWzZu3BgvyS4uiI4zC2kQxGuvvVYe//jHp8pTtLhMTEzI5z//eTnjjDPC7yzjgug4szCbIA4ODoYGl2YK4m9/+9sgOLRmpwHOmzTI5/Mhbl/5ylfkmc98Zrw2u/gzRMdZIDxbbDaIMM8qeWaZBiMuIyMjYdpOPpV7iI4zC4jRjh075IILLpC1a9eG31ZdZErjynHHHScvf/nLm+Yh/uY3v5HnPve5smLFivCbYpuMQ5LFLtLJ8C1s0oB5uhndcMMN8tWvfrUtPEQXxBZD8ldnaKi+LLW2cZYGrkWxWKyIQD0QB6tKLzYmiMuXL6/EgzzB8ZLHZPls8ZwLdgwgTDNgHed8/fXXt40gepU5BSQzWjLDOekBz4/nZQgAxny1pQFEyuK6WIYgdsoN2T3ERcKSca4ZZzYBTIbXKZkyrcxWVJp5fWbyEBFAnmPas8ykx7hQ7Jy5CfC4gM7pHN9Est08xFQJ4t133y233357SORWR4sLf8ghhwSrl8FuueUW2blzZ6UgJKdkmvvc5z5ywAEHhGVg52TreTd2YGCgsl+SyclJud/97hcyYfIOXWtbZ+mYLV826/rMJIhDQ0PysIc9LBge3WLCsRBcRI+uPxzPljHvgthEvvzlL8s555wTHhy3Olq0oH3961+XZzzjGfGSfSF+b3rTm+Siiy4KmZDMiYgCv+mb9e1vf7vSd8zOxwoM27761a+Wz372szUFt7e3V773ve+Frh5g+9nU6SxmEsTNmzfLu971LnnZy14Wli1WHuEYGMf40pe+JG94wxvCDdqODe0miC1/hmiJjvX19QUxwTNi5JCkHXXUUUtiRx99tBx77LEhPibMWC3IKHiBxxxzTJhaPO973/uGfegzxjZkYMvE1WHZMZPG+bMfd+FkBl+sjO7MH7uG9awVWN5iao0/yfw2X0uGjZH/yJftnA9T16hCwnNRk2YXGsOzojq52Ea4dgzLDLNhcWXf5P6El4RMZAJnGcoyFdvTrwuPEmOesJx0YteunrWSpFgl45KMX3J5I8x1+6yTOkFMYhcD4TFRtDtVM6wVJI9fLZaO4ywtqRZE89RMLDBIeoyLZYQJHNOOuxTYuSSnFhfHcZaWTAgimCjyEBej0WExzfpbmZfWKObR2b5z3Z9qNMdOTjHHcZae1AoiomIihedEq++ePXtk165dYXSRZhrHaMRTZL3tQ/cZ4sfU9m+E/v7+sD3ddzCbdxxn6Wl5t5vk4b/5zW/K8573PHngAx8YGiYQRdbTyMD7onRhoa/VUkADB0M6PeABD6jp8RGvK664Qv74xz8G0TZYjoDD0572tND6zDKqwUnvkd9XXXWV/O53v9snDcDOm24M9IO0ZU7nMlO3m1tvvVXe/e53y/nnnx9vHWF5hukdd9wRDKrzG78PO+wwOfzww+MlU1i+pdsN3czWrVu3zyMd74e4yCQPXy2IBvMI1Dvf+c6wfqkwYVoMMSKcalFE6JO/q2F7qs+LFQcnuyxEEIE+raeffnoQsCTsT83mve99b+gXW43lWfoIv/GNb2x7QUz1M0QDUeDiciGYNstqUW/5XCEcMlYSeySQjIMZ2Pb223HmQtLZIC9t2LAh1DgOPvjgiuEVIrKrV6+Ot+xsUiuIXEwz+40wIIrNsmqq47BQTOxqHasWLoTOYmF5vDovs4x8Zo95ZiKZHxezXKSJTHiIXAhLfOabZfWYad18qPYUa7HYx3Q6G6tlgYlZUtTmm99s/3YhE4KYpPpiLqbVY6Z1C6U6DmaOsxhYXkLwrJ9rdV6zbWrRaTfmzAniTHDxMDyw+VgtLMxmYeFXm9NZzCZMCwUxxEvk/XrGDDCjUWSu+a2Z8Ww1mRPEauEwM0Fr9PlcLWqF6zjNIiksNt8ssSFcPmXKpxAw6/e6ffv20INjNjqlLKS22031RWLwS7rdnHnmmfGSfeGCMTAC/RXtTQ8XNCftkP8x897q3Yjn0+3GYDu2ufLKK+uGf+ihh4YvB1Zjx+GrenS7YfivZAMMHqZ/U2URSR5+IYII9KfiLmhwIWudXq0M4TitAoFZtWpV6ONX79HNQgUR6PeabFxpBI7DMawfYrsLYttUmQ3LLFBLDB2nVZAfqw2q87EtXywsPPq9JsuKM53MCWI9uNDJjGaZIJnZzBwnLZBPuYnjdSXzbCuoLietikcraRtBrEdSIC3DOU47M5Ow1VpnVguWd1K56QhB5O5rVWkXRaedqRa5apsP890vi7S9IHIxeZDMg2F7YG3C6Oa2FGY0U1iqj+XMj7YXRLCMaJkGb9HNbSksmd+YJy82UxibFbZ1ZWt3Mtft5qyzzoqXTIfBWQcHByuZDrPwuaC0snlLm9MKRkdHgyha3kvmex7prFy5Uvbbb795dbvZtm1bWEe3l2YJ149+9CO59NJLZc2aNW3d7aZjBJELR18vMlS9TOc4zYL8Sz9ZE0UTNKaNCuJpp50W8m+yzBAG+5Dv+WC9hbuYECaf2TjwwAP38XYxyhWDJHs/xAxBBqFTqmUepm5uS2m8N1wtZHPFwiIPJw3oMM34hrxxwpiHTBfLCO+AAw4IZSjZPQgQx3ai7QVxPhnPcZpNUlQaxbyypJnHhlBhjC5vI8wvliVF0BwKo93Kl9cdHSdDmJdYbUmqRXOhlqwi23y74oLoOBnCPMJqS1JLMBdi5hUypdEGS65rJ1wQHWfRwHNqnveEAJkg1bKkYFmPisWwZPjEAZhvNzGEVLQyYyR0M1qZk6xfv15WrFgxbbkxrsZRud9aorTXExJnsSF/IAt8y66vqDmnW5fUyF+FiUm5Z/v2kNe7dZuo2OlU/zXSyvzLX/5STjrppNDau9TUKy8GYyp+4QtfCGU366RGEOGyyy5rqSD+cmCP3DU+LsXufMio0NXS1HFSScgUpSBn3DpzausmC3LCAfeiw6uuny5qhcnJIBzk9ZD/yPM6Lem+jQgifQ2vu+66+Ff6OO644+TII4+Mf2UXF8QE/7z1brmWrgU5FcTWJouTZroQQ6aRIPaUS3KsCuI/H34f6VN5lPLiCyLbpLmKynNMqtVZJ70p3AL6yjlZUc7L8lK3LNf55Zqx3dyStkytT62n3CX5Upfk1ETzi+i0D5ls0n00zWKTdGqyTuoE0Tw77jjcFc3sdzPp00y+XDP2cs3Yy/X6LtffK9zcpll3ZOoNYr26LMeD55JmmiYKg5WNtBmeazt4h5CqV/d+//vfh1eANmzYEJaT2Abvgj7xiU+Uhz/84fGS6Sy0ynzhlnvk11r1mcx36/F1f13WpdUhaGkiOSmCnBDlBs0iSkl1sCxHT0zIe+9zhP5WH6NrujgstMqcdqrLa1ZpuSCCRYHpbNGZ6U60YEHcul1+VShIIWeCWJbuRNwcJ9BFkxv/onlqL0dNTsj7jnBBzDqpSX0S01zvmWzpmBJCF0OnJuiaWfzbyTapEMQ03VlCTBBAcjjPhBynBuSMfYyMY9aBtIN3CNn0z5uIO4POXDFRdLKPC+I0oqwdqsphznHqE/JIB3uG7YYLouPMExNDv3G2Dy6IMxE3qNSzkv/rzH9l2ob5p1PNBy6J7YML4jyxlsWoYPi/zvrntCsuiI7jODEuiI7jODEuiI5izaSJptKqn47TCbggth1T4lbGeD1MrdjdHazUFU0LahM5naoVGbBUt5naM6acDM1x2h8XxLYkErii2oTaqKrZ3nJZ9pRERlUIh1QAB/TK786LDKogjiKKua6QGXIqgt0IIVP9zTzmOJ2AC2LWid23yju1waK20NUMOlAoyybJyd+tXCNv2nCAvO2Ae8m773WQ/NPaA+R1PWvkOcWc3G9sUmRiQiY0N5RULE0EGeqvwDKdOk4n4IKYZRA/nYRvwOg8wlXUX7lyUQ6ZnJDj8z3yVBXB5xx8bzll/Rp5fF+vPEKrzH+pOzy2t1dOWbdaTj9oo5x28KFywvJVcsjIqCwrTMokY2gggupdUt0OVW+15L9oA8dpL1wQs4rqEWJoXiFiiJXLJdmvp1vO2rhRXqz2xGV9cmihJCvUwmAVoS5cllK+LJM6v1ZD+Rvd7xXrNsgrDjpCjunJy2ifhqM5o0ur2Tk9EGIYCaBKIQer/Hac9sIFMaPEuhamkTSV9WKW5C+6u+VV9zpYjlePb2VOxSxXlmK+K1hZPT+EDk1j3z7VSJ4Z8hkQUYE8tKdLzj3oUHnamP4uFaTAPvH2jtMJuCBmjYo4xZVXFTQ0TRVMjp0sy5M2bJRjdZtcsaCLSlqFnnqzwrzJJPykys1nQXrVszxMF5x6yKHy4Hyf9I1OiIYSeZ5sXAkonoa9a5njZBMXxCyhWoMWmR516e8giqqKPaWinHngofJXfct0fVGvbCROOVVAvMApTzIihBOHF5brDC3ScC+df+6Gg+TI7l4p6kaFsJ0u5L1drXZX/oXtq81xsosLYsaIxhLgT+TZjReLsmZiUp6wao0c05eT/PiEdIVmYTUVLJOosER3w6phUUlX8G2QSTWGtD8qL/KX69fLeg0vlsOK5NUKw3HaARfELIGg6YTRiRlvpaBV4slCQTZ2dcsJKoh9SGROt8D1i729oGQNEIml/lHrpuuNBvXQNSu1+t0dnjfGR9Ztoum0urfjtAEuiBkjyBGCqFVXGo2pGR/U0ydHF0p6MXWZLih3Jy5rA7oVwtSw8jqX1327c7q/Lry3Ln/Uho1TgqgiGPmcZo7TXrggZpCiChQeImK4PpeTA5b1RR/gUq+u1J2TSV1e1CuLExe0rAEQWbrY4CFSFWfPZTpz+MplkefoOB2AC2JWwCFT0ar0CdSqbJd6c8tVtPbrXRbW4TLiwSFfwdi0DnEoU8YOGob9ZhBUWKE/VpaiarO9AROHHoQyilHSFgmLVNIcp8m4IGaIIAmxKHarIOoP6SkUZFW+hzVhAxO0QB0NCdpSbRUiUQzohhxlTa43dFWkT2JYoOrYreumi+G0wBZAjXBcFJ0m44KYcXLqpfUknhmaIOLRsRQNqbZZYTtCibft0eo4XXsItBQeKOI9lsJxmoZX050W4IKYQSpCpJpRUE9xPK7eggli2Ga+mkJVGE9Up5P6c6SrGN6RjqrjeqxQVdZjNEOz4shzhHwuHy3jOGaO00RcEDNJLEhq4/lu6R/jXbsYFSvzDOcMXhkWUy6VZFynA6VxmVTRpRWbgyKW3eHobBRNFo9oQIk9hUkZGBsN/SKnosXBw0aO0xRcEDMJ6hAp0Ug+L7tUOALx4m4VsnmhQpQIWkUID7Ese8qTUgxV5WgFgsimUR08LJo3UVj4nnFAGmRRvd4/7douN6kNTNIxPCJ87ZAZF0WnSbggZoVYe6KW3UhEECQGgd01NiljRfXf6D8Yi1Y0VQHRzWazisBQ9Q7Vb91XjzPY2yO/3rk7tDL3lDX8eGO8tZLOE5PoKFM2VziNXE6rxz25MPbiPRMj8octd4RjTGpUtuzaLYOTk8EjtVcQ53Ugx2kAF8QsgUqoGoQGjliC+Lu1WJBrx8ekiCDSW5uF/DGhU6Kt41XV2ELCrwhkl9xSKMkvVZAQw2gYsGg50+jLxBFMkzYX6N7DGzfjpaLsHh+Vuwd3y6guC2KrajmucbproF+GCoXQ4Zx4VKLoOIuMC2ImSUiPiuPWnm75+lC/DATnbrpUVLzAGkoStBWC2IJuoLNj+udXu3bKncuXqRcarQlVVoz5hM0bDZfReCbUtg/vlc39u4IA5kOrdhRZPOA9KpCbB3bLjqG9ouop3ZyQHjiOluMsGi6IWSQWgyAIOs+Horarh/XDHTtlQMUxiBtKNRfRiAWInfj41I8nJuWG0dEgSHMIZc7ke/tkYGJc7hjsD515QrwhPiyHJ5MOFydlqwri9snxECeq0Ih582LmdCIuiFklFjzgveZCvkeuGtkjPxoYlJ1djASrUqHrTV/qklQUFdIh9c5+VyjKf92zTXZ0dYdqa3OInkFuHRyQu3bvCt17unn9UI9XKBa1Kh1XycN50tmnS0b17z0jQ9I/Pha2jyLvVWhn8XBBbAOQBERxy6rlcuXeAfn5nj2hOw6v9yFooZO2WvCoMPZRkbGngmgn7z8PqyD9YaIg39q6VW7R9aP6u9K9ZjHRIDkmfSjv0KrwaKkUqsnFYknPoxQcXI5afWQ8yL2FCdkyvCe0PhdDQJwHU10ZnU5gn5Zrx2kQLRdkv/ZgYGBABgcHo8IQW5L169fLihUrpi03Lty6XX41ORmqoPRcSYpGNZEDVlUKW4HGg3aUru4u6cnnpTw2LitUWI5ctkyesG4/+eu+Psnp74pihFO3OLO8S8ZUmLbrvp+/827ZqsK0p1CQYc69W+VQtycdFnyeqsSEQNoj0rvGxuT23TtjT4/lmuY0pnBcnd8nmlUwqMVqrWofsGK1rO/pFV5cJHTCZZq89k3L3ho8Y0iSD4j30Zpv/uWII/SA+Bi86LgvBV2/ffv2+Px0J+KlU5qPGH9y5cqVst9++0l34q2jJLfeeqt85zvfqbu+lUxMTMgjH/lIecQjHlFJ96zigpggu4LIGIbhqZpMauHikq5VgTtQT+IoFcSjVq2Sjb3LZI1us1K3z6tFHa6LslWF6c7hYblTp7f19KkQqrc4WQiFPKQh6hOyyMLOk4EhQlz1D/0m7x7oD63J3VZJ0dWkqcHmM5HXuK1QMTxg+UpZp+e4vDsXjlHUcyY9wug/StYFke2xn/70p/LsZz875N+0sWXLFvn4xz8uL3rRi+qWrazggpggk4IYg69HXKzXDYIyrvXkyXJR1uv8QV052ahnsz/el66kG8tuPb97VEgG9VwmVfjyWpDLGgDVVsghsmp8yW+h51lQ8e3uzUv/6KjctG2r5FYsD8ILDFQRrsgcD4FWr8j1yL1Xr5V7r1krBd7Y0XMLseXaNbNwatBLJYhcj+uuu06e8YxnyMaNG+M16eHGG2+UT33qU3LWWWel0oOdC9mOvVOFVps1Q/apyDFdpqV1ZVePCmNeblf1uE6v9g+kKP+j4vRzLZM36TYDOg2ttrptSavWvK4XhRTdChbrftmlN5lBrVrdMrBLyj09KhAqhhp0NGpPmA0iMxfwBIcLk3LP0B7Ztmcw9FMMgaioN1UMlxDOI3j/OjVxTINNqsAj5Ml0Xqy80kpcENsBzZPkSyyIGMtUABEbfK/wF89FjS8tT6pgFrRKWdCCxnvDhhW+yDOcWr4wCKdL+ifH5f/u2apVenyiePmCDxGJ9tD4mNzVvyt035nUBdEzSA28DQqoeZSIEDDfarN4tCMuiG0Gz9B4jsgUyLZcZF5769FFWE6NKrVlac3mUxk+iKFaJcPPTVTMSwj763++dzWh4npX/24ZZxEiHXuFHHcf5qtf+Vzo3L15x3YZ0XPP9/XFnu60I2QO0hFPrFAoTPPSWmVc43bwBmvhgtgOIG6xdWsBUj0LFxb/KTwHJfPyvEsXYmgVPpQZohG24YlWOTICjTSR5VjjhIKj+xBK//iI/Grr7TJSKEqO/pEKwVaOrVV1s2jN3C18X0YjO5FT4dUq+Y6hIU2DPKccnolmHUSxp6dH+lToe3t7U2EWF2u8ahe8USVBlhtV9oHTa1G0OGwkhl2yc3QoVGULecY1DAkWCKlfiV/tazF3IgHP64VZ1p2Tg9etl7V9y6S7FLW68whgUZNEj7WU3W6uuuoq2bRpUxDGtDGkN6DPfe5zcuaZZ2ZeIF0QE7SNILYQPDVG3dkxtCdUkyd1Hl8wdOOJxS/8rSRb7WsxP/i0gR5NrxutzwetWSdrly2TLhUc3EWu+6JdLY32Ugoi+9IX0RpY0sbq1avlmGOOcUFMEy6Iraeg1dZ7hvbK3UODUihq+mkBjqqtCEFU2EPqV5JtsQt3JDgcaXW+V+61anX4CFel69BiNRZpMEspiMCjiHp5N01kIY71qJ/6jjMnKARdsmt4WLYNR2JIgS8WGM8mEsalQW9hKjYIzXBhInTJ2T0xrhoVDxxGl5x4y6zhYth8XBBTSijUNE6oMZ9KRz7SwGAlzUkDKkA7R4ZkQkUnF38PBY+HVuWlbdxAFNUrC6KontnwHukfG5VCKKzRuiwWW8Qm7ZZ1XBBTCpkrPA/DEBW1ZHYzkWyZUGpk8Px4Xa6k1dBdKoT/179D9hYKQp/HUL3TqEUtyVFGY4rpbktALIr6Z1A9xC2D/dI/OkLChrXt0PrsLD4uiCmEIpsUwiB6rRK+mdCIMuIM7ybfNrBbyrxPrPHkX7Q+KeHJ+aWiS2vI5fDa4NDkhHqKQ2FQCZp3Qnx0XSti5aQXF8SUYt4fntY0MUyBNhKFklaFd44Ny93qffFhqImJyRDndEFVToU6lwvPFLfuGYiqz6wqR88bXRQdwwUxRcR+SxAbs271uqLvE3dJMRbJ1kuOel7q/e1k2P9dO2WYbi26rFurztFzpPRITHi2FXvafAphKG5o2aPV6CCFcUKnJ8ZOK/FuNwla3e3GYhVCjT0XxBAh3Ds8IntHhmXjhg16F9MtEpet3vk0j67QgHJT/zatJufVMyxIXgVn6gymCM8MZ6T5cY+SStNTD8WjCC7umt4+OXD1Wlnb0xtd59g1mDW6BsHoyTW7241tv3nzZrn00kvjpemCWswJJ5wgj33sY+Ml2cUFMcFSCWLto08t53k/YYfQ1esaGB+Te/TcxjVuB+63v+y/fIX07nPZdM96gS4CmpKVgg8DhclQTd6r0/Bp0rjQRlGYikvrxTAKP8riURy76Siuv7s1kVcxnuLKVeGNll5NZzu/WaMNGvRSv6nC8F9r166Nl7QW4gycC+MhfuITn5AXvOAFYVmWqZ36TtOhqFYbRGVXC6YW0HI+J3smJ+TOPf0yKEUZ1nJ258Bu2a2eIkN2Te2nO1HQKr8XFwothZ43UPieyS27tkv/2JgKC3HQf8Ql0pwoDixHKSoxqmfNJooU+hNESGGIs6KeS0Ej3D82Ilv3DMqe8XHpVnGcGnQinfDuMMKZBluzZk0QZ0QcKo1/GccFMUWQn0Km0sLLaDU857pLCywjuOC7ID7clxFFPrYUnimG5XEhblKGDC21GvSu0VG5ZW+/jGnc8j09SE0Qwtk9wZShYl1UDxHve6RclHuG4/EU9XxMFNMIecP6prba8BAx5k0I7aaTZVwQW0S1hpCnQt84LZB0ZeEZHe8Cj2hVi4aV8Eaw3oXJdHiHW7UKvXV0OHQ23icsgtDJYmVNvlMyqYq3Y3wkfANlXAtBTsVw32PYr8U6avMhLUlXbj4jhYJs4bvPw3jedCTnrZYsnU1rCDWD2OpV9bOGC2ILMAFjGkz/hLusZipaQulIfKeKId8iZjxBwHMJA7dq5qMQ85W8LYMDsnt0JIgifeuiSnMILOwT77oAaE0W2T02GkatGVNhDCKiwYd4VM4gycKPuhRoEQ7nQuwntAo9pkbr867hIfUcEcWoaGTjbFqDeazJadZxQWwRJiUYVVIEhmd1NKBsHR0K4wcicGQyqspQLvJRpmhbRJGuL7erUG0d3hsK9T4sUt7EY7qLgRpyuTCeYU6rm3zSFG82xF+jEj4glTni6ifnor9Cl5xSIQxMsUONxqJa1WfSHmtF4WckmeSYhK02hiLL5/PBO4xukNnHW5kTtKrbTRirT+O0p1iQ27ffI8NahaMBg5AjMWRYK/2tkQrdRliiKzk+4kSb5v4rV8q9Vq2RPrybEG/Qv9FMY7FUYQvH1GPgJfFmx/ahofCWR+iXokaaQJRtKkdpA6LzosfninyPHLBqtey/YlX43aU3GxpiwPJOaGTSJCEfLFUr84knnhgEKA2YbHAuY2Njcskll4Sv7mUdF8QES93tJiS9xoV3gfeoZ7h51/bwnRMe+IfiF3soYfv4MLViHuKptlEL8QGrVoUBUsOH6cNOuke802wxxdMLBVzjxAehbr1nm5TUC2BE6hBICLOdiW4kPEFc0auiuGKNrFu2THo0M+R78lLQGxZeZfCI6KbDP9JrCQRx1y6tCWzdGv9KH8T9oIMOin9lFxfEBEsmiLqLJTstnYMTY3Ln7l0yShsyBUIDD1W5OJ7JGmntmLM8EsUN6tUcqMLYp9Wrak9xtpiGAq7nPqjifKtWxScYz5B/CLPuXO/Y7UhOT5bvPm9cuUbutXyllIoT4fzxFIMg6gYI4VIJItvUW9dqOCesHT4nkM4UblMoUBhlgcLAU8K9Wh2lmsxH27WU6XrEOMpgbMj2jUCQbL1bq7l0yRlXRTdBBTt2XXRleB1vdET+tHWLFDQ6VNOjmweFF++Ro3QGDOc4rNdmx9Cg7BobkTJvDGma5kgT/WfPUJeKtIuN3eCzjgviEmFiFHWtUY9B5wcmx+WOndulmNfMHjK8iiRKRJGLC17jpU4LKSKLqO3dK/fs3SOj6lVEI7sgsNFWtQn+pfRPjMvdA7slp150e2TvhcGlQhTvVm95cHRUr1H0Tnl45qviGO4PZkuA1XrSZmn1XOeDC+I8QWYim/4vuXYfQ5V0Esbo43W8sVEZ1vkJlmsB4/kUaB6bN4gizyR3jgzLjuG9MokYhuNHpZa56gxM9Z9nl5t375BRjcPkRPQReUc9RU0xOm/fvXun7B0bk24VxUKhGK5l9Jw2Mqc9cEGcLxQGVZJqmyoiU8a/aFarwzrZU1SvY0+/jI5P6CKtJutyRCv8C2K17/5JY7tqqwYt49kWn+PcOrRHxkqxp4jwKhwnbKN/C1pV3zU+Ir/bekco/LmuvGaK0Euvzvl1HqTdqJ76lr2DslOrz5LP6zXT6xbSJLoyIUE7GDzFdsAFcQnAR6P6RYPFXhWgbXsGZKxYCAOXRs9eyExq885U1ftFQskzwR1afd42tDchiur16DwZmOr17sKE3DnQL+O6l/o8Yd9a/e86HV6ZHNZrxit+vMddVC88mezzvXJzgbwS+k6mxIiPWbtUmz3nLxG0Jg9NTsqd/btCp2sEEnFq5p01WX3erqI4rmIcHzYMHMGQ+rfu3C5jlVwQCeZSFO6sQZohikOFQhhklsYwOnPjNFuaOtnHu90kmEu3m3pYAYngONGx+idH5K7BXTJamNRfUfgMRcXGle0TVdK51E6jTevFM6pUM9zVhlWr5d4rVklXb176x0fl9sHdMqnLu3M5KU4WqCSr+T1yZugcL7JKq80Hrd9PlvX16KKSHDsxIR9sUrcb9vnzn/8cPgZfL+8uNcl4EP+TTjopjIeYdU/RBTHBQgVxXzFU9EdZq5/0M9y2tz9MUSdSPJ/rCRkpYPFpiiBGcC45tf1WqiD25GTn3sGpj8hzsuFcw5bR37lEoKMIGUPymt7LevJygOapVb29cr+xCbnw8FgQuxZPEK14Xn311fKc5zwnbJcGiBdvzXAut912m3zyk5+Us88+O/yuV76yQLblPKXQoIGelPLdMpHrktt3bZdhLRChAUWTPNedl0n9TVafWcYWj9AlR12b7SN7Q9eayZBpeR1QY6DGwBEmhs5MRGnEJ05H+BwBj0DUOwx9PsNNpIE0tE0bAHEpaDWdfoiIEIKYBkMMeZeZeUDUsyyEhgviIhOEUK2gQthfGJebdm2VUfUoKEDc7COjmop3RtnQS8BOjZaQelgYSasiCLB6rAgyP4JnyIxuGgaY0H06uTW5MSxtooaryUJRbr97iwyPR49Cwno2qTK7JOEamLGuAUwMgWkaLBmXdsIFcZGwzB0yunpiDK+/baBfRsZpv02gd9EoC+kOS35H5XhTRpcR8rPORRF3GiJ6uMCNjKqxihWPRfYOc+H1N+tmYJbVtbBqdFKQWm3tigviIhDd+aOcHrUmT8iW3btkaHwsPIsk/6QtCxFbM2euRN5hNKVvabdMFLnQ0dpmgDdvQ22lwaqptSyLuCACGVltPuJgYhi8LPUURsYnwmjWwxMTWg11uWlPoutq157vU+d6e8OyZsHzOZ7ZpcmWMRKQTolbuwiitzJDnAIf2rZdrptDK/OU3umMFoo9xUm5u39nGPE6FJbErhwyiGY1dURzLloaNq0VzfCy7b5UluhO1Wv92WFjWDKRj2gmmywU5BF9y+XrD3xIdDGmNzKHRrRkK3NyOlu3G7jyyitl06ZNqREeiz9M6M3/Yx/7mJx33nnh97TylSE6UhB1xZQ02dnr9MMqiL8szGX4r3heM+ne8XHZwqc5tbrMF90IP7knR6ydTWovrX3U+tQOBfYNKfmrWv9cEBujIoj6j9FvJjXP/FW+Vy57yMOiCzGTIJY0b2h+iQRFw2pQEEdGRmTbtm1h+zRC3NetWxfmXRBTQiOCuHyleoixfFQcKKZqH76nMUE0MQxDQHV3ha/jbRkalCEVRX7rrtERpu2a3YziTDEvQZwoqiDeEwnhPoIYfcGuWhCzWiyzLIbQHhX/JWTKiVKp1Mw7oB7h7bt3yHBhXFOzSzM3D9c1M2czPztOR+OCGFy9yGa7t0ViyB8epHeF8Qzv4tOc3OVjDeQGOVs4juOkk84WxDkol1WTgxiqDWk1+Y7+HTIuxeglf60+R1/PI0ldEh0ni3S0IAaBQ7tm0a/IM4yeJ/L5pz3qGTI2Hh+RtyG1AjZ1HCeTdJwgJnuiVAQR4uVM2IbFCGFJUwgZZElXLif9E6Oybe9AGFo+l8+HDrPBKwwPk+NAnM6GbFBtAfKImRKWJ343AI0tabR2oSM9RMt+++TVJLqQ1jIEMVSHWdDdJSOFQhjpun90WHhLi3wQVZHjbJ3xFjanmYQcElmociRtdqIbb9QBOk3Wbnm+I/shspyTZvAt5KybfjL64193bJdfFLQarCJHVXhSVxS6i9Jbir5TvHnXzjDyNBmBjIxQzi312ivzdCrRIxSuZp1uNzXcjMnJUqJjNp+MCA9bQh4qFguycuWKGbvd3HjjjfLRj350Wp5OC6eccoo8+clPjn9ll44WRHQwSBs/CiIfVkH8JcNyIYi6zYQK4ni+LONj43Lnjh0yXIzE0EYf4YPycyOdmdmZG60QxKuuukpOP/10Wb16dbwkPWzevFk+8YlPyAte8IJ4SXapcek6lJDJyYRR40mUVdVL1Iy5eUf83eRcVE2gr2FBxTHa3nGaD/kOkezr60ud4WC0w0fqwQUxAXdt/EaTubFx9Qzv3hK+b0wnbEYwLKkYFlUc2TK6ibsoOktDWitzaY3XfOhYQcQhNAvoTKnMhzixCblr727ZPDQgA6WiFPkWr150asisZVDXSB51J+pP5IeGTP+4Zd66yAiYLYN4stiY2NiUxpW0WTvR0R5iRQwBXdNMXlRPsF+F8Z6xERmYmJBxFbyCWqncLQXdiE93hqkaU7fONK7/pGrUhAoV8+ETAk0E4aFqStU5bVb9rD7LdGyjSrij2+o4BS68+y65ojAhfxgckEKRJ4jRMP/mBBrVv53OhbxEETq+1CWXP/ihUZ6q4WbMt1EFIWTZNddcEz7ixDZp4/rrr5dLLrlEzjnnnHhJdulsQazis7f9WX689S7Zq/PlomZYVb6QPXXbZEj7huo4IocVu+QDj31CJIaLLIjk15/97GfhM5/VeToNEMeLLrpIzj///HhJdmkbQeQkTBC7u8k0KmZkHv1vZ4ggrpxBEG+ZHJE9mh/DCMi6nu443Yntwmz68qOTAlZq/fmo/PJo6K8ZBVEFTkUvTPVfPUEEiqZ5iIyHuGvXrlQKIqxatSqUr6zTNoLIo91Breo24iGGinCts9bMJ3SvYd0+pn8IKmmOU8HyUz78rymItcZD1OXsNpsgWl5mHqrzdRpIxjvLtKUg4hmGfzUEkQFioyeDVYRU0Pt1nFGj3zHVFzt9+dFpNcn8UiN/TBdEhA7RQxAZIHbmjtlpozp+VtbSKNZzoT1kXeFEwqAMalRzbZpcblYTriNCSobEcgkL6xLmONXMlj9C5mOGDJjMhNW/swHCl7R2QUt7hrG8FBt5zsSwkj9ZplPMfmcw/zmZJ854NUXRSQvZFsSK6oVfFaxbTLVVqNrecRwHsi2IMYjdhIrceD62XGJebSwxndAz5i1kx3GcatLVqFLYq2o1pgo3xyjh8eX0z8Bg3KgSVZDpfpMMaRXdAlas0PB126jBrrOo5SYzsGN4xqDWu0ZvkXrXcBaduX6XOU3Fci5k/XliSwXRDswwWrwfmrvq89L/46/J+lUrpVxQP06jhnbNDn0O8zI2NCbjoxOSD4U6EsNgGkY4VvwAGAvZLp7vDCwRQmpJuVjWNFNXutinSyakuDov5dNfJyPrDtynsDqLBx90B0tby3uNCOINN9wgH/jAByrr08TY2Fh4i+YpT3lKKuM3F1IiiPpHLf+9C2X75R+XdXn9wcvzMItesZVmLenq7pG9I2MyOj4RhvrX4h6tj3WgIoodDYmpaaWJEQlit96IlumycZlUQdz/FZ+W4XWHVToDkzVamD06AkSxEUG87rrr5NnPfnZqx0P8yEc+Is9//vMz72CkQs55sSTkA6229ZYnpLcwKr0lbEx6tQo9k/Vhul2Pbp8vj0pOrUvG9MSYutW1rpHIZEjTfa/OD+s1iLwWy9RMKaBui2MG85a2jYJAUu3O5/Ops0KhEMZDtI7jWSYVgmgjKfGnq1urcT29UtZqb0mrdI1YWU3dQj2ZyHJlm8/rvFpy2tHGP0sljBGfo7fNcnozMo/QvJPkb7eFm1FrWSOwPd5kqw3hw+ZzDmknFYKoqcp/VUZN5GJB9JZDXV4j16DptmwfqsV4N8HDCS5n+E2VOhqeyY1kTj5GYK6rK76zh4sQYZndbfHMsPnkskYxD76VZvFoR1IhiLQG80IIf3JUI0JihyLbuIXBXSEWQFvDH6gs6HCDkCiaRuG3/tGZoIkh3dVCxqda57aYpn/UpubDNE5vLJlvq2mH6mgW4Iq0AZqVEETNSTQUlINLr669uvdlrBCb/e5kU++7ZC34OgnFsFiSbjpnqstIsSsz1bRkPJbgYbstiiGGQfji+cq66CoEq4c1dNV6htdqaydS0cpMDEJXuO/+i+z99kdkNaWTUWcahXyk+49MlGS8oGKoP0OBtgM4MWUpkdD6n25KCF+vFsyu0ogUV62U/Mu/KHv2OzIqfBRY/oXsgTcTheAsPqTxypXR8FmhphQtjGc09TXxr776ajnxxBPjJenj05/+tJxxxhmZ/9hU+wiiYp5NeL7hJXgapHc5NJ4woyVP06uHxCtGgph7y/dlfP1Rup6RWCiZbAiels2GFM7lc6HHRaBKEIeGhsKYiGkVHDxFugTNpeU8jbSHIELwfOIQvfzOQJyu6iEGUYTiqMjqVSJv+5GU1h8ZXQ9Pw5Zgyc7UiiaCSOsu07QITj3ZCM5Ihsm2nCfh+qhxnfhUqFtt460gvhcT5nVaebbAM8S4OCbzNLNuS2f1wDNMk/eF8NWyrJNRD3GGKFdyVvYvTvMg/bo13XOa7prOeIirVov80/9Ked0R0SZOy6jkXMvmnpWXjOx5iEE5mdYxICOhsm7TjPuf/ayk0yzUSma35lmFaQucZtM+VWZnjswuhI7TabggOo7jxGTvGSIbOvNmKvW0LlbOa3JqWpfGZnyGuFS1tvHxyXjOyRo0+uTz2fevXBA7jKnUS58gPuPUZ8ZzTpYYGx+Xl7zkJfLMZ54aL8kuLogdxlTqpUcQuf6jI2PymMc8RoZHhtui+0a7g2xwnfAMb775Zrnkkkvk3HPPjtdmFxfEDmMq9VIiiBohukHyJsbJTzlZ9uzdI3xX20k3JS20XKdcPi/XX3+9fPKTn5RzzjkrXptdvFHFSQXcl0t6E+Q96qJb6o0BVGyKR8P1w7HJOi6ITuuhIFlh0mlUuNxSbVOXK7KwPCzKNC6IjdAGFzrVaA25qzt+/SuMjZkL42K6pdeoLptx3XitsDIwRYZxQWwEveDBc7GnaeFWyF0ymkaWJLk8ac404iQNhapr32+QuKXfurBYFJv7sHlp8EaV2QiR65ZSd5+Ue1dIbmRAbyO6bHJMxvtyISPkSnrXLFnJVplUmx5N1rc+x0xFS+OSgkYVktdy4EMf8lC5e8vdoaA52YHnvh+68EI599xz0pDFF4QL4myEEisysnyjrHjG80UGRmXXH34hXVtvlnWT/erVaDw1TgU+f6C5QRM03rEaF8RahOSNIzUwoDcbJeNlqiPJ9/TI6tUr41/ZxQWxEYpdsnPlYbLhJf8ocsxjRHbeLvLHq0R+9HUZvfsmWb6sJGNdfAq1HEQxVLGnwbLWF/Wp1NO4pEgQLcnCpPXJ5HQoXjeZjaAgXdLD51HzfZpiy6V04P1FHn2OlF91sRRPe53sWHesLJtYLrlCXsWTHRDzKelxZqYihkxdDJ0W4oI4GxRQFUM+0BTmSyWZ1OlE3zIpbjhMVm06Vw546ftFnvk62X7E38jOvv3jnbxkO07WcEFsFF6nGJ9QD7AYPtlpklfoXSkThz5UJp96nmx8xXtkw1NfJHcvP0QGevZT4VyujqJuFar/1fVCx3HShgvibISab/ggZzTPUO6xoKF16jtKb3cp+ljT6sNFTnqZbHzLt2T5ppdL14YHiExqEvPZT0JAEMPOakwcx0kVLoizghDiEmJ4eZpkFTFDIWMLOpeXUvcyye1/sPSdfLbk/+E9Iqf/o+w85HGyS9aFx4vh+7sII+G0Q09Wx2kjvJV5NuLkGew7WNa+5J9F7vdkoe2Epd1SDF0STdZoY2Y5XRILOmV5X2lSZNdmkau/LGP/9RlZltMtSnp+3d1SKhSW/I4UnQ1o7FLSygylUlmGh4b091QMnRTDTZ1LpRP6IS5fvlyWLeuN1mUYF8TZCMlTVkE8RAXx3SqImxoSRCrJWF4LevfmWyR/3Vdl5KovyvLJvSS6np5Ww3t6pVxU6dTfzRSdJFOpR4ZOjyDu3bNXzjn3XNkzOBgGDXDSDZ3nkQ5eTBgfH5dXvfKV8pzTTuM+n2lcEGcjJE9JBfHQWQWRuYJWhfEOl02MiGz7k8gPvyL9v7lC+goD0lMeV8ks6FbxHpqZEMelZOpo6RPEpzzlKTK4Z0/46Hl4FcxJLRMTE5VPo/7xj38Mw3+de87Zzc0sS4A/Q2wECq0pCToSz9LUUtSCWwjGkjHJj22XZbdeK2P/+SHZ/uHXSeHnl8n68TtlRXGP9CCgcY6hvIeGGqcCqVGYLEih4JZqm5z61EOJ7mh64RBHvvndQv9qUXBBnA2UK1xjhCwSM3xXFpU0+fD3SmHJuExu+ZMMf/8SmbjkFbLsfy+SjUN/knxOM093j5QxE0P+EEC2886ik/XC5GQfF8RGUAULYzdgmmI8G8RC1bg0Ib07bpb8Z98pYx/8e+n9709K7667dFutV4NWk8tdxSCbmFOf6HbhOK3DBbER1EukakwfRPpnrygXZfnkDll504+l8I33y85/faWM/eJbsnrvFukpjKgIqlzq5uVg5gpWm+NklXi4rzDbXrcxF8RG0IuOuIl6et3je0Tu+K3s/OJ7ZfIzr5L8Dz8sG7ZdIznpl2KuW0q5ZVo9zqmpN0jfxWm4GNaDEVPyPXnpybul2vQa9fb2Sq9erz6dtpNr763MsxEudlmG8vvLqme9UGTHLtn9s+/L6omdkldPMLQYE1dcx/j2EsSzin2jHdQ1ml1ipqJBvNPVyvzETZtkx44dyUg6KQXHMAwOq/+KpaJceOGFcuqpp+ryqCtOVnFBbAT19HgvudS7WsZH9sqaHH0Hx9W6Vfxy0SZxNRkQxKlo1sscrck0U6mnx0+BIFqExicmZHR01BtWMkLIEyp8Jn60Mq9csSL63dQM01xcEGeF42Fc5XpXOrmNzmkco2jOtE9rCNEKaLzSIIhO24CUZL3/qD9DXHTobO0S4nQeWRdDcEFsiEYudHIb5l0UHSdruCDOionbTAJXa5vZ9nEcJ224IDqO48S4IDqZggf3bum1rOOtzB3GVOppdT5lrczbtm2L52pjWbUdCl47USwWZdWqVbJmzZrQsJLl72q7IHYYU6mXPkHctGmTDA0NhQLmZIfJyUm54IIL5PTTT8+0GIILYocxlXqtF0TLengVIyMj8qQnPUkGBwelp6cnLK9HC7OsU4Mbb7xRLr74YjnnnHMy3/XGBbHDmEq99Agi8JbKiSeeKMPDw2FI+nq0Q1+3duPmm28OA8SeffbZmb8+3qjitByEEaO6hRgy5VWwamM5Bc6t9dauuCA6LcMKlokhxvc5+M1zxGpDLGstd1t6s5sY1k64IDotxwQRweP5YT0PEeN7K7WWuy2t2Q0MaydcEJ2WkqyGIYYYwlhtSW8kuY9bOqxdcEF0UgGFin5sfN+3r68vGoA0YSaWeIhu6bL73//+snbt2vhKZpvUtDLzOU/57gdl6NsfkVW0MqtXMB3dKDRHxz+dOWNpHhIxJf0QzQOk6w3CmPQGk5gn0k4eSbtANZqbWdZJjyCif9/9UCyIDMCqBTVgmZ+t1VwQF4SleUjElAiiCSBCN5vYtTC7OrPQDjeq1FSZoyEEczrDCNRxwlbSNymE+ocywZD9bnMzRCcICvOJ5E0BPJxvpECZaLqlz9qBlgtiKJ6alqGC3NUtxW79gZG+XVqV0upzMOaDsaFGm6H73eZm3HAqU7v0IaGj2RbRLoXJyT4p8BCRQmQxIvr+MdXleLl5hhSacCfSKNPUX13Y3Wa37mjaFX7zPRhNVxLXBclxAi0XxC4VvS4pxhHRaZnPv0+EeTSxq6RVqWJepzzv6lWNtMIdC6Nb48bNpGKxEAZvXM2fzTkOj5RaXRJoQNEoFHpEvnOhFL79b5LPDakYIowoItELFWqd50/sMUZ/nPlil50pDSvL14u862dSWnfUtJT1lHY6hRQIohbGolpBvb6fXya7f/ZtWdk9FhVSe24YvMioYHarQKp/4yyQymWPp+N9q2Xliz4kpdUHht9JEWymIFo8eI7IIAH2lkrLs6XTMIVCQTZs2CDr1+tNNeOkQBBV8EpFKVBDjt9KACSwhIXnW1HFuqzz/KOKF1q22LCZpbUDmOrFVJaeXJfkqE2H39OnzYIsyCg3p5xyivT394dry/uyTjZgPMS3ve1tcsYZZ0TlUi2rpEAQgSjExTIRncgvjAhL7af+SEGk2wNNyDjlww2HR4owlfL7zi82XG9ugiaIjIeYiizpNMyf/vQnueSSS+T5z39+vCS7pKL2Sf63gsHULIyJGFsXpuuD6bxWqtwWw3gEESzKDIhfMwWwFngUXG+8wuo84JZ+M9rBq0+FIJqbbZ1zZzIbYaPWOreFWnxBlhA7NpgY2m8nO7TLNUtd+4QVkHrmtD9203NLr7VrWUydIDqdB14ho6bQugxWdXZLryWryu1EShpVnE4GAaSl8qSTTpJdu3YFcfSqc3a44YYbwjdVzjrrrMpNLau4IDoth35siOJLXvKS0O3GBTFbDAwMyGtf+9rw1UQXRMdZIAgi1TCmgCA62YKbF9ct6zcxF0Sn5eAdkg3xLtwrdFqJC6LTcuwhvbVe8htcHLOHe4iOs0CqBdAFMZtwvVwQnVTAZcxqZqwWQMuSLojZwwXRaQrVl6VaLJLMtA7SnkldENuHrF8z75idIhACs1qwnAxXbUlqLa8XnuM4++Ie4hJBMm/evFmGhob26auFd2SX4D73uY+sWrWqpoCx3U033VTpmlINAnjf+943fLu4FuzPeIMzvYB/3HHHxXNLi3mIN954Y5ja+VeLfTvCuWJ81/jQQw+Nl2aXrF8zF8QlAiG64IIL5PLLL5/mvdkluOKKK+SQQw4J89VMTEzIi1/8YrnmmmviJVOwP2FeffXVYaBO5qsz5vj4uJxzzjnyhz/8YR8RTnLddb+WNWtWxb+WDovPYx7zGNmxY0fN+LcrnDfnz7VhTMGsYtfL8mJW8SrzEoIo8mrasmXLpLe3t2J9fX2V9fUgo2Fss3r16uBJ2nTNmjXBM6RgVYdh+5khjBwf48PiSZuYGI/3WnoYD5GCRFpwLpilDVNb1m5Guu/cubPiJWcV8hZk/UbmgrhELDSj2P5UmXnvt5ZBI8cxjyw5bSW14mzxQuAtnu1oSUiHLFs74IKYMch41oHZ5s3mghXGWgWzFbRLgXKyjQtixjABM8N7MmuU6jDMHKfTcUHMGOYZ1rJGMfFzMXScfXFBzBi1nh2azYWkCLZaEF2UnbTg3W6WCATrc5/7nFx77bWhdbgaGg9e//rXy0EHHRQv2Re63Vx00UWhLyEtr3iEyeeGhP/Wt75V9ttvv2mjxnCJ2f+DH/yg3HnnnaGFuRbvec/7dF1v/Kv5WNazKWPqdSLbtm2Tk08+Wc4+++x4idMqXBCXCGstnQ26YtSCfS2MpNhVV5VnGpOOLjesq33Ju6SvV8Ww8Zr3gqkWxLl6ue0E14XuRU5rcUHMELUuVT3xm4l6l3w+YS0Ei4dnwYi59hRwFh8XxIyRvFxLLWDNwLPfFO1wPbOO35Icx3FiXBAdx3FivMrsOI4T4x6i4zhOjAui4zhOjAui4zhOjAui4zhOjAui4zhOjAui4zhOjAui4zhOjAui4zhOjAui4zhOjAui4zhOjAui4zhOjAui4zhOjAui4zhOjAui4zhOjAui4zhOjAui4zhOjAui4zhOjAui4zhOjAui4zhOjAui4zhOjAui4zhOjAui4zhOjAui4zhOjAui4zhOjAui4zhOjAui4zhOjAui4zhOjAui4zhOjAui4zhOjAui4zhOjAui4zhOjAui4zhOjAui4zhOjAui4zhOjAui4zhOjAui4zhOjAui4zhOjAui4zhOjAui4zhOjAui4zhOjAui4zhOjAui4zhOjAui4zhOjAui4zhOjAui4zhOjAui4zhOjAui4zhOjAui4zhOjAui4zhOjAui4zhOjAui4zhOTFdZiec7hrmecldXVzznOE474x5iAyCgZo7jtC8uiHMkC6LoAu4sNp2Sp7zKXINaVeSFJtNSVbuT8awX52Rcktuw3B8PZI/qa7jYNJKP2oVUCOLevXtldHR0nwRev3695PP5+Fdtdu/eHabFYjFctJ6eHlmzZk2lYE9OTsrQ0FDYhvWFQkFWrVolK1asCMvqMT4+Lnv27Il/iZRKJVm7dq0sW7asbiYgfPbZsmWLbN26VQYHB6Wvr082bNgghx9+uOy///6Sy+Wm7T8xMRG2BY7DOXR3d4f5uVwa4rZ8+XIZHh4O8Z8N0ra3tzfsY9Q7N9KQcNmHNGS7devWhf3rwTXhvJgC+3I+pCPpwDzh2DnalPB37dold9xxh/T394dlq1evlgMPPFAOOOCAMF8dT/IORhikG+trpfVscL04JwsPLF4bN24M01qwDedJPmbK9QOOT3xZT3y4LpYfZ4Jt2Y+8MBtcF4srcCxspnNnHUY8uf7knWQ+rAVhcg1JI7ZPnmM7kQpB/O1vfysnnHBCKGSW8N/+9rflAQ94QLxFbd72trfJZz/72bDP2NiYPOEJT5BLL700rONC/fnPf5ZnPetZ4TcZZ2RkRE4//XR5//vfLytXrgzLa/G9731Pnv70p8t97nOfcOHJKD/+8Y/lfve73z4ZgMJHAb7tttvkq1/9qnzrW9+SP/3pT9MyCZn7tNNOkzPPPFMe/OAHV0SI7RB1BJMbgAkFmCAmL091uPxmPen2iU98Qv7mb/5GfvnLX8qzn/3sUJhmEkb24fwe9KAHyaMf/Wj5q7/6qyDe1ceAr33ta/LKV74yrKNA3HnnnXLjjTfKUUcdFW8xHdKbtL/99ttDupNOf/EXfyH/8R//UbkhEZ4JCHH91a9+JV/5ylfkM5/5TFjPuVl8mJJ2z3zmM0O4pBnpBaQ/8b/Xve4VRIltSb9kerIsOW9TtuP4xPF///d/5bjjjpOvf/3r8opXvCKcK/mKY/3P//xP3TxDGJzHueeeKz//+c/DPMJHGORR45vf/Kb8/d//fTj/5HWtBsHhXB/2sIfJX//1X8tDHvKQcG2S6cE8x7nyyivl7LPProga5zJT2BYGjgM3bvbnWDt27JDnPve5snPnzmBJ2J4ySb495JBD5KEPfWjIa4985CPDjYJ17UIqniFykbgzc5HwIGp5AbUoa0YkI+y3337hYlEA2I8pGQNjnoyMAJCxf/SjH4VMMFOmMYgLVg88wn/6p38KIosw45He9773lQc+8IFBzClcGJkGkaUwvOMd76h4PkB8yWR4P3iRZHwMj4jfxJs4MMVYx7YYAsBvMHHgnAmTbUmXWsY+bP/HP/5RvvzlL8trXvMa+du//dtQmBGupBjbtSEOxIdrRAGw480GHjn7IPjMJ+E4GB7h61//evm7v/u7kE5HHnlkEGrM0pJ0pdB+5CMfkTPOOCPcfBAEII7EhzhybsTT0pN04PgYxycvsI7tSD/S46CDDqrUNizfkY7kQ/Yjj82G7YfYEQ/z9MHWmahwTNKD7Zgmrw1xZpvf/OY34Sb3spe9LKTLTTfdVDnfJJw3x7FwmBIG50YeqrZ73/veYcp2pH3yOhKO1WrIs2akF9sTLzx3bpCvetWrQr7//Oc/H/J9u9CWjSpkQDP7DdztueCf/vSngwdjy+cDhfDf/u3fgjfBPAWBzEWGwdP59a9/HTI18yynICI2eL7ve9/7KmKDZ3TzzTcHL5ntzdjvnnvuCZnW4sn2119/fRAypr///e+DR4oHyzqoPif2pxqPR4fZvrfeemvI5BR2BA9v4TnPeU4IEyy8ZkG8KOAYN5Uf/vCHIS6IEGl13XXXhTSwtBgYGAjrEDX2oUBeffXVcWhRFZ19OD8zzpP9OBZpD9zE7NrgTXO+1157bWU9LCRfNILFh2v/hz/8IcTB7He/+124NoglRlrgZT/pSU8Ky2cCQSMdNm/ePC0/VRvnzDVm+2pYTvy2bdsW0tCMvIYoIpJcC7zqt771reHm1Oz8slS0j687C1wwhInMjid0+eWXhypC8g45FxCr//zP/wxiQtjcJQnrgx/8oBx//PFBbCzDI4BUQxBj7OKLL5anPOUp8rjHPS5keqqJ7JvMVMxzJ0bEmCeDkhk/97nPhTAoVCzHE2F62GGHxXtOwblu3749VN3wtgz2veuuu0L8iReeCzcLMvq73vUu+dSnPhXi1UyIG8fFIyQeHJsqH4YIkCZUFTlXqujceLhmnC/PzFhOXKmGE9ePfvSjYR3nZnAMwv7FL34RrhOF/y//8i9DFbMatsUbtPlmwvXiGIgzHi8eGb/JA5w/jwCINzdtbhIsx9P9wAc+IP/+7/8ezr0e5Mu3v/3tcuihh1Y81FqwjmPhLdaCWgyPeB772MfGS6Jn9t/5znfCoyiuHfvjjf6///f/wk35nHPOCemcafTitBy9Y5fVLS9roQ2mBaF8ww03xGvr85Y3v7l8zDHHlB/84AeXNQOU9QKWVTjiteWy3tHKWt0qP+xhDwtTrX5VjO21GqK17tI004te1gwT9tMCVNbCWlaPI6wz1Mssa7Wk/NCHPjTEWQtm+Wc/+1lZC10lHOaBfR/zmMeUVSjDsY866qjy0572tLLeYcP6WqiYllXIKuFrlbH8+Mc/PuxD2JynZsiwbTJepKWKYyXumnHLV1xxRSVOti+mHkD5vPPOKx988MEhfUj3o48+uqzewz7bX3bZZeX73//+IZ2JjwpzWQttfMTaDA0NldWrCedM2Mcdd1xZb0BhuYWrYh3SgnWkC9udcsop08JmWxXskOZsR3owVS+lrCJZCa+WveUtbykffvjhIWzOjTTluiQtuT184xvfKB9yyCHhfEn3E044IcS7HoShN8SyVuUr50Keecc73lEJk6l6UuHaEC7Xh2ujN7xwLZJxICzy5qmnnhriwXUh3R/96EeX9eZQCY/tuLZa5Q/5j+30plBWD3Cf8GYz4FqceOKJ4XoRPxXg8mc/+9l9tiOepMMPfvCDcI4ck2vBPscee2xDZTbttGWVuRruvnqu8a/ouQt32X/9138Nbv98oEqimaTikWiBCw/BNdNUjmXH1YIYGjrsORUezVVXXRWqc/VgXy1owXOzYyTv+OZRJM+rUQgH4zmTCkYIB++K4+HpUu1fCn76058GTxWvwjy/f/iHfwjPVJNwjsRXxTJ4kuaV82yLqjbxroWloa0nDEvLmWC/VsLxafDCA+Z6AOdAVZjqcz2aHW/Sj0dDmzZtCmXn//7v/0LeoSGL64H3mHU6QhANMhUXlUzGMxBajtWri9fODau2EiZTWhWpQhA+JIWK6oV6d6GKTuMFVbaXvOQlM1YvTPAQCubNjOrjJI/XKOyDwOjdPVTf+M25kMGbDY8T/uu//kuOOOKIcBPhXLkmPG5ICj3x4bxJQ9ZTRaNaSJWO9OY5YL2bGmGQTqQhYVanoTGftGsmxBmzRhDSgDiS16hGzwbbA/vUsoVCGFrjCVVq8gqPcrg+PJc0Ac8qHSOIZDCep9Flg3kKId4XDSxMaxWUmdAqQ8gElnl5UE+LrRVgMo1lZIzW5ne+851y/vnnB6O1medCMzHXOM0HiyNwHghHdWtwMyDNeRaFyBEHvGc8bJ7jWXyYJtOAuOFp070Fe8ELXiAnn3xyvHY6yXCSVguWL0V6NwpxIV0Qe4sXUzy02ah3jpAMy5hp+3qw/xOf+MRwUyKelAUasmbqy5gFOkYQKUxUyR71qEeFxgzuthR8+p7R8svvuWSME088MXRzQESARpQ3v/nN8uIXv1j++7//OzRWJO+WJjZJs31bBeeMh0zrJmnB+dOgQX/LZsOxMSAduFnxaIGClSysSVhHVw+qku95z3vCDYYqP6Jaj/kU9jRA3vn+978fPHcgv9D1iKp0PThXai7kcx7H1DI8a4waDUJmN0Smc4FrRPco8gv7Ej+6RSW7lGWRjhFEu+BcSPoD8jyGi0iVhG4ftOzNhYMPPlje+MY3hiqDFWL6OSIwr33ta0NfuQsuuCB06KWwU/iTBb1eoV9M7HkmmZRqJt0oMLrh8PznC1/4QvBWEXOqlWRoPK6ZOlwvFqSHFUbSgrgijK2+SSwVdr54xlwbbqDkE64NfQ5pUUb4eUTAoxXE7GlPe1p47lsP0pJrSVcYWnxnMrrKGOw3V4g74otRjriWXMf5PpNPCx0jiEloAKG7Aw+oubAI2oc//OGKx9IIXHyeBdINggYWMjYZi24STKk64CnSEEBVkOMhOEsJhQ6vgo69dMOgaw6GcOMF0hmaDE2cEUi85ze84Q0NVcsWAxNDuzkgyvMpnFkEAeEa8CyOa8KNmZss8zyOoRuRPbqgDyA32PPOOy+Iz0wgiIgSeY2bH2Jbbdz86XdK3rf0t2vQKMnt7ZoxNccjq3SkIHLRqHrRx4qH+wjiT37ykyBscwHBOemkk4KYcNclHDIFYbIOsUF8aQ1973vfK6eeemro45d897SZkGmJE622D3rQg8IrWvTt49Ur+u8hkgZCSNwoUM3M1NUFzzxCllcLZFqYT3wa2Yc8Qr9IGpLM+M314XEM+YgGi4suuijUYshPjcCbP5hVj6uNhpmFiGEtTBS5qWWZzApiKLTxhbSL0ShkADIad1zzCsmcH/rQh4JYNRqetQDzXIdqCp1pL7zwwiB8CBF3Yh46c1enxZDnNrzd8vGPfzzEn+PMZIsB4eAVINq8EUN1DEvGDb70pS8FT5JqWyMFpJF4JsNhO/tt82bAdKawDDtm0hYb4oJgWNhMLZ71SJ6LQR6oB2FyDBqWeAMkaVwbOz6NT3iL3FCpddS7WbGc41PlpuGJztLYy1/+8mnGcmotC8VuZknmUstKI5kVRAQMLCPMFfZjUINjjjkmiCDVRN6awOZTyHjOQ5WHPlr/8i//Err0MNAE4fKmBRnFvEYaBHjtzESxWZAuVI1e+MIXhqq9GX3I8Ai5KeCFAOLOWzU8F51rq3utc2BZMgx+JwsQ66rXE5dmpkejIGRcL+KSjE+tuCWX2fnZedUTL+BGxI2KhjhukjyyMeMaWF5hO/IWA5Jww64XJvHguDTCnHHG6eHZcC0xxBiog6q67TNf2Le6/M1WpU87mRVEMqxl2vmCWNFSSUGkVY/GBH6TURcCceL5Dw/BGUyCjExhMQGiuw2vVzG/kAw5GxRsvAq6R/C80+z5z39+GNCB0VeoplnHWp4l0mHcXhc0kvPEt5E0r94HWGY3AZYlBZLO6rM9kGdfOnLfcMMNIY54V3i+zfJKkvGud4zkNtV98Gbqk8e1oaGEUZW4JnQhMuM9bTo586iDWgVGCzwNdNzg6mFxKRYj0SR9axnbmSWv01yhNmF9VgmH/D1Ti38WSIUgcgc0j4+LVH3XqUWtTs1zvbgcg2drNC4gHJbxeZZGZ2WqlLWgEOL9MeQXdtlll00bMslAdJ/xjGeEd5fN86Lw84I9GaqZWBpSCGrBg3yq+LRcUujYnjjas1R+mxk2Xy0QpF0y/bmeSW8Gz4H15kFQeDB7nsojhSuuuGLG56sIDP036eRO1ynsec973qK3bNq5cK7El2m9PGnbJc+N36T5TI1TyWvCvsB+ti+PYfDked5HuByfRhJuAjORDKsehI/ZtvOBa0H1nniZ0Q2H97KzTCoEEY8Jj8oyHS22jOwx0wVjW7ZJPqfhrYe5QPhkDFrwqDpTsMh8TK3Fs1YceMZDx2DeNsF4JkM3nloQPgWDce1uueWWIOQsg0beOmg2dOug03gyHe++++59ChTXx4TK0qPe+Rpsb510CQvxJ43t3EkHhI0bCctId7Ynjepdd0SYbWioQjAQUW5ojTY2zIYdl87hpAfxZsqrjMS/VrwsnbiW3ChNQJnSmp9MxyT1ztFgPfvTCGY3K5bVq70kj1PvmAbhzHb82SA9GJ4Mj5DrgkByLWa6CWSBlgsiF4ZWWFo9mSdx6eyJlzbTK2RU7a655pqwrUEXk7nCMRFjhI1CbHfjmTDhxYukkFOAaKWu9posY7KcOzvPGJlHADA8pFbDuRKPZAGhACah6mbpjOfHeXzyk58M14dzrD5v4D1le3cbEAwGcbVWSNKZLklsQxh446SJve1TC8SArlJUNXncQAMCVf6kmC8GnC83Cs6VuOE1M95lrfMk3diGWgI3aKu5ECcEbSHYjSJ5bTjvapLrmw3HIv159smUc+ecSZsnP/nJ8VbZpeWCSOYn8zD6LomNUUB5XsJow3QfILGTRudnRqDmPVx+sz9eDGFwgWaDbaqNljn6f5H5ZwNB4L1k+nrhTXJ87pa89QIWphVsXmli+CrunhR8jsE+9YZeWmpI86QIVRcwzhcv0rbhPKjyM6wZBZSCa+Ap0GBEgeGZJDcZ0oKq1CMe8YgwDxyD9OYhP8/F2I/Cj/BQVSRcri3LAc+Q5654JixnW8Ki61Ty+AuFeDFgLJ4Z4s05I440atCXlOvNNsSBKdeS3gUvetGLwn52E8eLJYxGsXSpJnldoN52QFqx3h5XEL9GrBpbnqwlYeRdvGXexsIhsdcs2Y5zp6FmpvhlgVR8QoDMRRWMvnx4AeaNIIZ4Yw9/+MPDMqJKiy3jGXIRSHyEBe+Dh9E0FHC3souCV4bQUTC5mFTHeE2P1+5qQSsr2xMG4RIv9uWY9gkBg64rxJdMSAZkW6p/fAoBrxHRsGV4j8TRwiVTMUw+D9TrZSDC5E0XGmU4b37juRB/4sR+VlgsDKYIFc8sbYw9Xsv7wQ9+sM+4dkkQE0Zl5gbEjQiPjWH6EaUkPC+i76YVNgSJws+50m8OLxvxI614FmhvvxA+aYRAsr/FlXNinu15DkjrKOGyD8/K6I9n1WHixHNNvEOev7IfAslAGaRRvSozx6A7FF2KqNohsngxtOTWIhk3PFziRX9A89K4AdKXE+MasIxqMgNMcL6II8s5F27mZ5111j5hMp4jNwBu3pwn14Y8R2Me+SIJ27MvXbjYhvTlnF/96leH8S1ZT/5CmIgnz4H5zTVIvlI3E8SVmwz5mnMjHI7BeWB0Eue8DNbRSZywMeLMdtTwqDHQ8AN2zlmk5R4ikIA8E2JwVe46VNkoSFwMLgIFmhZRqiU22CcXA6PahBjyHI+CsZCLgcdC1ZmLPBMcg0yH10AGxMMhLnhSZHK8QV6L++IXvxjiTsYkAxFvRBlvghGQZ/JsyPBLBSIDFCgKHuLHPEbciQuPB8j0CD3nb9eH56nf/e53Q+MSYs2Iz3jubEehR8Re+MIXBvEHK+g2Jc3opsQNA+8P8WEZ4XK9GSiWIb6onlHoSUfW8UyWfpMU6sWGc6O2QXcY8hf5gePgKdLKzSg9XGPyJAJBnrUbIwJJlyZGH6/Oi9W/G4FjJqGFPYmFaVPSh5sMN2zyWj3jpsy70vXyOueLSFK7MeNGRWd+4kRe5lx5TPX5z38+iCFxmM85polUCCIZEKNKxV0UL4vCQQajgJj4MW+ix4N/4G7/pje9KRTkWlDw7E4528ViPQ0sVGU5Xj1RYjlxwevi9TwEGS8GcSQjmREnMigg7BRq+gHy1gGCUS98sMzFNgiTFbhGsX1mOgaQNngonA/7cB2o8uKFmxhixAWvDYHCK+R8uXHheVE4zLg+HBfh4HzxzvBoks8pLTybIm540Xi2CBDiSHwQVMJkynYcj3ARnEsuuSS0kluY9WB98riNwHYck9oCoxhxM6AGQ/oQL9YzJa2IF7UPbopUG3lHmBsA+1tYyeNbOmO2fCbw3shHbEtaM2I6oshvKzfkNX5jpD3LwJbVM9vGYJ54k88wyz9mxJlryrlSe+MNGsRwpsajrJGq7zJzEbiYCAt3MQoJ1d5klxa8GTwFChFVNeYRr1ogqnSPsYtLlQnBu//97x9vMR0uOnd/3uoAK+CIHgWwFoTP3RIRoQBRZbIWa4SPKgViwpfKEFsrVDNBmHheeGscn99UtRiYggJABqwWeqbcKPBMSUfu/hhVewp1NZbReUyB0HHupBHGM0OqziZGdgyOybnhgVCdxxtB7IkjcL6cIy3IeNxU3Tlf4FjEizCScQaWISx42NxkED6q5OxDHPBK8ELskYQJzmzgteLFAfmEdEB45wLXk+vAN1uIH4JNXBFrxIqqJdeW54ZUsUlHE0ywa23Pki3uCPxLX/rSkK9q5WH2I1/xjNKuNWnPIx/rWI2n941vfCPMEyewNJ0NwiRfE3/iQh7gWjJfC27ueO9cB2p0XBM7x3YhVYJIVLiYFiWmFDQymCW8ZTRstgvP/rVOr5H9qmGfZNzqQXzJaFboMeJcq4DMBmGwbTK+FiZWHQ7LbB8g3YDjmijVIxkW8xj71DqOwXITUTs3ptUiWo2FWW89YVo6AtsRLqJhx2kE9rP0SB5vLmEY7Eu8uDHZeVfHy8KHWudn55OEbcyqIYzkFCxc257ftY7VKBaWhQM2rSZ53PkeL+2kShCTEK1WJPp8jtuquEKjx653mZsZbzvmYh9joendrLSojtdsv530kVpBdBzHWWrmXndwHMdpU1wQHcdxYlwQHcdxYlwQHcdxYlwQHcdxYlwQHcdxYlwQHcdxYlwQHcdxYlwQHcdxYlwQHcdxYvzVPWfBkIUsG9m7us14Z9eOsdAsWy9u/p6x44LYhjAiC8NE1YNLbiPwMIRV9Ugtc4GhsQiP/W3KuH0zhWfDes0HOwbxtnEAq+HcSYNknBiP0Ua5qTfazUxxdjoDF8Q2hJGNzzvvvPjXdLjkjPPIsFWPetSjwsC8DNePwDQKYTDWIuNLMm+iShh8foBRs1meFBl+M2Yf34WeSbBnwsIkDMZr5DfYcRiKjE8LMKYfcWLILYSf76EwgGv19klqLXM6CxfENoPLyYCvj370o8PAtPVAOMBGP2ag0H/8x38MA4A2AkLDoKkIKcPtM6gvA4jyyYCPfvSj4TvUCExSZNgHIXzWs54VRl6u56nVg7AQckavJq7EuVrEGFiYYe35Dg/iy9iMDGLLVxw3bdoUb1UbF0THG1XaDAo11UVGdUakzBAghA9jBHJGRkacGPWYr8N95zvfkZNOOimM0s3+s4HwMmL2unVrw7EY0JUwWU5YNpBq8n5L3DA+P9Df3x+mSSNexJXwiBvzjHrOthhxR+xZj3dqg78yNePLh4yqzr6EwbYIL0PdcxNIxsdxqnEPsQ3huyR855oqIiAEfMIA4UOQuOQIC19sY1h7PpiFoLGc6uXHPvaxMCT+TCB+fKwfj8xgf6rhVNn5LgvhgnmCrEe08CDNQ03CUP98YhYv0OLCd034iJPBcs6BbzxjyVG0eTZJVRov1YbTt2ozQ+1fe+21M367m3CdzsYFsQ1B7PieiVV/7bOYCFhSnFjOd5A/8IEPBE+RYfHxqPjmDN/XSApRNXxb5Mwzz4x/RdVhwkagEEk+QHT22WeHZeYZmpjV42tf+1r4rCjHJS5sj2jzLZmZsDD5+BJxQkhN4IE48G0Snm3yASjW18IF0fEqc4eAOGAIlwkFwsN3gvmKnVUtWYaXxicqbbta8DEt8/IQGLxBRAzjI1B8fa76Y0WzCY5Vs+17JdhMcaiG7yPjGVoLM1+DY3/m+QAUcbIPyTtOLVwQOwSEoZa4IBbPfe5zw9cLaSFGjI444ojwuVSeO9YTJJ7VIa7szz58QJ1GHDwzGjL4WiLP/0zUGjW2x8yTNQGfyWy7H//4xxUxJA6ve93rglBzHoCXaJ+vdZxauCB2ECY2ZgafzqTll9ZYq/bSgGFCUg3PHfG2+OQon+Hks6MPfvCDw6dH8TRp0ICf/vSnYTpfELtkPGeCajpeLf0N6aPIR/TxCvlcJyCYeLQIuePUwwWxgzFhpMrLM0daeg2EDUGsFiQ8sB/84AdBONkP4aSLC1VtxIcGEcQHo+ptVHt1ZosBHireoTWk0AJ9/PHHhw7idAlCtFlHnH+jVX3HqYcLohOwll28Q0DQEL9qaIh5//vfHz5UTrX01ltvlSc+8YnBK8NLpGUb4aH6jce2Y8eOhr28+UDYPKt8+9vfHuLEeVBdf9KTnhTiwPNMPgRvH5X/9uWXh2rzYomx0164IDpzgs7YCCVeGVOePR533HFBQPHIjj322OA5Iop4ZXiTzebGG28MfQ4ROeKxYcOG0L2GONJCzTxxJU6sp68lU8epxgXRaRhEhU7XPHME+hvymhwChKeGF3bCCSeEZ5FAV553v/vdoVN1M7xEBJA4fe973wvCjADi/Z122mnBK+SYeLE827TGFJZ/+MMfntYC7jjggug0DF4YDSoIn3ljT33qU4NHiPjggfE8EWHiN1VUOknzql0zqqiESZx+97vfVar8CCTvV3N8jDjyfNQ8QrZDHG+66aaw3nGSuCA6DUN1GSEBGi5oxeXtFwOB4RkioshreAgjXmKjrwPOBY6FEOONWpwQvaOPPjrEywQRkT7ssMOC54qnimgy8EQz4uRkHxdEZxq1PCfE4yc/+UnlWR1Cw/S9732vvOc976kYb4PQ9YXGGVqqEZ/rrrsu7Fcr3IVAnHiThW4+xAXDe+XVw3e9612huk78qCITH9azD3GiY7lXm51q/NW9NqTWq3tvectbwnu+CFlSmLj8dKZ+5zvfGd4x5u0OPC/EglZiOmkD7y7TmmyDKhAO83TNse4uQNj0AbTX/swL++pXvxo8t+rslozLl7/8ZXnzm98cqtqEbyJMeLUgTqecckqoArMPEBeebVaLL88O7dyZcg5f/OIXQ8s4sLx6H6fzcA/RCV1jED+6qCBCdGCmtdiGD0M8fvWrX4XBF/C0EBSqw3RroVM2VVIMMWVKa7Pth8jgwSX7JC4GxIF3l3/zm99UGnmAZ4SIOHFJGiIPCDLxIk54ly6CThIXxA4Hgbj00ktDp2yquFQ5b7vttjDWIOMbAl4Xb6bgcSKYiIg1pCQtCaKDaJooXn755RVvcaEQHl4tzwF5Rkm4nAdxIv60LCcNEUcombf9WcZNAGFEXB0HPCd0CIgTwoFR1UX8aIygQ/PFF18cxhBEvKgq85YHXVUM3km+8sorQ58+RAXB5N1lhvhKGl4gds0118gll1wSRIftqT4zdiL9BauFcz4QBtViRNaqwjwmeOlLXxreWKGanTReIWS5xQnRJE6sw+t1HMMFsQPgnWO8qde85jVy/vnny6te9Sp5+tOfHp6/8WwPTxAvkCnCyHD79kwOEA3WI5hW5aTVlu2TxnGYUpWmtZdnf4gP0NDyzW9+M+y7GDD8GHHCU0TkGMXmcY97XDg+xzIjThjV+KOOOqpSvWZfRPGyyy4LYSyGUDvZxwWxzbBGC7wmCjmGl3bzzTfLFVdcETw1vCWqyIgfwodIsT3eIa3EPD808cPw/oB5uq7wLRM8s1qwDd4oYT/hCU+odMrm+SRjLPLJgnriY8st7rWqsixHwIgTwks8EcOTTz65MiBtEuLDNhYnGoZ4/5pweARAR3O6CDkOuCC2IRR2qsVUIxEg+24KhughUiyjDx+ja+NJ4V3hwTGyNvtbIwTP2BANGl4Ij+4zfC+FZ3JsV22AkGEnnnhiqF7TGsxxEGH6MiJSRnIeb5L4UUXnWPWECu8OcafaTJicDyNrmzdajcWNOBF3WqWJk6UN3YKS8XA6F+9204YgXlSPEbVaXhaXnGokrbF8JIquJzROsD3rTDzwrGjJfd/73hc8SYSIbd761reGlttamGdJGIjOa1/72uCh2vNLBl3gTRKLVzL78azvM5/5TKXxA+jbmOx2Q7iMa8gI4JwDv4nTm970ptDCPVN2Zh1x4LEB+zCP58jNgC5JhOV0Ni6IbQqelnlxM4EwWRZgW9veljFNzgPP7Gy+FqwjHNsX0THYN3lMg+3ZDkuuY3lSIPmNMNu8YdtUh5uEdbaPxcmOi3eZDM/pTFwQ2xQKeS3vcCaSgjDfbJHcz8KrFhq2qQ5/pmPPJlRsX2ub6nDsN+nC9vYbr9aWOZ2NC2KbwmVdSAFfzGxRHY96Yc83vnOJK+LHccyS+873+E774I0qbUonFe65nKt5gtX7uBg64B6is6hYdppNYKqz3VIKEsdOHq/6t9O5uCA6juPEeJXZcRwnxgXRcRwnxgXRcRwnxgXRcRwnxgXRcRwnxgXRcRwnxgXRcRwnxgXRcRwnxgXRcRwnxgXRcRwnxgXRcRwnIPL/AQDmS9epTSZlAAAAAElFTkSuQmCC;" parent="7ZJDLdGAsnnBcBrR-Syd-58" vertex="1">
          <mxGeometry y="14" width="72.9" height="90" as="geometry" />
        </mxCell>
        <mxCell id="7ZJDLdGAsnnBcBrR-Syd-60" value="PDFs" style="text;html=1;align=center;verticalAlign=middle;whiteSpace=wrap;rounded=0;" parent="7ZJDLdGAsnnBcBrR-Syd-58" vertex="1">
          <mxGeometry width="60" height="30" as="geometry" />
        </mxCell>
        <mxCell id="sV7fbiSfHRUUF28fEZ7b-5" value="Near Real Time" style="text;html=1;align=center;verticalAlign=middle;whiteSpace=wrap;rounded=0;" vertex="1" parent="1">
          <mxGeometry x="660" y="328" width="90" height="30" as="geometry" />
        </mxCell>
        <mxCell id="sV7fbiSfHRUUF28fEZ7b-9" value="" style="group" vertex="1" connectable="0" parent="1">
          <mxGeometry x="858" y="328" width="60" height="81" as="geometry" />
        </mxCell>
        <mxCell id="7ZJDLdGAsnnBcBrR-Syd-35" value="" style="sketch=0;pointerEvents=1;shadow=0;dashed=0;html=1;strokeColor=none;fillColor=#434445;aspect=fixed;labelPosition=center;verticalLabelPosition=bottom;verticalAlign=top;align=center;outlineConnect=0;shape=mxgraph.vvd.nsx_dashboard;" parent="sV7fbiSfHRUUF28fEZ7b-9" vertex="1">
          <mxGeometry x="5" width="50" height="46.5" as="geometry" />
        </mxCell>
        <mxCell id="7ZJDLdGAsnnBcBrR-Syd-36" value="Near Real time" style="text;html=1;align=center;verticalAlign=middle;whiteSpace=wrap;rounded=0;" parent="sV7fbiSfHRUUF28fEZ7b-9" vertex="1">
          <mxGeometry y="51" width="60" height="30" as="geometry" />
        </mxCell>
        <mxCell id="sV7fbiSfHRUUF28fEZ7b-10" value="" style="group" vertex="1" connectable="0" parent="1">
          <mxGeometry x="859" y="206.75" width="60" height="78.5" as="geometry" />
        </mxCell>
        <mxCell id="7ZJDLdGAsnnBcBrR-Syd-37" value="" style="sketch=0;pointerEvents=1;shadow=0;dashed=0;html=1;strokeColor=none;fillColor=#434445;aspect=fixed;labelPosition=center;verticalLabelPosition=bottom;verticalAlign=top;align=center;outlineConnect=0;shape=mxgraph.vvd.nsx_dashboard;" parent="sV7fbiSfHRUUF28fEZ7b-10" vertex="1">
          <mxGeometry x="5" width="50" height="46.5" as="geometry" />
        </mxCell>
        <mxCell id="7ZJDLdGAsnnBcBrR-Syd-38" value="AP/AR&lt;div&gt;Dashboards&lt;/div&gt;" style="text;html=1;align=center;verticalAlign=middle;whiteSpace=wrap;rounded=0;" parent="sV7fbiSfHRUUF28fEZ7b-10" vertex="1">
          <mxGeometry y="48.5" width="60" height="30" as="geometry" />
        </mxCell>
        <mxCell id="sV7fbiSfHRUUF28fEZ7b-13" value="Batch&amp;nbsp;" style="text;html=1;align=center;verticalAlign=middle;whiteSpace=wrap;rounded=0;" vertex="1" parent="1">
          <mxGeometry x="144.25" y="334" width="110" height="30" as="geometry" />
        </mxCell>
        <mxCell id="sV7fbiSfHRUUF28fEZ7b-14" value="" style="endArrow=classic;html=1;rounded=0;entryX=0.017;entryY=0.136;entryDx=0;entryDy=0;entryPerimeter=0;exitX=0.976;exitY=0.086;exitDx=0;exitDy=0;exitPerimeter=0;edgeStyle=orthogonalEdgeStyle;" edge="1" parent="1" source="7ZJDLdGAsnnBcBrR-Syd-3" target="7ZJDLdGAsnnBcBrR-Syd-2">
          <mxGeometry width="50" height="50" relative="1" as="geometry">
            <mxPoint x="356" y="186" as="sourcePoint" />
            <mxPoint x="456" y="185" as="targetPoint" />
          </mxGeometry>
        </mxCell>
        <mxCell id="sV7fbiSfHRUUF28fEZ7b-17" value="Crawler&lt;div&gt;Data Catalog&lt;/div&gt;" style="text;html=1;align=center;verticalAlign=middle;whiteSpace=wrap;rounded=0;" vertex="1" parent="1">
          <mxGeometry x="266.25" y="322" width="83.75" height="42" as="geometry" />
        </mxCell>
        <mxCell id="7ZJDLdGAsnnBcBrR-Syd-68" value="" style="group" parent="1" vertex="1" connectable="0">
          <mxGeometry x="260" y="726" width="184.75" height="104" as="geometry" />
        </mxCell>
        <mxCell id="sV7fbiSfHRUUF28fEZ7b-16" value="" style="rounded=0;whiteSpace=wrap;html=1;" vertex="1" parent="7ZJDLdGAsnnBcBrR-Syd-68">
          <mxGeometry x="-34.64" y="-6.27" width="219.39" height="96.27" as="geometry" />
        </mxCell>
        <mxCell id="7ZJDLdGAsnnBcBrR-Syd-69" value="" style="sketch=0;points=[[0,0,0],[0.25,0,0],[0.5,0,0],[0.75,0,0],[1,0,0],[0,1,0],[0.25,1,0],[0.5,1,0],[0.75,1,0],[1,1,0],[0,0.25,0],[0,0.5,0],[0,0.75,0],[1,0.25,0],[1,0.5,0],[1,0.75,0]];outlineConnect=0;fontColor=#232F3E;fillColor=#01A88D;strokeColor=#ffffff;dashed=0;verticalLabelPosition=bottom;verticalAlign=top;align=center;html=1;fontSize=12;fontStyle=0;aspect=fixed;shape=mxgraph.aws4.resourceIcon;resIcon=mxgraph.aws4.q;" parent="7ZJDLdGAsnnBcBrR-Syd-68" vertex="1">
          <mxGeometry width="62.6654104183025" height="62.6654104183025" as="geometry" />
        </mxCell>
        <mxCell id="7ZJDLdGAsnnBcBrR-Syd-70" value="Amazon Q" style="text;html=1;align=center;verticalAlign=middle;whiteSpace=wrap;rounded=0;" parent="7ZJDLdGAsnnBcBrR-Syd-68" vertex="1">
          <mxGeometry y="59.532139897387374" width="69.28125" height="31.33270520915125" as="geometry" />
        </mxCell>
        <mxCell id="sV7fbiSfHRUUF28fEZ7b-15" value="" style="group" vertex="1" connectable="0" parent="7ZJDLdGAsnnBcBrR-Syd-68">
          <mxGeometry x="-5.75" width="184.75" height="94" as="geometry" />
        </mxCell>
        <mxCell id="7ZJDLdGAsnnBcBrR-Syd-65" value="" style="group" parent="sV7fbiSfHRUUF28fEZ7b-15" vertex="1" connectable="0">
          <mxGeometry x="90.06562500000001" width="72.456640625" height="94" as="geometry" />
        </mxCell>
        <mxCell id="7ZJDLdGAsnnBcBrR-Syd-66" value="" style="sketch=0;points=[[0,0,0],[0.25,0,0],[0.5,0,0],[0.75,0,0],[1,0,0],[0,1,0],[0.25,1,0],[0.5,1,0],[0.75,1,0],[1,1,0],[0,0.25,0],[0,0.5,0],[0,0.75,0],[1,0.25,0],[1,0.5,0],[1,0.75,0]];outlineConnect=0;fontColor=#232F3E;fillColor=#01A88D;strokeColor=#ffffff;dashed=0;verticalLabelPosition=bottom;verticalAlign=top;align=center;html=1;fontSize=12;fontStyle=0;aspect=fixed;shape=mxgraph.aws4.resourceIcon;resIcon=mxgraph.aws4.textract;" parent="7ZJDLdGAsnnBcBrR-Syd-65" vertex="1">
          <mxGeometry width="65.53757506247469" height="65.53757506247469" as="geometry" />
        </mxCell>
        <mxCell id="7ZJDLdGAsnnBcBrR-Syd-67" value="Textract" style="text;html=1;align=center;verticalAlign=middle;whiteSpace=wrap;rounded=0;" parent="7ZJDLdGAsnnBcBrR-Syd-65" vertex="1">
          <mxGeometry x="3.1753906250000004" y="62.66729479084876" width="69.28125" height="31.33270520915125" as="geometry" />
        </mxCell>
        <mxCell id="7ZJDLdGAsnnBcBrR-Syd-80" value="" style="shape=image;verticalLabelPosition=bottom;labelBackgroundColor=default;verticalAlign=top;aspect=fixed;imageAspect=0;image=data:image/jpeg,/9j/4AAQSkZJRgABAQAAAQABAAD/2wCEAAkGBw0ODw4NDQ0NFQ0PDw0VDQ4VDRAPDQ4QFREWGBUXFhUYHiggGBonHxUVIT0hJSkvLi4uFx8zODMtNygtLisBCgoKDg0OGhAQGysgICUtKy0tLS0rLS0rKy8tLS0tLS0tLS0tLS0tLS8tLS0tLS0tLS0tLS0tLS0tLS0tLS0tLf/AABEIAOEA4QMBEQACEQEDEQH/xAAbAAEAAgMBAQAAAAAAAAAAAAABAgYDBQcEAP/EAEUQAAEDAgIHAwcJBwMFAQAAAAEAAgMEEQUGEhMhMUFRYQdxgSIyU5GSobEUFyNCUmKTwdIWJDNDcoKyNHThNUTR8PEV/8QAGgEBAAMBAQEAAAAAAAAAAAAAAAECAwUEBv/EADIRAQACAQIEBAUDAwUBAAAAAAABAgMEEQUSITETQVGhFSKBkdEyYbEUQnEzUsHw8UP/2gAMAwEAAhEDEQA/ANOF9k9RCBQKBQSCJIQKBUhQKBRJQSCBCBUhQKBQSCBCJKBUhQIQSCBRJQKCvBUZkIEIFAoFBJEkIFAqQoFAokoJBAhAqQoFAoJBAhElSFAoFBJElB8gryozSCBCBCBQKBQSRJBQIQKkKBQKJKCQQIQKBUhQKCQQIRJUhQKBCCQQKJV1UZlBIIFAoFAoEIJBEkIFAqQoFAokhBIIEIFAqQoFBIIFElSFAoEIFBXlRQoFBIIFAoFAoFBJEkIFAqQoFAokhBIIEIFSFAoFBIIkoFSFQFSFBXlmoVIUCgkCgQgUCgUCgkESQg22XcDmr5dVHYNaLySEXaxv5k8lhqdTXBXmt9IVtbaHQafIeHMaGyCV7z9d0rmEnoG2C4tuJ55neNo+jLxLNBmjI/ydjqikc90bReSJ217RzaRvHTf3r26TiXiTyZOk+q9cm/SVLC6rQokhBIIEIFSFAhAoJBAokqQoFBXgs1CgkpHyBQSCBCBQKBQKCSJdV7NIWtoTI0eW+WQu5nR2D3BfP8TtM5tp8ohhk7ufYzidRPUSySyP0tY8BukQGAEgADhZdrBhpTHEVhtWIiHRuz6ulqaNwnJdq5HxtcdpezRadp420iPBcPiOOuPN8vTeN2OSNp6OZ4lEGTzMb5rZZAO7SK7+K02pWZ9G0dnmWiSiSEEggQgVIUCgUEggUSVIUFeCzZkFElSJIPkCgkECECECgUCEHU+zGmnZTSPk2QyP0oWkeVus53cbD1FcDil6WyREd47sckxu9uJZNoKuQ1H0jS83fq3tDHnntB29yyxa/NiryfyiLzHRuKSjjhhNPS6DQxrg0edovIvd3G+2+1ea+S178+TrurM7zvLimIU8sU0kcwOta92n1N738d6+rx3rakWr2emJ6MCukoFEkIJBAhAqQoFAhBIIFElSK8s2ZCJIQKkKBQSQIQIQKBQbzKOBur6hrCDqWWdO7k37I6nd615dXqYwY9/OeytrbQvmesdbRU7aSnIbNI3RbbZqYtxI5HgPWuToNNObJ4l+0e8s6V3neXMIaqVgIZLI0HeA9zQfUV3ppWe8Q2bzJmPmiqPLcdRLYTC97cn94v6ivLrdN42Pp3jt+Fb13hbu0DABURCtgF5Y2/SW/mxb79SPh4Lm8O1Xh28K3afaWeO23SXMwV325QKBRJQSCBCBUhQKBQSCJKCvKjMoEIEIkoJKQoPkEggQgy00L5XsijaTI9zWsaN5cTYKtrRWJtPaB2GiggwWgc55BLRpSEb5ZTuA+HcvnL2vrM+0f+Qwne0uXTOqsRqJHtY+SZ93FjduiwWFh0FwF36xj0+OImdobdKw89bRTU7tCeJ7HkXDXCxtzV6ZK3jes7pid+z00uCVszBLFTTOjN7PDfJNt6pbUYqTy2tESibRC89nePabTh858uMHUk7dJg3s7x8O5cniWm2nxqdp7/lnkr5wr2ecA+Rz6yNv7tMSWco38WfmP+F7tBqvGpyz+qP+7r0tvCtL3rlAoFElBJAoFSFAoFA3QV9UUKBQIRJCBQSUj5AoJAoOm9muXtWz5fM3y3g6gEeaw73d5+HeuHxLVc0+FXt5sslvJXM95i+Wz6uJ16aEkMIOyR3F3Ucl7dBpfBpvbvPstSu0M/Zh/rz/ALab/JirxT/Q+sf8mT9LdZowV1di0UIvq2wMdM/g1gcfed3/AMXm0uojDpZt579Fa22qy58x5tLE3DqUhrywCQt2aqK2xo5E/DvVdBppy28bJ/7JSu/WXOqad8T2SRuIexwLHDgQu3asWiaz2lr3ddoaiDGaEtfbScNGVvGKUbiPcQvm8lb6PPvH0/eGExNZcqxKikpppIJRZ8brHkRwI6EWK+ixZK5KRevaW8TvG7zLRJQKBRJCCSBCBUhQKBQV9UUKBQKBCBCJIQKkSQWPJGXjX1A0wfk0VjMeDuTPH4Lxa3U+DTp3nt+Vb22hcu0XMIp4vkMBAllZaS2zVw7rDlfd3LncO03iW8W3aPeWdK79XLQu82W/sv8A+oH/AG03+TFzuKf6H1j/AJUydnS462H5VJTbBUGJj78ZGXI2dx4feXEnHbw4v5b7Mdum7kWbsNmpquUTOLtY4vZKf5jSfiNy+j0eWuTFHL026bN6zvDTL0rN5lLHTQ1Aeb6l9mzN+7wdbmF5dXpoz49vOOytq7wveecDbWwNq6ezpY2XaRt1sW+w58wuToNTOG/h37T7SzpbadpcsC+gblSFAoFElBIIEIFSFAoK+FRQoFAoFAgoEIl68Ow+epeIqeJ73ngBu6knYB1Kpky0xxvedoRM7LF83uKWB1cNzbydeNId+y3qK8nxLBv3n7K+JVf/AN3wPD+BLB3OnnI+F/UAuT8+sz/96Qz62lx6tq5J5HzSuvJI4lx69OnBfRUpWlYrXtDeI2YgVcW7swcBXm5H+mm/yYudxP8A0PrH/KmTs92fcQfT4nBUQuGnHEwjbsO11wehGxZ6DFGTT2pbzlFI3rssuLU1PjNCySNzRJYuhcSAY5NzmnpssfBeHFe+kzTE9vP/AApEzWXJZY3Mc5jxZzSQ4ciN6+iiYmN4boqR0Ps3zD/2EzuZpiT4ln5jxXG4lpf/AK1+v5ZZK+aGZcjTvqXSUTY9VLdzgXhgjffaB0O/Z1VtLxGlce2TvHumuSNuquYrleupG6csN4xvkY4PaO+20eIXuw6zDlnas9f3Xi8S069SxQKBRJCCQQKBUhQV5ZqJBSFAoFAoG6Ds+BU0GEYZr3tu/ViSci2m97hcNB5C4HhdfOZ7W1Wo5Y9doYzPNKrRdp1TrNJ9PCYb7WNLhIG34OJtf3L3zwqnL0tO6/hwteb8IGKUcclNtksySnudEOa4DYb7th9y8Gkzf02WYv27SpWeWVD/AGAxX0UX47F1fiWn9Z+zTxKn9gMV9FH+OxPiOn9Z+x4kEZCxUboo/wAdifEdP6+x4lSchYrxij/HYnxHT+vseJVIZDxUbo2fjtT4jp/X2PEq+/YPFPRR/jsU/EtP6+x4lX37B4p6KP8AGYnxLT+s/Y8SrbZXyRVR1UctWxoijOkLSBxc8eaNnDivPquIY7Y5rjnrP7IteNujc5xzi6ikFPBG10uiHSOdfRYDuAA3nj6l5dHoIzV57ztCtKb9ZZMn5r//AEC+CeNglDbi21kjNx2Hjt96jWaLwNr1np/BenL1hRs44U2kq3xxi0TgHxj7Ide48CCuvos05cUTPfs1pO8NIvWsUCgUSUEkCECpFeCzUKCQUhQKBQfFB22j1eL4U1geA6SFrXnfq5mWBuO8eor5u++m1O/pPsw/TZQYez3E3SatzI2svYzaxrmAcwBtPd8F1Z4lgiu8fZr4kL/mHFWYRQxMi0XSMbHHTsdfytEAEutbgPeuVgwzqs0zPbvLKI5pU35za70FJ7Mv610fhWL1n2/DTw4PzmV3oKT2Zf1p8Kxes+34PDg/OZXegpPZl/WnwrF6z7fg8OH3zl13oKT2Zf1J8Kxes+34PDg/OXXegpPZl/UnwrF6z7fg8OD85Vd6Ck9mX9Sn4Vi9Z9vweHD75ya70FL7Mv6k+FYvWfb8Hhw2uW8+y1FSyCqZAxklw17Q8EP4A3cdhXn1PDa48c2pMzMItj2jonnnKVRUzCqpQHOc1rZYy4NN27A4E79mzwTQ62mOnJfp6SUvERtLNkTKs1I99TU2EhYWMjBDiASCSSNnAbFTX62uWsUp277oveJ6QqufcRZUVr9WQWRNazSG0FwvpW8TbwXR4finHhjfz6tMcbQrq9q5UhQKBRJCCSBQV5UUIQKCQUhQKBQbTAsfqqB5fTPsD58bhpRv7x+Y2rDNp8eaNrwiYiVqk7Uasss2lpw+3nlz3N9nZ8V4o4Vj362nZXw4VDFMUqKuQy1Ehc87Bwa0cmjcF0MWKmKvLSNl4jbs+ZhlU4XbTVBHPUvt8FM5scf3R9zeGGWJ8Z0ZGPa77Lmlp9RVotE9YndKCsFBIIEIG6D2R4bVOGk2nqCN4Iif7jZZzlxx0m0fc3hZMOzviFIBDPGHhos0SNdHKB/Vx8QV4snD8OX5qzt/jrCk0iUMYz3W1LTGwMiY4WdoFxkI5aR3DuAVsPDsWOd56z+5GOIVcL3tCECgVIUCgUSQgboK+qMyiSECgkpHsosNqJ2SyQxPeyFoMpAvog/H/hZ3y0pMRadt0TOzygrRJQbfLmX6jEJdXCLMFtZKR5EY/M9F59RqKYa72+yJtEOp0WDYVg8QklMemBtnksZXnjojh3BcS+fPqrbR9oZTM2eWXtJw5ps1s7h9oR2HqJBV44ZmnvseHL20uO4Rig1DtW5zv5UrNF5P3b8e5Z20+o0/zR0/eDa1VQzhkR1MHVFEHugG18W10kQ5g73N9/eujpOIRk+TJ0n19V6337qOCuo0KDbZfwKor5dXCPJFtZKR5EY69ei8+o1FMNd7fZFrRDp9FguF4TEJJTHp8Z5LGRx5NHDuC4d8+fVW2r29IYzabPNL2iYe02a2dw+0I7D3kLSOF5p77J8OXspcewrEhqXGNznfypWaLiel957llbT6jT/NH3hHLaqq5syMYA6oog50IuXw7XPjH3TvcPf3ro6TiMX+TJ0n19V6336SpAK6jRIIl6qLD55xIYYnuETS6QgXDQPz6Kl8tKbRadt0TMQ84K0SUCgUCiSgr6ozKBRJQKDoXZ7nKmpY/kdTG2Nmk4tqGg2cTv1nXhfkAOC5eu0d8lvEpO/7fhneu/Va6zJ+D1954wAXbXSQShodfm3a2/hdeGms1GH5Z91YtMPPB2bYYw6TzUPA3tdMGst10QD71e3E809I2j6HPLLiuacNwuLUUoic9vmQRW0QebnDd8VXFpc2otzX3/zJFZs5TjGL1FbK6aoeXOPmjcyMcGtHAf8ApXdxYaYq8tIaxEQ8QWqyTTaxB2jceIQdFyhn/RDafEHGw2Mqd+zlJ/59a5Gr4dv8+L7fhlannCw1eVMJr/p4w0OdtMkMgbpX5ja2/hdeOms1GH5Z91YtaHng7OcNYdJ7qh4G9rpQ1tuuiAfer24nmnpG0fQ8SWbEsy4bhcWpphEXt8yCK1r83OG74quPS59Rbmvv/mSKzZy7GMXnrZTNUPJcfNbuZG3gGjgF3sOGmKvLWG0REPEFqlIFBf8AKWe9ANp69xLRsZUbyByfz7/WuRq+Hbzz4vt+GdsfnCxVeWMKr7zMDdJ20yQyBt78xtF/C68VNZqMHyz9pUi1oeeHs9w5p0nuqHAb2ulDW266IB960nimeekbR9E+JLNiOYMNwyLUwCMuHmwR2383O/M7VTHpc+ptzX3/AMyiKzbu5XVz62R8mgxum4u0GizG3O4L6GleWsV332bwxKySpCgUCiVfCozKBQKJKBQZYZnsN2Pe082uLT7lExE9xlmrp5Nkk8zhydK9495URjrHaIj6I2QgifI5scbXOe42axoJc49AFaZiI3lK8YR2aVUgDqqVkQP1ANZIO/gCuZl4nSvSkbs5yR5Nwey2C2ysmvz1bFh8Vv8A7YR4kq9jfZ9W0zTJFozRgEnRBEoH9PHwXrw8RxXna3yz7LReJVFdBoyRTPYbse5p5tcWn3KJiJ7oZpq6eQWknmcOTpXuHvKiMdI7REfQ2Y4Y3Pc1jGuc9xAa0C7nHoFaZiI3lK64R2cVUoDqmRsQP1ANOS3XgFzMvFMdelI3Zzkjybg9mMFv9XNfnq2rz/Fr/wC2FfElocZyDW04L4S2ZguSGi0oH9PHwXrw8SxX6W+WfZeMkSqS6K7JFK5huxzmnmHFp9yiYie4zS1s7xaSeZw5Ole4e8qIx0jtER9DaGBWEgiSECgVIUCgrwVFEggUCgkwXIGzaQLk2AvzPAIl0qbsxDqSJ0E4NXo6TyTeCW+0BpG63PiuRHE9skxaPl94Zc/VTK3LWIwOLZKKp2fWbE6VntMBC6FNThvG8Wj77fy0i0PThmUMTqXANpJWN4vlY6Fo9oXPgFXJrMNI62if8dUTaIdOwHAKLBYHVE8jTKG/S1Dha33WDgOm8rjZ9Rk1V+WsdPKGczNlOx/tHq5XObRfRQg7HlrXTOHPbcN7rLoYOG46xvk6z7LxSPNoGZrxMHSFdU36v0m+ydi9c6TBMbckLcsLdljtHfpNixHRLTYCoa2xb1e0cOo9S8Gp4bG3Ni+34UtT0bnNuS4q4fKqR0bahwuSP4U44Ekbj1Xn0uuth+S/WPeFa326S5zWZaxGB2jJRVH9TYnSsP8Acy4XYpqsN43i0ffb+WsWiWbDcp4lUOAbSSsHF8jDC0dfK2nwCrk1mGkdbRP+OpNoh0rAMv0mEQuqJ3tMob9LO7YGj7LBw+JXFz6nJqrclY6ejKbTZU8f7Q6mVzm0VoohueWh0zuu3Y3usuhg4bSsb5Os+y9ccebQtzRiQOkK6ov1fdvqOxev+kwbbckL8sei1Zb7Q3hzYsQsWGw17W2c3q5o3jqF4dTwyNt8X2Z2x+jdZqyfDXj5TSujbO4A6Q/hTgjYSRx+8vLpddbDPJft7wit9ukueVmXMQhJbJR1Gz6zY3SsP9zLhdmmqw3jpaPvt/LWLRLLh+VsRncA2llaDvfIwxMHXytp8AoyazDSOton/HUm0QseNZEZTURmE4+UReVKXENie37Lb7jy57l4sHEZyZuXbpPb1UjJvKirrNEgiSECgVIUFeVFCEEkCgUFjy1nKsw8atjg+nv/AAX3LW/0He3u3LyajR483Wek+qJrErtS9qlMQNdSzNPHRc14/Jc+3Cr/ANtoU8OWKt7VYwCKekeXcC94a31BTThU/wB1iMaiY9mGrr3h9TJdrfMjHkxM7hz6ldTBp8eGNqQ0iIhLCct19ZY09NIWekIEcXtOsD4XTLqcWP8AVYm0Q3J7OsVAvq4D014v8F5/iWD1n7K88NDiWD1dIbVNPLHyJbdh7ni7T4FerHmx5P0TErRMT2bLLmbqyg8iNwfBf+C+5aP6T9VY6jR483Wek+qJrErpS9qFOQNbTStPHRc1w/Jc63Cr/wBtoU8OWOs7UIgCIKV5dwL3hrfUFanCrf3WIxqRj2YKqvcHVD/Jb5kTfJiZ1txPUrp4NNjwxtWPr5tIrEPsKy9XVe2nppHM9IQGRe06wPgpy6nFi/Vb8k2iG4PZ9ilr6EPdrhf4Lz/EsHrP2R4lWjxLCKulNqmnkZycRdh7ni7T616sefHk/RO60TE9mwy9mqroPJjcHQ3uYXXLRz0T9VY6jR483Wek+qLUiVype0ynIGtppWniWua4fkudbhV/7bQz8OUKvtMiAOopXk8C94a31BTThNv7rJjGpmOZgqq5wM7/ACGm7Im7I2nnbiepXUwabHhj5Y+rStYjs1a3SUEgiSECgVIryzUIUhBQSCBG3YN/DmUFqqsh4jHSx1Yj0i4EyQNF5om/VNvrbN4G0deHirr8U5Jpv9fKVeeN9lYcCDYggjeCLEeC9sdV2SnhfK4MiY97ydjWtLnE9wUWtFY3noOpZLyAyJoqcRY0y72QEgsiHN/AnpuC4ur4hNp5MXb19WVr+UM2O9pNNA4w0cYmLdmsvowC3BvFw6jZyuow8NveN8k7fyRSfNoWdqFbe5p6ct+z5Q969M8Lx7d5T4cLXl/OdFiX7rPG1krxbVPs6Kbo08T0O1eLPosmD56zvHrHkrNZjqrec8gviJqMPY50W+SAbXx9Wje4dN4Xs0nEIt8uWdp9Vq39VCcCDZwII3gixC6sdWidPC+RwZGxznk2DWtLnE9wUTaKxvPQdMybkNsYFTiLAZN7ICQWRjm/gT03BcXV8Qm3yYu3r+GVr+UPTjvaJTU7jDSRiVzNhffRgBHAfa8Nipg4be8c152/kjHM92ib2mVl7mCAt+z5Q969fwrHt3lbw4WjAM50eIfu07AyV4tq32dFL0BPHoV4c+hyYPnrO8e8KTSY6q/nDIjo71FAwuj3vpxtezqzmOm9ezScQi3yZZ6+v5XrfylRHAtNnAgjeCLFdWOvZonDG57g2NrnOJsGtBc4nuCTMVjeegsFfk6tp6UVcjRsP0kI2yRM4ONveBu9dvHj12K+Tw4+/qrF4mdleXtWKBQSCJIQKCvKjMokhSEIJNcQQQSCCCCNhBUDouV+0x8LRDiDHyNFg2dttaB95p87v3rl6jhsWnmx9P2UmnotYzFl6r8uSWj0jv1seqffrpgLxf0+qx9Iifp1/hTltCMmb8CowdTJCXfZgh0i7+4C3rKmNJqcn6on6ynltKi5sz7PXAwwtMVMfOF7yyD7xG4dAulptBXFPNbrK9abKgF710gpC0kWIO0bjuIKgdAyz2jyQtENcx8jBYNmbbWgfeB87v3965eo4bFp5sfT9vJnNPRahmHAKvypJaS5362PVu8S8BeH+m1WPpET9Ov8K8toD814HSD6KSEnbZsMOk4/3NFvWVMaTVZf1RP1k5bSpOas9z1oMMDTFTnzhf6WQfeI3DoF0tLoK4p5rdZ9l602VELoNCgkD6+HRBe8tdockLWxVrXyMFg2Vtta0dQfO+K5ep4bF55sfT9vJnbHv2WkZgwKq8qSWlud+tj1bvEvAXg/ptXj7RP06/wpy2h8/NGCUgJikhvwEMWk4/3NFvWVMaTVZf1RP1k5bSpuZ88zVbTDA10UB87aNbIORI3DoF0tLw+uKea3WfZpWm3dUguiuUCgUEkSboK8qMygUSVIQgkECgUCiSECgkFIUCgQgUCECESVIUCgUEggQgQgUCgQgbolXwqMygUCiSpCEEggUCgUSQgUEgpCgUCgUCECESUCpCgUEggUCgUCgUFeCookECgUCiSFIQUEggUCgUSQgUEgpCgUCgUCECESUElIUCgQUCgQgUCgrwVFCEEggUCgQiSFIQgkECgUCiSECgkpCgUCgUCECESQgkpCg+QSCBQIQKJV5ZsypCEEggUCgUSVIQgkECgUCiSECgkpCgUCgUCECESUElI+QKCQQIQKCvhZqPgpEggQgUCgQiSECFIkECECgUSQgkgVIQgQgUCgUCESkECpCgUCECgUH//Z;" parent="1" vertex="1">
          <mxGeometry x="256.25" y="631" width="60" height="60" as="geometry" />
        </mxCell>
        <mxCell id="7ZJDLdGAsnnBcBrR-Syd-82" value="MSK" style="text;html=1;align=center;verticalAlign=middle;whiteSpace=wrap;rounded=0;" parent="1" vertex="1">
          <mxGeometry x="316.25" y="648" width="30" height="30" as="geometry" />
        </mxCell>
        <mxCell id="sV7fbiSfHRUUF28fEZ7b-19" value="" style="endArrow=classic;html=1;rounded=0;entryX=0;entryY=1;entryDx=0;entryDy=0;edgeStyle=orthogonalEdgeStyle;exitX=1.008;exitY=0.159;exitDx=0;exitDy=0;exitPerimeter=0;" edge="1" parent="1" source="7ZJDLdGAsnnBcBrR-Syd-6" target="7ZJDLdGAsnnBcBrR-Syd-3">
          <mxGeometry width="50" height="50" relative="1" as="geometry">
            <mxPoint x="80" y="430" as="sourcePoint" />
            <mxPoint x="187" y="440" as="targetPoint" />
            <Array as="points">
              <mxPoint x="90" y="410" />
              <mxPoint x="257" y="410" />
            </Array>
          </mxGeometry>
        </mxCell>
        <mxCell id="sV7fbiSfHRUUF28fEZ7b-20" value="" style="endArrow=classic;html=1;rounded=0;" edge="1" parent="1" target="7ZJDLdGAsnnBcBrR-Syd-22">
          <mxGeometry width="50" height="50" relative="1" as="geometry">
            <mxPoint x="90" y="480" as="sourcePoint" />
            <mxPoint x="279" y="478" as="targetPoint" />
          </mxGeometry>
        </mxCell>
        <mxCell id="7ZJDLdGAsnnBcBrR-Syd-22" value="Near real time" style="text;html=1;align=center;verticalAlign=middle;whiteSpace=wrap;rounded=0;rotation=0;" parent="1" vertex="1">
          <mxGeometry x="163.25" y="468" width="50" height="20" as="geometry" />
        </mxCell>
        <mxCell id="sV7fbiSfHRUUF28fEZ7b-21" value="Batch&amp;nbsp;" style="text;html=1;align=center;verticalAlign=middle;whiteSpace=wrap;rounded=0;" vertex="1" parent="1">
          <mxGeometry x="160.5" y="389" width="77" height="30" as="geometry" />
        </mxCell>
      </root>
    </mxGraphModel>
  </diagram>
</mxfile>
